G04 EAGLE Gerber RS-274X export*
G75*
%MOMM*%
%FSLAX34Y34*%
%LPD*%
%INSoldermask Bottom*%
%IPPOS*%
%AMOC8*
5,1,8,0,0,1.08239X$1,22.5*%
G01*
%ADD10C,1.652400*%
%ADD11C,2.032000*%
%ADD12C,0.251966*%
%ADD13C,1.152400*%
%ADD14C,1.270000*%

G36*
X299150Y1814207D02*
X299150Y1814207D01*
X299216Y1814209D01*
X299259Y1814227D01*
X299306Y1814235D01*
X299363Y1814269D01*
X299423Y1814294D01*
X299458Y1814325D01*
X299499Y1814350D01*
X299541Y1814401D01*
X299589Y1814445D01*
X299611Y1814487D01*
X299640Y1814524D01*
X299661Y1814586D01*
X299692Y1814645D01*
X299700Y1814699D01*
X299712Y1814736D01*
X299711Y1814776D01*
X299719Y1814830D01*
X299719Y1817370D01*
X299708Y1817435D01*
X299706Y1817501D01*
X299688Y1817544D01*
X299680Y1817591D01*
X299646Y1817648D01*
X299621Y1817708D01*
X299590Y1817743D01*
X299565Y1817784D01*
X299514Y1817826D01*
X299470Y1817874D01*
X299428Y1817896D01*
X299391Y1817925D01*
X299329Y1817946D01*
X299270Y1817977D01*
X299216Y1817985D01*
X299179Y1817997D01*
X299139Y1817996D01*
X299085Y1818004D01*
X295275Y1818004D01*
X295210Y1817993D01*
X295144Y1817991D01*
X295101Y1817973D01*
X295054Y1817965D01*
X294997Y1817931D01*
X294937Y1817906D01*
X294902Y1817875D01*
X294861Y1817850D01*
X294820Y1817799D01*
X294771Y1817755D01*
X294749Y1817713D01*
X294720Y1817676D01*
X294699Y1817614D01*
X294668Y1817555D01*
X294660Y1817501D01*
X294648Y1817464D01*
X294648Y1817461D01*
X294649Y1817424D01*
X294641Y1817370D01*
X294641Y1814830D01*
X294652Y1814765D01*
X294654Y1814699D01*
X294672Y1814656D01*
X294680Y1814609D01*
X294714Y1814552D01*
X294739Y1814492D01*
X294770Y1814457D01*
X294795Y1814416D01*
X294846Y1814375D01*
X294890Y1814326D01*
X294932Y1814304D01*
X294969Y1814275D01*
X295031Y1814254D01*
X295090Y1814223D01*
X295144Y1814215D01*
X295181Y1814203D01*
X295221Y1814204D01*
X295275Y1814196D01*
X299085Y1814196D01*
X299150Y1814207D01*
G37*
G36*
X1000190Y1814207D02*
X1000190Y1814207D01*
X1000256Y1814209D01*
X1000299Y1814227D01*
X1000346Y1814235D01*
X1000403Y1814269D01*
X1000463Y1814294D01*
X1000498Y1814325D01*
X1000539Y1814350D01*
X1000581Y1814401D01*
X1000629Y1814445D01*
X1000651Y1814487D01*
X1000680Y1814524D01*
X1000701Y1814586D01*
X1000732Y1814645D01*
X1000740Y1814699D01*
X1000752Y1814736D01*
X1000751Y1814776D01*
X1000759Y1814830D01*
X1000759Y1817370D01*
X1000748Y1817435D01*
X1000746Y1817501D01*
X1000728Y1817544D01*
X1000720Y1817591D01*
X1000686Y1817648D01*
X1000661Y1817708D01*
X1000630Y1817743D01*
X1000605Y1817784D01*
X1000554Y1817826D01*
X1000510Y1817874D01*
X1000468Y1817896D01*
X1000431Y1817925D01*
X1000369Y1817946D01*
X1000310Y1817977D01*
X1000256Y1817985D01*
X1000219Y1817997D01*
X1000179Y1817996D01*
X1000125Y1818004D01*
X996315Y1818004D01*
X996250Y1817993D01*
X996184Y1817991D01*
X996141Y1817973D01*
X996094Y1817965D01*
X996037Y1817931D01*
X995977Y1817906D01*
X995942Y1817875D01*
X995901Y1817850D01*
X995860Y1817799D01*
X995811Y1817755D01*
X995789Y1817713D01*
X995760Y1817676D01*
X995739Y1817614D01*
X995708Y1817555D01*
X995700Y1817501D01*
X995688Y1817464D01*
X995688Y1817461D01*
X995689Y1817424D01*
X995681Y1817370D01*
X995681Y1814830D01*
X995692Y1814765D01*
X995694Y1814699D01*
X995712Y1814656D01*
X995720Y1814609D01*
X995754Y1814552D01*
X995779Y1814492D01*
X995810Y1814457D01*
X995835Y1814416D01*
X995886Y1814375D01*
X995930Y1814326D01*
X995972Y1814304D01*
X996009Y1814275D01*
X996071Y1814254D01*
X996130Y1814223D01*
X996184Y1814215D01*
X996221Y1814203D01*
X996261Y1814204D01*
X996315Y1814196D01*
X1000125Y1814196D01*
X1000190Y1814207D01*
G37*
G36*
X766510Y1814207D02*
X766510Y1814207D01*
X766576Y1814209D01*
X766619Y1814227D01*
X766666Y1814235D01*
X766723Y1814269D01*
X766783Y1814294D01*
X766818Y1814325D01*
X766859Y1814350D01*
X766901Y1814401D01*
X766949Y1814445D01*
X766971Y1814487D01*
X767000Y1814524D01*
X767021Y1814586D01*
X767052Y1814645D01*
X767060Y1814699D01*
X767072Y1814736D01*
X767071Y1814776D01*
X767079Y1814830D01*
X767079Y1817370D01*
X767068Y1817435D01*
X767066Y1817501D01*
X767048Y1817544D01*
X767040Y1817591D01*
X767006Y1817648D01*
X766981Y1817708D01*
X766950Y1817743D01*
X766925Y1817784D01*
X766874Y1817826D01*
X766830Y1817874D01*
X766788Y1817896D01*
X766751Y1817925D01*
X766689Y1817946D01*
X766630Y1817977D01*
X766576Y1817985D01*
X766539Y1817997D01*
X766499Y1817996D01*
X766445Y1818004D01*
X762635Y1818004D01*
X762570Y1817993D01*
X762504Y1817991D01*
X762461Y1817973D01*
X762414Y1817965D01*
X762357Y1817931D01*
X762297Y1817906D01*
X762262Y1817875D01*
X762221Y1817850D01*
X762180Y1817799D01*
X762131Y1817755D01*
X762109Y1817713D01*
X762080Y1817676D01*
X762059Y1817614D01*
X762028Y1817555D01*
X762020Y1817501D01*
X762008Y1817464D01*
X762008Y1817461D01*
X762009Y1817424D01*
X762001Y1817370D01*
X762001Y1814830D01*
X762012Y1814765D01*
X762014Y1814699D01*
X762032Y1814656D01*
X762040Y1814609D01*
X762074Y1814552D01*
X762099Y1814492D01*
X762130Y1814457D01*
X762155Y1814416D01*
X762206Y1814375D01*
X762250Y1814326D01*
X762292Y1814304D01*
X762329Y1814275D01*
X762391Y1814254D01*
X762450Y1814223D01*
X762504Y1814215D01*
X762541Y1814203D01*
X762581Y1814204D01*
X762635Y1814196D01*
X766445Y1814196D01*
X766510Y1814207D01*
G37*
G36*
X532830Y1814207D02*
X532830Y1814207D01*
X532896Y1814209D01*
X532939Y1814227D01*
X532986Y1814235D01*
X533043Y1814269D01*
X533103Y1814294D01*
X533138Y1814325D01*
X533179Y1814350D01*
X533221Y1814401D01*
X533269Y1814445D01*
X533291Y1814487D01*
X533320Y1814524D01*
X533341Y1814586D01*
X533372Y1814645D01*
X533380Y1814699D01*
X533392Y1814736D01*
X533391Y1814776D01*
X533399Y1814830D01*
X533399Y1817370D01*
X533388Y1817435D01*
X533386Y1817501D01*
X533368Y1817544D01*
X533360Y1817591D01*
X533326Y1817648D01*
X533301Y1817708D01*
X533270Y1817743D01*
X533245Y1817784D01*
X533194Y1817826D01*
X533150Y1817874D01*
X533108Y1817896D01*
X533071Y1817925D01*
X533009Y1817946D01*
X532950Y1817977D01*
X532896Y1817985D01*
X532859Y1817997D01*
X532819Y1817996D01*
X532765Y1818004D01*
X528955Y1818004D01*
X528890Y1817993D01*
X528824Y1817991D01*
X528781Y1817973D01*
X528734Y1817965D01*
X528677Y1817931D01*
X528617Y1817906D01*
X528582Y1817875D01*
X528541Y1817850D01*
X528500Y1817799D01*
X528451Y1817755D01*
X528429Y1817713D01*
X528400Y1817676D01*
X528379Y1817614D01*
X528348Y1817555D01*
X528340Y1817501D01*
X528328Y1817464D01*
X528328Y1817461D01*
X528329Y1817424D01*
X528321Y1817370D01*
X528321Y1814830D01*
X528332Y1814765D01*
X528334Y1814699D01*
X528352Y1814656D01*
X528360Y1814609D01*
X528394Y1814552D01*
X528419Y1814492D01*
X528450Y1814457D01*
X528475Y1814416D01*
X528526Y1814375D01*
X528570Y1814326D01*
X528612Y1814304D01*
X528649Y1814275D01*
X528711Y1814254D01*
X528770Y1814223D01*
X528824Y1814215D01*
X528861Y1814203D01*
X528901Y1814204D01*
X528955Y1814196D01*
X532765Y1814196D01*
X532830Y1814207D01*
G37*
G36*
X65470Y1814207D02*
X65470Y1814207D01*
X65536Y1814209D01*
X65579Y1814227D01*
X65626Y1814235D01*
X65683Y1814269D01*
X65743Y1814294D01*
X65778Y1814325D01*
X65819Y1814350D01*
X65861Y1814401D01*
X65909Y1814445D01*
X65931Y1814487D01*
X65960Y1814524D01*
X65981Y1814586D01*
X66012Y1814645D01*
X66020Y1814699D01*
X66032Y1814736D01*
X66031Y1814776D01*
X66039Y1814830D01*
X66039Y1817370D01*
X66028Y1817435D01*
X66026Y1817501D01*
X66008Y1817544D01*
X66000Y1817591D01*
X65966Y1817648D01*
X65941Y1817708D01*
X65910Y1817743D01*
X65885Y1817784D01*
X65834Y1817826D01*
X65790Y1817874D01*
X65748Y1817896D01*
X65711Y1817925D01*
X65649Y1817946D01*
X65590Y1817977D01*
X65536Y1817985D01*
X65499Y1817997D01*
X65459Y1817996D01*
X65405Y1818004D01*
X61595Y1818004D01*
X61530Y1817993D01*
X61464Y1817991D01*
X61421Y1817973D01*
X61374Y1817965D01*
X61317Y1817931D01*
X61257Y1817906D01*
X61222Y1817875D01*
X61181Y1817850D01*
X61140Y1817799D01*
X61091Y1817755D01*
X61069Y1817713D01*
X61040Y1817676D01*
X61019Y1817614D01*
X60988Y1817555D01*
X60980Y1817501D01*
X60968Y1817464D01*
X60968Y1817461D01*
X60969Y1817424D01*
X60961Y1817370D01*
X60961Y1814830D01*
X60972Y1814765D01*
X60974Y1814699D01*
X60992Y1814656D01*
X61000Y1814609D01*
X61034Y1814552D01*
X61059Y1814492D01*
X61090Y1814457D01*
X61115Y1814416D01*
X61166Y1814375D01*
X61210Y1814326D01*
X61252Y1814304D01*
X61289Y1814275D01*
X61351Y1814254D01*
X61410Y1814223D01*
X61464Y1814215D01*
X61501Y1814203D01*
X61541Y1814204D01*
X61595Y1814196D01*
X65405Y1814196D01*
X65470Y1814207D01*
G37*
G36*
X766510Y1504327D02*
X766510Y1504327D01*
X766576Y1504329D01*
X766619Y1504347D01*
X766666Y1504355D01*
X766723Y1504389D01*
X766783Y1504414D01*
X766818Y1504445D01*
X766859Y1504470D01*
X766901Y1504521D01*
X766949Y1504565D01*
X766971Y1504607D01*
X767000Y1504644D01*
X767021Y1504706D01*
X767052Y1504765D01*
X767060Y1504819D01*
X767072Y1504856D01*
X767071Y1504896D01*
X767079Y1504950D01*
X767079Y1507490D01*
X767068Y1507555D01*
X767066Y1507621D01*
X767048Y1507664D01*
X767040Y1507711D01*
X767006Y1507768D01*
X766981Y1507828D01*
X766950Y1507863D01*
X766925Y1507904D01*
X766874Y1507946D01*
X766830Y1507994D01*
X766788Y1508016D01*
X766751Y1508045D01*
X766689Y1508066D01*
X766630Y1508097D01*
X766576Y1508105D01*
X766539Y1508117D01*
X766499Y1508116D01*
X766445Y1508124D01*
X762635Y1508124D01*
X762570Y1508113D01*
X762504Y1508111D01*
X762461Y1508093D01*
X762414Y1508085D01*
X762357Y1508051D01*
X762297Y1508026D01*
X762262Y1507995D01*
X762221Y1507970D01*
X762180Y1507919D01*
X762131Y1507875D01*
X762109Y1507833D01*
X762080Y1507796D01*
X762059Y1507734D01*
X762028Y1507675D01*
X762020Y1507621D01*
X762008Y1507584D01*
X762008Y1507581D01*
X762009Y1507544D01*
X762001Y1507490D01*
X762001Y1504950D01*
X762012Y1504885D01*
X762014Y1504819D01*
X762032Y1504776D01*
X762040Y1504729D01*
X762074Y1504672D01*
X762099Y1504612D01*
X762130Y1504577D01*
X762155Y1504536D01*
X762206Y1504495D01*
X762250Y1504446D01*
X762292Y1504424D01*
X762329Y1504395D01*
X762391Y1504374D01*
X762450Y1504343D01*
X762504Y1504335D01*
X762541Y1504323D01*
X762581Y1504324D01*
X762635Y1504316D01*
X766445Y1504316D01*
X766510Y1504327D01*
G37*
G36*
X1000190Y1504327D02*
X1000190Y1504327D01*
X1000256Y1504329D01*
X1000299Y1504347D01*
X1000346Y1504355D01*
X1000403Y1504389D01*
X1000463Y1504414D01*
X1000498Y1504445D01*
X1000539Y1504470D01*
X1000581Y1504521D01*
X1000629Y1504565D01*
X1000651Y1504607D01*
X1000680Y1504644D01*
X1000701Y1504706D01*
X1000732Y1504765D01*
X1000740Y1504819D01*
X1000752Y1504856D01*
X1000751Y1504896D01*
X1000759Y1504950D01*
X1000759Y1507490D01*
X1000748Y1507555D01*
X1000746Y1507621D01*
X1000728Y1507664D01*
X1000720Y1507711D01*
X1000686Y1507768D01*
X1000661Y1507828D01*
X1000630Y1507863D01*
X1000605Y1507904D01*
X1000554Y1507946D01*
X1000510Y1507994D01*
X1000468Y1508016D01*
X1000431Y1508045D01*
X1000369Y1508066D01*
X1000310Y1508097D01*
X1000256Y1508105D01*
X1000219Y1508117D01*
X1000179Y1508116D01*
X1000125Y1508124D01*
X996315Y1508124D01*
X996250Y1508113D01*
X996184Y1508111D01*
X996141Y1508093D01*
X996094Y1508085D01*
X996037Y1508051D01*
X995977Y1508026D01*
X995942Y1507995D01*
X995901Y1507970D01*
X995860Y1507919D01*
X995811Y1507875D01*
X995789Y1507833D01*
X995760Y1507796D01*
X995739Y1507734D01*
X995708Y1507675D01*
X995700Y1507621D01*
X995688Y1507584D01*
X995688Y1507581D01*
X995689Y1507544D01*
X995681Y1507490D01*
X995681Y1504950D01*
X995692Y1504885D01*
X995694Y1504819D01*
X995712Y1504776D01*
X995720Y1504729D01*
X995754Y1504672D01*
X995779Y1504612D01*
X995810Y1504577D01*
X995835Y1504536D01*
X995886Y1504495D01*
X995930Y1504446D01*
X995972Y1504424D01*
X996009Y1504395D01*
X996071Y1504374D01*
X996130Y1504343D01*
X996184Y1504335D01*
X996221Y1504323D01*
X996261Y1504324D01*
X996315Y1504316D01*
X1000125Y1504316D01*
X1000190Y1504327D01*
G37*
G36*
X299150Y1504327D02*
X299150Y1504327D01*
X299216Y1504329D01*
X299259Y1504347D01*
X299306Y1504355D01*
X299363Y1504389D01*
X299423Y1504414D01*
X299458Y1504445D01*
X299499Y1504470D01*
X299541Y1504521D01*
X299589Y1504565D01*
X299611Y1504607D01*
X299640Y1504644D01*
X299661Y1504706D01*
X299692Y1504765D01*
X299700Y1504819D01*
X299712Y1504856D01*
X299711Y1504896D01*
X299719Y1504950D01*
X299719Y1507490D01*
X299708Y1507555D01*
X299706Y1507621D01*
X299688Y1507664D01*
X299680Y1507711D01*
X299646Y1507768D01*
X299621Y1507828D01*
X299590Y1507863D01*
X299565Y1507904D01*
X299514Y1507946D01*
X299470Y1507994D01*
X299428Y1508016D01*
X299391Y1508045D01*
X299329Y1508066D01*
X299270Y1508097D01*
X299216Y1508105D01*
X299179Y1508117D01*
X299139Y1508116D01*
X299085Y1508124D01*
X295275Y1508124D01*
X295210Y1508113D01*
X295144Y1508111D01*
X295101Y1508093D01*
X295054Y1508085D01*
X294997Y1508051D01*
X294937Y1508026D01*
X294902Y1507995D01*
X294861Y1507970D01*
X294820Y1507919D01*
X294771Y1507875D01*
X294749Y1507833D01*
X294720Y1507796D01*
X294699Y1507734D01*
X294668Y1507675D01*
X294660Y1507621D01*
X294648Y1507584D01*
X294648Y1507581D01*
X294649Y1507544D01*
X294641Y1507490D01*
X294641Y1504950D01*
X294652Y1504885D01*
X294654Y1504819D01*
X294672Y1504776D01*
X294680Y1504729D01*
X294714Y1504672D01*
X294739Y1504612D01*
X294770Y1504577D01*
X294795Y1504536D01*
X294846Y1504495D01*
X294890Y1504446D01*
X294932Y1504424D01*
X294969Y1504395D01*
X295031Y1504374D01*
X295090Y1504343D01*
X295144Y1504335D01*
X295181Y1504323D01*
X295221Y1504324D01*
X295275Y1504316D01*
X299085Y1504316D01*
X299150Y1504327D01*
G37*
G36*
X65470Y1504327D02*
X65470Y1504327D01*
X65536Y1504329D01*
X65579Y1504347D01*
X65626Y1504355D01*
X65683Y1504389D01*
X65743Y1504414D01*
X65778Y1504445D01*
X65819Y1504470D01*
X65861Y1504521D01*
X65909Y1504565D01*
X65931Y1504607D01*
X65960Y1504644D01*
X65981Y1504706D01*
X66012Y1504765D01*
X66020Y1504819D01*
X66032Y1504856D01*
X66031Y1504896D01*
X66039Y1504950D01*
X66039Y1507490D01*
X66028Y1507555D01*
X66026Y1507621D01*
X66008Y1507664D01*
X66000Y1507711D01*
X65966Y1507768D01*
X65941Y1507828D01*
X65910Y1507863D01*
X65885Y1507904D01*
X65834Y1507946D01*
X65790Y1507994D01*
X65748Y1508016D01*
X65711Y1508045D01*
X65649Y1508066D01*
X65590Y1508097D01*
X65536Y1508105D01*
X65499Y1508117D01*
X65459Y1508116D01*
X65405Y1508124D01*
X61595Y1508124D01*
X61530Y1508113D01*
X61464Y1508111D01*
X61421Y1508093D01*
X61374Y1508085D01*
X61317Y1508051D01*
X61257Y1508026D01*
X61222Y1507995D01*
X61181Y1507970D01*
X61140Y1507919D01*
X61091Y1507875D01*
X61069Y1507833D01*
X61040Y1507796D01*
X61019Y1507734D01*
X60988Y1507675D01*
X60980Y1507621D01*
X60968Y1507584D01*
X60968Y1507581D01*
X60969Y1507544D01*
X60961Y1507490D01*
X60961Y1504950D01*
X60972Y1504885D01*
X60974Y1504819D01*
X60992Y1504776D01*
X61000Y1504729D01*
X61034Y1504672D01*
X61059Y1504612D01*
X61090Y1504577D01*
X61115Y1504536D01*
X61166Y1504495D01*
X61210Y1504446D01*
X61252Y1504424D01*
X61289Y1504395D01*
X61351Y1504374D01*
X61410Y1504343D01*
X61464Y1504335D01*
X61501Y1504323D01*
X61541Y1504324D01*
X61595Y1504316D01*
X65405Y1504316D01*
X65470Y1504327D01*
G37*
G36*
X532830Y1504327D02*
X532830Y1504327D01*
X532896Y1504329D01*
X532939Y1504347D01*
X532986Y1504355D01*
X533043Y1504389D01*
X533103Y1504414D01*
X533138Y1504445D01*
X533179Y1504470D01*
X533221Y1504521D01*
X533269Y1504565D01*
X533291Y1504607D01*
X533320Y1504644D01*
X533341Y1504706D01*
X533372Y1504765D01*
X533380Y1504819D01*
X533392Y1504856D01*
X533391Y1504896D01*
X533399Y1504950D01*
X533399Y1507490D01*
X533388Y1507555D01*
X533386Y1507621D01*
X533368Y1507664D01*
X533360Y1507711D01*
X533326Y1507768D01*
X533301Y1507828D01*
X533270Y1507863D01*
X533245Y1507904D01*
X533194Y1507946D01*
X533150Y1507994D01*
X533108Y1508016D01*
X533071Y1508045D01*
X533009Y1508066D01*
X532950Y1508097D01*
X532896Y1508105D01*
X532859Y1508117D01*
X532819Y1508116D01*
X532765Y1508124D01*
X528955Y1508124D01*
X528890Y1508113D01*
X528824Y1508111D01*
X528781Y1508093D01*
X528734Y1508085D01*
X528677Y1508051D01*
X528617Y1508026D01*
X528582Y1507995D01*
X528541Y1507970D01*
X528500Y1507919D01*
X528451Y1507875D01*
X528429Y1507833D01*
X528400Y1507796D01*
X528379Y1507734D01*
X528348Y1507675D01*
X528340Y1507621D01*
X528328Y1507584D01*
X528328Y1507581D01*
X528329Y1507544D01*
X528321Y1507490D01*
X528321Y1504950D01*
X528332Y1504885D01*
X528334Y1504819D01*
X528352Y1504776D01*
X528360Y1504729D01*
X528394Y1504672D01*
X528419Y1504612D01*
X528450Y1504577D01*
X528475Y1504536D01*
X528526Y1504495D01*
X528570Y1504446D01*
X528612Y1504424D01*
X528649Y1504395D01*
X528711Y1504374D01*
X528770Y1504343D01*
X528824Y1504335D01*
X528861Y1504323D01*
X528901Y1504324D01*
X528955Y1504316D01*
X532765Y1504316D01*
X532830Y1504327D01*
G37*
G36*
X299150Y1194447D02*
X299150Y1194447D01*
X299216Y1194449D01*
X299259Y1194467D01*
X299306Y1194475D01*
X299363Y1194509D01*
X299423Y1194534D01*
X299458Y1194565D01*
X299499Y1194590D01*
X299541Y1194641D01*
X299589Y1194685D01*
X299611Y1194727D01*
X299640Y1194764D01*
X299661Y1194826D01*
X299692Y1194885D01*
X299700Y1194939D01*
X299712Y1194976D01*
X299711Y1195016D01*
X299719Y1195070D01*
X299719Y1197610D01*
X299708Y1197675D01*
X299706Y1197741D01*
X299688Y1197784D01*
X299680Y1197831D01*
X299646Y1197888D01*
X299621Y1197948D01*
X299590Y1197983D01*
X299565Y1198024D01*
X299514Y1198066D01*
X299470Y1198114D01*
X299428Y1198136D01*
X299391Y1198165D01*
X299329Y1198186D01*
X299270Y1198217D01*
X299216Y1198225D01*
X299179Y1198237D01*
X299139Y1198236D01*
X299085Y1198244D01*
X295275Y1198244D01*
X295210Y1198233D01*
X295144Y1198231D01*
X295101Y1198213D01*
X295054Y1198205D01*
X294997Y1198171D01*
X294937Y1198146D01*
X294902Y1198115D01*
X294861Y1198090D01*
X294820Y1198039D01*
X294771Y1197995D01*
X294749Y1197953D01*
X294720Y1197916D01*
X294699Y1197854D01*
X294668Y1197795D01*
X294660Y1197741D01*
X294648Y1197704D01*
X294648Y1197701D01*
X294649Y1197664D01*
X294641Y1197610D01*
X294641Y1195070D01*
X294652Y1195005D01*
X294654Y1194939D01*
X294672Y1194896D01*
X294680Y1194849D01*
X294714Y1194792D01*
X294739Y1194732D01*
X294770Y1194697D01*
X294795Y1194656D01*
X294846Y1194615D01*
X294890Y1194566D01*
X294932Y1194544D01*
X294969Y1194515D01*
X295031Y1194494D01*
X295090Y1194463D01*
X295144Y1194455D01*
X295181Y1194443D01*
X295221Y1194444D01*
X295275Y1194436D01*
X299085Y1194436D01*
X299150Y1194447D01*
G37*
G36*
X65470Y1194447D02*
X65470Y1194447D01*
X65536Y1194449D01*
X65579Y1194467D01*
X65626Y1194475D01*
X65683Y1194509D01*
X65743Y1194534D01*
X65778Y1194565D01*
X65819Y1194590D01*
X65861Y1194641D01*
X65909Y1194685D01*
X65931Y1194727D01*
X65960Y1194764D01*
X65981Y1194826D01*
X66012Y1194885D01*
X66020Y1194939D01*
X66032Y1194976D01*
X66031Y1195016D01*
X66039Y1195070D01*
X66039Y1197610D01*
X66028Y1197675D01*
X66026Y1197741D01*
X66008Y1197784D01*
X66000Y1197831D01*
X65966Y1197888D01*
X65941Y1197948D01*
X65910Y1197983D01*
X65885Y1198024D01*
X65834Y1198066D01*
X65790Y1198114D01*
X65748Y1198136D01*
X65711Y1198165D01*
X65649Y1198186D01*
X65590Y1198217D01*
X65536Y1198225D01*
X65499Y1198237D01*
X65459Y1198236D01*
X65405Y1198244D01*
X61595Y1198244D01*
X61530Y1198233D01*
X61464Y1198231D01*
X61421Y1198213D01*
X61374Y1198205D01*
X61317Y1198171D01*
X61257Y1198146D01*
X61222Y1198115D01*
X61181Y1198090D01*
X61140Y1198039D01*
X61091Y1197995D01*
X61069Y1197953D01*
X61040Y1197916D01*
X61019Y1197854D01*
X60988Y1197795D01*
X60980Y1197741D01*
X60968Y1197704D01*
X60968Y1197701D01*
X60969Y1197664D01*
X60961Y1197610D01*
X60961Y1195070D01*
X60972Y1195005D01*
X60974Y1194939D01*
X60992Y1194896D01*
X61000Y1194849D01*
X61034Y1194792D01*
X61059Y1194732D01*
X61090Y1194697D01*
X61115Y1194656D01*
X61166Y1194615D01*
X61210Y1194566D01*
X61252Y1194544D01*
X61289Y1194515D01*
X61351Y1194494D01*
X61410Y1194463D01*
X61464Y1194455D01*
X61501Y1194443D01*
X61541Y1194444D01*
X61595Y1194436D01*
X65405Y1194436D01*
X65470Y1194447D01*
G37*
G36*
X532830Y1194447D02*
X532830Y1194447D01*
X532896Y1194449D01*
X532939Y1194467D01*
X532986Y1194475D01*
X533043Y1194509D01*
X533103Y1194534D01*
X533138Y1194565D01*
X533179Y1194590D01*
X533221Y1194641D01*
X533269Y1194685D01*
X533291Y1194727D01*
X533320Y1194764D01*
X533341Y1194826D01*
X533372Y1194885D01*
X533380Y1194939D01*
X533392Y1194976D01*
X533391Y1195016D01*
X533399Y1195070D01*
X533399Y1197610D01*
X533388Y1197675D01*
X533386Y1197741D01*
X533368Y1197784D01*
X533360Y1197831D01*
X533326Y1197888D01*
X533301Y1197948D01*
X533270Y1197983D01*
X533245Y1198024D01*
X533194Y1198066D01*
X533150Y1198114D01*
X533108Y1198136D01*
X533071Y1198165D01*
X533009Y1198186D01*
X532950Y1198217D01*
X532896Y1198225D01*
X532859Y1198237D01*
X532819Y1198236D01*
X532765Y1198244D01*
X528955Y1198244D01*
X528890Y1198233D01*
X528824Y1198231D01*
X528781Y1198213D01*
X528734Y1198205D01*
X528677Y1198171D01*
X528617Y1198146D01*
X528582Y1198115D01*
X528541Y1198090D01*
X528500Y1198039D01*
X528451Y1197995D01*
X528429Y1197953D01*
X528400Y1197916D01*
X528379Y1197854D01*
X528348Y1197795D01*
X528340Y1197741D01*
X528328Y1197704D01*
X528328Y1197701D01*
X528329Y1197664D01*
X528321Y1197610D01*
X528321Y1195070D01*
X528332Y1195005D01*
X528334Y1194939D01*
X528352Y1194896D01*
X528360Y1194849D01*
X528394Y1194792D01*
X528419Y1194732D01*
X528450Y1194697D01*
X528475Y1194656D01*
X528526Y1194615D01*
X528570Y1194566D01*
X528612Y1194544D01*
X528649Y1194515D01*
X528711Y1194494D01*
X528770Y1194463D01*
X528824Y1194455D01*
X528861Y1194443D01*
X528901Y1194444D01*
X528955Y1194436D01*
X532765Y1194436D01*
X532830Y1194447D01*
G37*
G36*
X766510Y1194447D02*
X766510Y1194447D01*
X766576Y1194449D01*
X766619Y1194467D01*
X766666Y1194475D01*
X766723Y1194509D01*
X766783Y1194534D01*
X766818Y1194565D01*
X766859Y1194590D01*
X766901Y1194641D01*
X766949Y1194685D01*
X766971Y1194727D01*
X767000Y1194764D01*
X767021Y1194826D01*
X767052Y1194885D01*
X767060Y1194939D01*
X767072Y1194976D01*
X767071Y1195016D01*
X767079Y1195070D01*
X767079Y1197610D01*
X767068Y1197675D01*
X767066Y1197741D01*
X767048Y1197784D01*
X767040Y1197831D01*
X767006Y1197888D01*
X766981Y1197948D01*
X766950Y1197983D01*
X766925Y1198024D01*
X766874Y1198066D01*
X766830Y1198114D01*
X766788Y1198136D01*
X766751Y1198165D01*
X766689Y1198186D01*
X766630Y1198217D01*
X766576Y1198225D01*
X766539Y1198237D01*
X766499Y1198236D01*
X766445Y1198244D01*
X762635Y1198244D01*
X762570Y1198233D01*
X762504Y1198231D01*
X762461Y1198213D01*
X762414Y1198205D01*
X762357Y1198171D01*
X762297Y1198146D01*
X762262Y1198115D01*
X762221Y1198090D01*
X762180Y1198039D01*
X762131Y1197995D01*
X762109Y1197953D01*
X762080Y1197916D01*
X762059Y1197854D01*
X762028Y1197795D01*
X762020Y1197741D01*
X762008Y1197704D01*
X762008Y1197701D01*
X762009Y1197664D01*
X762001Y1197610D01*
X762001Y1195070D01*
X762012Y1195005D01*
X762014Y1194939D01*
X762032Y1194896D01*
X762040Y1194849D01*
X762074Y1194792D01*
X762099Y1194732D01*
X762130Y1194697D01*
X762155Y1194656D01*
X762206Y1194615D01*
X762250Y1194566D01*
X762292Y1194544D01*
X762329Y1194515D01*
X762391Y1194494D01*
X762450Y1194463D01*
X762504Y1194455D01*
X762541Y1194443D01*
X762581Y1194444D01*
X762635Y1194436D01*
X766445Y1194436D01*
X766510Y1194447D01*
G37*
G36*
X1000190Y1194447D02*
X1000190Y1194447D01*
X1000256Y1194449D01*
X1000299Y1194467D01*
X1000346Y1194475D01*
X1000403Y1194509D01*
X1000463Y1194534D01*
X1000498Y1194565D01*
X1000539Y1194590D01*
X1000581Y1194641D01*
X1000629Y1194685D01*
X1000651Y1194727D01*
X1000680Y1194764D01*
X1000701Y1194826D01*
X1000732Y1194885D01*
X1000740Y1194939D01*
X1000752Y1194976D01*
X1000751Y1195016D01*
X1000759Y1195070D01*
X1000759Y1197610D01*
X1000748Y1197675D01*
X1000746Y1197741D01*
X1000728Y1197784D01*
X1000720Y1197831D01*
X1000686Y1197888D01*
X1000661Y1197948D01*
X1000630Y1197983D01*
X1000605Y1198024D01*
X1000554Y1198066D01*
X1000510Y1198114D01*
X1000468Y1198136D01*
X1000431Y1198165D01*
X1000369Y1198186D01*
X1000310Y1198217D01*
X1000256Y1198225D01*
X1000219Y1198237D01*
X1000179Y1198236D01*
X1000125Y1198244D01*
X996315Y1198244D01*
X996250Y1198233D01*
X996184Y1198231D01*
X996141Y1198213D01*
X996094Y1198205D01*
X996037Y1198171D01*
X995977Y1198146D01*
X995942Y1198115D01*
X995901Y1198090D01*
X995860Y1198039D01*
X995811Y1197995D01*
X995789Y1197953D01*
X995760Y1197916D01*
X995739Y1197854D01*
X995708Y1197795D01*
X995700Y1197741D01*
X995688Y1197704D01*
X995688Y1197701D01*
X995689Y1197664D01*
X995681Y1197610D01*
X995681Y1195070D01*
X995692Y1195005D01*
X995694Y1194939D01*
X995712Y1194896D01*
X995720Y1194849D01*
X995754Y1194792D01*
X995779Y1194732D01*
X995810Y1194697D01*
X995835Y1194656D01*
X995886Y1194615D01*
X995930Y1194566D01*
X995972Y1194544D01*
X996009Y1194515D01*
X996071Y1194494D01*
X996130Y1194463D01*
X996184Y1194455D01*
X996221Y1194443D01*
X996261Y1194444D01*
X996315Y1194436D01*
X1000125Y1194436D01*
X1000190Y1194447D01*
G37*
G36*
X1000190Y884567D02*
X1000190Y884567D01*
X1000256Y884569D01*
X1000299Y884587D01*
X1000346Y884595D01*
X1000403Y884629D01*
X1000463Y884654D01*
X1000498Y884685D01*
X1000539Y884710D01*
X1000581Y884761D01*
X1000629Y884805D01*
X1000651Y884847D01*
X1000680Y884884D01*
X1000701Y884946D01*
X1000732Y885005D01*
X1000740Y885059D01*
X1000752Y885096D01*
X1000751Y885136D01*
X1000759Y885190D01*
X1000759Y887730D01*
X1000748Y887795D01*
X1000746Y887861D01*
X1000728Y887904D01*
X1000720Y887951D01*
X1000686Y888008D01*
X1000661Y888068D01*
X1000630Y888103D01*
X1000605Y888144D01*
X1000554Y888186D01*
X1000510Y888234D01*
X1000468Y888256D01*
X1000431Y888285D01*
X1000369Y888306D01*
X1000310Y888337D01*
X1000256Y888345D01*
X1000219Y888357D01*
X1000179Y888356D01*
X1000125Y888364D01*
X996315Y888364D01*
X996250Y888353D01*
X996184Y888351D01*
X996141Y888333D01*
X996094Y888325D01*
X996037Y888291D01*
X995977Y888266D01*
X995942Y888235D01*
X995901Y888210D01*
X995860Y888159D01*
X995811Y888115D01*
X995789Y888073D01*
X995760Y888036D01*
X995739Y887974D01*
X995708Y887915D01*
X995700Y887861D01*
X995688Y887824D01*
X995688Y887821D01*
X995689Y887784D01*
X995681Y887730D01*
X995681Y885190D01*
X995692Y885125D01*
X995694Y885059D01*
X995712Y885016D01*
X995720Y884969D01*
X995754Y884912D01*
X995779Y884852D01*
X995810Y884817D01*
X995835Y884776D01*
X995886Y884735D01*
X995930Y884686D01*
X995972Y884664D01*
X996009Y884635D01*
X996071Y884614D01*
X996130Y884583D01*
X996184Y884575D01*
X996221Y884563D01*
X996261Y884564D01*
X996315Y884556D01*
X1000125Y884556D01*
X1000190Y884567D01*
G37*
G36*
X65470Y884567D02*
X65470Y884567D01*
X65536Y884569D01*
X65579Y884587D01*
X65626Y884595D01*
X65683Y884629D01*
X65743Y884654D01*
X65778Y884685D01*
X65819Y884710D01*
X65861Y884761D01*
X65909Y884805D01*
X65931Y884847D01*
X65960Y884884D01*
X65981Y884946D01*
X66012Y885005D01*
X66020Y885059D01*
X66032Y885096D01*
X66031Y885136D01*
X66039Y885190D01*
X66039Y887730D01*
X66028Y887795D01*
X66026Y887861D01*
X66008Y887904D01*
X66000Y887951D01*
X65966Y888008D01*
X65941Y888068D01*
X65910Y888103D01*
X65885Y888144D01*
X65834Y888186D01*
X65790Y888234D01*
X65748Y888256D01*
X65711Y888285D01*
X65649Y888306D01*
X65590Y888337D01*
X65536Y888345D01*
X65499Y888357D01*
X65459Y888356D01*
X65405Y888364D01*
X61595Y888364D01*
X61530Y888353D01*
X61464Y888351D01*
X61421Y888333D01*
X61374Y888325D01*
X61317Y888291D01*
X61257Y888266D01*
X61222Y888235D01*
X61181Y888210D01*
X61140Y888159D01*
X61091Y888115D01*
X61069Y888073D01*
X61040Y888036D01*
X61019Y887974D01*
X60988Y887915D01*
X60980Y887861D01*
X60968Y887824D01*
X60968Y887821D01*
X60969Y887784D01*
X60961Y887730D01*
X60961Y885190D01*
X60972Y885125D01*
X60974Y885059D01*
X60992Y885016D01*
X61000Y884969D01*
X61034Y884912D01*
X61059Y884852D01*
X61090Y884817D01*
X61115Y884776D01*
X61166Y884735D01*
X61210Y884686D01*
X61252Y884664D01*
X61289Y884635D01*
X61351Y884614D01*
X61410Y884583D01*
X61464Y884575D01*
X61501Y884563D01*
X61541Y884564D01*
X61595Y884556D01*
X65405Y884556D01*
X65470Y884567D01*
G37*
G36*
X766510Y884567D02*
X766510Y884567D01*
X766576Y884569D01*
X766619Y884587D01*
X766666Y884595D01*
X766723Y884629D01*
X766783Y884654D01*
X766818Y884685D01*
X766859Y884710D01*
X766901Y884761D01*
X766949Y884805D01*
X766971Y884847D01*
X767000Y884884D01*
X767021Y884946D01*
X767052Y885005D01*
X767060Y885059D01*
X767072Y885096D01*
X767071Y885136D01*
X767079Y885190D01*
X767079Y887730D01*
X767068Y887795D01*
X767066Y887861D01*
X767048Y887904D01*
X767040Y887951D01*
X767006Y888008D01*
X766981Y888068D01*
X766950Y888103D01*
X766925Y888144D01*
X766874Y888186D01*
X766830Y888234D01*
X766788Y888256D01*
X766751Y888285D01*
X766689Y888306D01*
X766630Y888337D01*
X766576Y888345D01*
X766539Y888357D01*
X766499Y888356D01*
X766445Y888364D01*
X762635Y888364D01*
X762570Y888353D01*
X762504Y888351D01*
X762461Y888333D01*
X762414Y888325D01*
X762357Y888291D01*
X762297Y888266D01*
X762262Y888235D01*
X762221Y888210D01*
X762180Y888159D01*
X762131Y888115D01*
X762109Y888073D01*
X762080Y888036D01*
X762059Y887974D01*
X762028Y887915D01*
X762020Y887861D01*
X762008Y887824D01*
X762008Y887821D01*
X762009Y887784D01*
X762001Y887730D01*
X762001Y885190D01*
X762012Y885125D01*
X762014Y885059D01*
X762032Y885016D01*
X762040Y884969D01*
X762074Y884912D01*
X762099Y884852D01*
X762130Y884817D01*
X762155Y884776D01*
X762206Y884735D01*
X762250Y884686D01*
X762292Y884664D01*
X762329Y884635D01*
X762391Y884614D01*
X762450Y884583D01*
X762504Y884575D01*
X762541Y884563D01*
X762581Y884564D01*
X762635Y884556D01*
X766445Y884556D01*
X766510Y884567D01*
G37*
G36*
X532830Y884567D02*
X532830Y884567D01*
X532896Y884569D01*
X532939Y884587D01*
X532986Y884595D01*
X533043Y884629D01*
X533103Y884654D01*
X533138Y884685D01*
X533179Y884710D01*
X533221Y884761D01*
X533269Y884805D01*
X533291Y884847D01*
X533320Y884884D01*
X533341Y884946D01*
X533372Y885005D01*
X533380Y885059D01*
X533392Y885096D01*
X533391Y885136D01*
X533399Y885190D01*
X533399Y887730D01*
X533388Y887795D01*
X533386Y887861D01*
X533368Y887904D01*
X533360Y887951D01*
X533326Y888008D01*
X533301Y888068D01*
X533270Y888103D01*
X533245Y888144D01*
X533194Y888186D01*
X533150Y888234D01*
X533108Y888256D01*
X533071Y888285D01*
X533009Y888306D01*
X532950Y888337D01*
X532896Y888345D01*
X532859Y888357D01*
X532819Y888356D01*
X532765Y888364D01*
X528955Y888364D01*
X528890Y888353D01*
X528824Y888351D01*
X528781Y888333D01*
X528734Y888325D01*
X528677Y888291D01*
X528617Y888266D01*
X528582Y888235D01*
X528541Y888210D01*
X528500Y888159D01*
X528451Y888115D01*
X528429Y888073D01*
X528400Y888036D01*
X528379Y887974D01*
X528348Y887915D01*
X528340Y887861D01*
X528328Y887824D01*
X528328Y887821D01*
X528329Y887784D01*
X528321Y887730D01*
X528321Y885190D01*
X528332Y885125D01*
X528334Y885059D01*
X528352Y885016D01*
X528360Y884969D01*
X528394Y884912D01*
X528419Y884852D01*
X528450Y884817D01*
X528475Y884776D01*
X528526Y884735D01*
X528570Y884686D01*
X528612Y884664D01*
X528649Y884635D01*
X528711Y884614D01*
X528770Y884583D01*
X528824Y884575D01*
X528861Y884563D01*
X528901Y884564D01*
X528955Y884556D01*
X532765Y884556D01*
X532830Y884567D01*
G37*
G36*
X299150Y884567D02*
X299150Y884567D01*
X299216Y884569D01*
X299259Y884587D01*
X299306Y884595D01*
X299363Y884629D01*
X299423Y884654D01*
X299458Y884685D01*
X299499Y884710D01*
X299541Y884761D01*
X299589Y884805D01*
X299611Y884847D01*
X299640Y884884D01*
X299661Y884946D01*
X299692Y885005D01*
X299700Y885059D01*
X299712Y885096D01*
X299711Y885136D01*
X299719Y885190D01*
X299719Y887730D01*
X299708Y887795D01*
X299706Y887861D01*
X299688Y887904D01*
X299680Y887951D01*
X299646Y888008D01*
X299621Y888068D01*
X299590Y888103D01*
X299565Y888144D01*
X299514Y888186D01*
X299470Y888234D01*
X299428Y888256D01*
X299391Y888285D01*
X299329Y888306D01*
X299270Y888337D01*
X299216Y888345D01*
X299179Y888357D01*
X299139Y888356D01*
X299085Y888364D01*
X295275Y888364D01*
X295210Y888353D01*
X295144Y888351D01*
X295101Y888333D01*
X295054Y888325D01*
X294997Y888291D01*
X294937Y888266D01*
X294902Y888235D01*
X294861Y888210D01*
X294820Y888159D01*
X294771Y888115D01*
X294749Y888073D01*
X294720Y888036D01*
X294699Y887974D01*
X294668Y887915D01*
X294660Y887861D01*
X294648Y887824D01*
X294648Y887821D01*
X294649Y887784D01*
X294641Y887730D01*
X294641Y885190D01*
X294652Y885125D01*
X294654Y885059D01*
X294672Y885016D01*
X294680Y884969D01*
X294714Y884912D01*
X294739Y884852D01*
X294770Y884817D01*
X294795Y884776D01*
X294846Y884735D01*
X294890Y884686D01*
X294932Y884664D01*
X294969Y884635D01*
X295031Y884614D01*
X295090Y884583D01*
X295144Y884575D01*
X295181Y884563D01*
X295221Y884564D01*
X295275Y884556D01*
X299085Y884556D01*
X299150Y884567D01*
G37*
G36*
X65470Y574687D02*
X65470Y574687D01*
X65536Y574689D01*
X65579Y574707D01*
X65626Y574715D01*
X65683Y574749D01*
X65743Y574774D01*
X65778Y574805D01*
X65819Y574830D01*
X65861Y574881D01*
X65909Y574925D01*
X65931Y574967D01*
X65960Y575004D01*
X65981Y575066D01*
X66012Y575125D01*
X66020Y575179D01*
X66032Y575216D01*
X66031Y575256D01*
X66039Y575310D01*
X66039Y577850D01*
X66028Y577915D01*
X66026Y577981D01*
X66008Y578024D01*
X66000Y578071D01*
X65966Y578128D01*
X65941Y578188D01*
X65910Y578223D01*
X65885Y578264D01*
X65834Y578306D01*
X65790Y578354D01*
X65748Y578376D01*
X65711Y578405D01*
X65649Y578426D01*
X65590Y578457D01*
X65536Y578465D01*
X65499Y578477D01*
X65459Y578476D01*
X65405Y578484D01*
X61595Y578484D01*
X61530Y578473D01*
X61464Y578471D01*
X61421Y578453D01*
X61374Y578445D01*
X61317Y578411D01*
X61257Y578386D01*
X61222Y578355D01*
X61181Y578330D01*
X61140Y578279D01*
X61091Y578235D01*
X61069Y578193D01*
X61040Y578156D01*
X61019Y578094D01*
X60988Y578035D01*
X60980Y577981D01*
X60968Y577944D01*
X60968Y577941D01*
X60969Y577904D01*
X60961Y577850D01*
X60961Y575310D01*
X60972Y575245D01*
X60974Y575179D01*
X60992Y575136D01*
X61000Y575089D01*
X61034Y575032D01*
X61059Y574972D01*
X61090Y574937D01*
X61115Y574896D01*
X61166Y574855D01*
X61210Y574806D01*
X61252Y574784D01*
X61289Y574755D01*
X61351Y574734D01*
X61410Y574703D01*
X61464Y574695D01*
X61501Y574683D01*
X61541Y574684D01*
X61595Y574676D01*
X65405Y574676D01*
X65470Y574687D01*
G37*
G36*
X299150Y574687D02*
X299150Y574687D01*
X299216Y574689D01*
X299259Y574707D01*
X299306Y574715D01*
X299363Y574749D01*
X299423Y574774D01*
X299458Y574805D01*
X299499Y574830D01*
X299541Y574881D01*
X299589Y574925D01*
X299611Y574967D01*
X299640Y575004D01*
X299661Y575066D01*
X299692Y575125D01*
X299700Y575179D01*
X299712Y575216D01*
X299711Y575256D01*
X299719Y575310D01*
X299719Y577850D01*
X299708Y577915D01*
X299706Y577981D01*
X299688Y578024D01*
X299680Y578071D01*
X299646Y578128D01*
X299621Y578188D01*
X299590Y578223D01*
X299565Y578264D01*
X299514Y578306D01*
X299470Y578354D01*
X299428Y578376D01*
X299391Y578405D01*
X299329Y578426D01*
X299270Y578457D01*
X299216Y578465D01*
X299179Y578477D01*
X299139Y578476D01*
X299085Y578484D01*
X295275Y578484D01*
X295210Y578473D01*
X295144Y578471D01*
X295101Y578453D01*
X295054Y578445D01*
X294997Y578411D01*
X294937Y578386D01*
X294902Y578355D01*
X294861Y578330D01*
X294820Y578279D01*
X294771Y578235D01*
X294749Y578193D01*
X294720Y578156D01*
X294699Y578094D01*
X294668Y578035D01*
X294660Y577981D01*
X294648Y577944D01*
X294648Y577941D01*
X294649Y577904D01*
X294641Y577850D01*
X294641Y575310D01*
X294652Y575245D01*
X294654Y575179D01*
X294672Y575136D01*
X294680Y575089D01*
X294714Y575032D01*
X294739Y574972D01*
X294770Y574937D01*
X294795Y574896D01*
X294846Y574855D01*
X294890Y574806D01*
X294932Y574784D01*
X294969Y574755D01*
X295031Y574734D01*
X295090Y574703D01*
X295144Y574695D01*
X295181Y574683D01*
X295221Y574684D01*
X295275Y574676D01*
X299085Y574676D01*
X299150Y574687D01*
G37*
G36*
X1000190Y574687D02*
X1000190Y574687D01*
X1000256Y574689D01*
X1000299Y574707D01*
X1000346Y574715D01*
X1000403Y574749D01*
X1000463Y574774D01*
X1000498Y574805D01*
X1000539Y574830D01*
X1000581Y574881D01*
X1000629Y574925D01*
X1000651Y574967D01*
X1000680Y575004D01*
X1000701Y575066D01*
X1000732Y575125D01*
X1000740Y575179D01*
X1000752Y575216D01*
X1000751Y575256D01*
X1000759Y575310D01*
X1000759Y577850D01*
X1000748Y577915D01*
X1000746Y577981D01*
X1000728Y578024D01*
X1000720Y578071D01*
X1000686Y578128D01*
X1000661Y578188D01*
X1000630Y578223D01*
X1000605Y578264D01*
X1000554Y578306D01*
X1000510Y578354D01*
X1000468Y578376D01*
X1000431Y578405D01*
X1000369Y578426D01*
X1000310Y578457D01*
X1000256Y578465D01*
X1000219Y578477D01*
X1000179Y578476D01*
X1000125Y578484D01*
X996315Y578484D01*
X996250Y578473D01*
X996184Y578471D01*
X996141Y578453D01*
X996094Y578445D01*
X996037Y578411D01*
X995977Y578386D01*
X995942Y578355D01*
X995901Y578330D01*
X995860Y578279D01*
X995811Y578235D01*
X995789Y578193D01*
X995760Y578156D01*
X995739Y578094D01*
X995708Y578035D01*
X995700Y577981D01*
X995688Y577944D01*
X995688Y577941D01*
X995689Y577904D01*
X995681Y577850D01*
X995681Y575310D01*
X995692Y575245D01*
X995694Y575179D01*
X995712Y575136D01*
X995720Y575089D01*
X995754Y575032D01*
X995779Y574972D01*
X995810Y574937D01*
X995835Y574896D01*
X995886Y574855D01*
X995930Y574806D01*
X995972Y574784D01*
X996009Y574755D01*
X996071Y574734D01*
X996130Y574703D01*
X996184Y574695D01*
X996221Y574683D01*
X996261Y574684D01*
X996315Y574676D01*
X1000125Y574676D01*
X1000190Y574687D01*
G37*
G36*
X532830Y574687D02*
X532830Y574687D01*
X532896Y574689D01*
X532939Y574707D01*
X532986Y574715D01*
X533043Y574749D01*
X533103Y574774D01*
X533138Y574805D01*
X533179Y574830D01*
X533221Y574881D01*
X533269Y574925D01*
X533291Y574967D01*
X533320Y575004D01*
X533341Y575066D01*
X533372Y575125D01*
X533380Y575179D01*
X533392Y575216D01*
X533391Y575256D01*
X533399Y575310D01*
X533399Y577850D01*
X533388Y577915D01*
X533386Y577981D01*
X533368Y578024D01*
X533360Y578071D01*
X533326Y578128D01*
X533301Y578188D01*
X533270Y578223D01*
X533245Y578264D01*
X533194Y578306D01*
X533150Y578354D01*
X533108Y578376D01*
X533071Y578405D01*
X533009Y578426D01*
X532950Y578457D01*
X532896Y578465D01*
X532859Y578477D01*
X532819Y578476D01*
X532765Y578484D01*
X528955Y578484D01*
X528890Y578473D01*
X528824Y578471D01*
X528781Y578453D01*
X528734Y578445D01*
X528677Y578411D01*
X528617Y578386D01*
X528582Y578355D01*
X528541Y578330D01*
X528500Y578279D01*
X528451Y578235D01*
X528429Y578193D01*
X528400Y578156D01*
X528379Y578094D01*
X528348Y578035D01*
X528340Y577981D01*
X528328Y577944D01*
X528328Y577941D01*
X528329Y577904D01*
X528321Y577850D01*
X528321Y575310D01*
X528332Y575245D01*
X528334Y575179D01*
X528352Y575136D01*
X528360Y575089D01*
X528394Y575032D01*
X528419Y574972D01*
X528450Y574937D01*
X528475Y574896D01*
X528526Y574855D01*
X528570Y574806D01*
X528612Y574784D01*
X528649Y574755D01*
X528711Y574734D01*
X528770Y574703D01*
X528824Y574695D01*
X528861Y574683D01*
X528901Y574684D01*
X528955Y574676D01*
X532765Y574676D01*
X532830Y574687D01*
G37*
G36*
X766510Y574687D02*
X766510Y574687D01*
X766576Y574689D01*
X766619Y574707D01*
X766666Y574715D01*
X766723Y574749D01*
X766783Y574774D01*
X766818Y574805D01*
X766859Y574830D01*
X766901Y574881D01*
X766949Y574925D01*
X766971Y574967D01*
X767000Y575004D01*
X767021Y575066D01*
X767052Y575125D01*
X767060Y575179D01*
X767072Y575216D01*
X767071Y575256D01*
X767079Y575310D01*
X767079Y577850D01*
X767068Y577915D01*
X767066Y577981D01*
X767048Y578024D01*
X767040Y578071D01*
X767006Y578128D01*
X766981Y578188D01*
X766950Y578223D01*
X766925Y578264D01*
X766874Y578306D01*
X766830Y578354D01*
X766788Y578376D01*
X766751Y578405D01*
X766689Y578426D01*
X766630Y578457D01*
X766576Y578465D01*
X766539Y578477D01*
X766499Y578476D01*
X766445Y578484D01*
X762635Y578484D01*
X762570Y578473D01*
X762504Y578471D01*
X762461Y578453D01*
X762414Y578445D01*
X762357Y578411D01*
X762297Y578386D01*
X762262Y578355D01*
X762221Y578330D01*
X762180Y578279D01*
X762131Y578235D01*
X762109Y578193D01*
X762080Y578156D01*
X762059Y578094D01*
X762028Y578035D01*
X762020Y577981D01*
X762008Y577944D01*
X762008Y577941D01*
X762009Y577904D01*
X762001Y577850D01*
X762001Y575310D01*
X762012Y575245D01*
X762014Y575179D01*
X762032Y575136D01*
X762040Y575089D01*
X762074Y575032D01*
X762099Y574972D01*
X762130Y574937D01*
X762155Y574896D01*
X762206Y574855D01*
X762250Y574806D01*
X762292Y574784D01*
X762329Y574755D01*
X762391Y574734D01*
X762450Y574703D01*
X762504Y574695D01*
X762541Y574683D01*
X762581Y574684D01*
X762635Y574676D01*
X766445Y574676D01*
X766510Y574687D01*
G37*
G36*
X1000190Y264807D02*
X1000190Y264807D01*
X1000256Y264809D01*
X1000299Y264827D01*
X1000346Y264835D01*
X1000403Y264869D01*
X1000463Y264894D01*
X1000498Y264925D01*
X1000539Y264950D01*
X1000581Y265001D01*
X1000629Y265045D01*
X1000651Y265087D01*
X1000680Y265124D01*
X1000701Y265186D01*
X1000732Y265245D01*
X1000740Y265299D01*
X1000752Y265336D01*
X1000751Y265376D01*
X1000759Y265430D01*
X1000759Y267970D01*
X1000748Y268035D01*
X1000746Y268101D01*
X1000728Y268144D01*
X1000720Y268191D01*
X1000686Y268248D01*
X1000661Y268308D01*
X1000630Y268343D01*
X1000605Y268384D01*
X1000554Y268426D01*
X1000510Y268474D01*
X1000468Y268496D01*
X1000431Y268525D01*
X1000369Y268546D01*
X1000310Y268577D01*
X1000256Y268585D01*
X1000219Y268597D01*
X1000179Y268596D01*
X1000125Y268604D01*
X996315Y268604D01*
X996250Y268593D01*
X996184Y268591D01*
X996141Y268573D01*
X996094Y268565D01*
X996037Y268531D01*
X995977Y268506D01*
X995942Y268475D01*
X995901Y268450D01*
X995860Y268399D01*
X995811Y268355D01*
X995789Y268313D01*
X995760Y268276D01*
X995739Y268214D01*
X995708Y268155D01*
X995700Y268101D01*
X995688Y268064D01*
X995688Y268061D01*
X995689Y268024D01*
X995681Y267970D01*
X995681Y265430D01*
X995692Y265365D01*
X995694Y265299D01*
X995712Y265256D01*
X995720Y265209D01*
X995754Y265152D01*
X995779Y265092D01*
X995810Y265057D01*
X995835Y265016D01*
X995886Y264975D01*
X995930Y264926D01*
X995972Y264904D01*
X996009Y264875D01*
X996071Y264854D01*
X996130Y264823D01*
X996184Y264815D01*
X996221Y264803D01*
X996261Y264804D01*
X996315Y264796D01*
X1000125Y264796D01*
X1000190Y264807D01*
G37*
G36*
X766510Y264807D02*
X766510Y264807D01*
X766576Y264809D01*
X766619Y264827D01*
X766666Y264835D01*
X766723Y264869D01*
X766783Y264894D01*
X766818Y264925D01*
X766859Y264950D01*
X766901Y265001D01*
X766949Y265045D01*
X766971Y265087D01*
X767000Y265124D01*
X767021Y265186D01*
X767052Y265245D01*
X767060Y265299D01*
X767072Y265336D01*
X767071Y265376D01*
X767079Y265430D01*
X767079Y267970D01*
X767068Y268035D01*
X767066Y268101D01*
X767048Y268144D01*
X767040Y268191D01*
X767006Y268248D01*
X766981Y268308D01*
X766950Y268343D01*
X766925Y268384D01*
X766874Y268426D01*
X766830Y268474D01*
X766788Y268496D01*
X766751Y268525D01*
X766689Y268546D01*
X766630Y268577D01*
X766576Y268585D01*
X766539Y268597D01*
X766499Y268596D01*
X766445Y268604D01*
X762635Y268604D01*
X762570Y268593D01*
X762504Y268591D01*
X762461Y268573D01*
X762414Y268565D01*
X762357Y268531D01*
X762297Y268506D01*
X762262Y268475D01*
X762221Y268450D01*
X762180Y268399D01*
X762131Y268355D01*
X762109Y268313D01*
X762080Y268276D01*
X762059Y268214D01*
X762028Y268155D01*
X762020Y268101D01*
X762008Y268064D01*
X762008Y268061D01*
X762009Y268024D01*
X762001Y267970D01*
X762001Y265430D01*
X762012Y265365D01*
X762014Y265299D01*
X762032Y265256D01*
X762040Y265209D01*
X762074Y265152D01*
X762099Y265092D01*
X762130Y265057D01*
X762155Y265016D01*
X762206Y264975D01*
X762250Y264926D01*
X762292Y264904D01*
X762329Y264875D01*
X762391Y264854D01*
X762450Y264823D01*
X762504Y264815D01*
X762541Y264803D01*
X762581Y264804D01*
X762635Y264796D01*
X766445Y264796D01*
X766510Y264807D01*
G37*
G36*
X532830Y264807D02*
X532830Y264807D01*
X532896Y264809D01*
X532939Y264827D01*
X532986Y264835D01*
X533043Y264869D01*
X533103Y264894D01*
X533138Y264925D01*
X533179Y264950D01*
X533221Y265001D01*
X533269Y265045D01*
X533291Y265087D01*
X533320Y265124D01*
X533341Y265186D01*
X533372Y265245D01*
X533380Y265299D01*
X533392Y265336D01*
X533391Y265376D01*
X533399Y265430D01*
X533399Y267970D01*
X533388Y268035D01*
X533386Y268101D01*
X533368Y268144D01*
X533360Y268191D01*
X533326Y268248D01*
X533301Y268308D01*
X533270Y268343D01*
X533245Y268384D01*
X533194Y268426D01*
X533150Y268474D01*
X533108Y268496D01*
X533071Y268525D01*
X533009Y268546D01*
X532950Y268577D01*
X532896Y268585D01*
X532859Y268597D01*
X532819Y268596D01*
X532765Y268604D01*
X528955Y268604D01*
X528890Y268593D01*
X528824Y268591D01*
X528781Y268573D01*
X528734Y268565D01*
X528677Y268531D01*
X528617Y268506D01*
X528582Y268475D01*
X528541Y268450D01*
X528500Y268399D01*
X528451Y268355D01*
X528429Y268313D01*
X528400Y268276D01*
X528379Y268214D01*
X528348Y268155D01*
X528340Y268101D01*
X528328Y268064D01*
X528328Y268061D01*
X528329Y268024D01*
X528321Y267970D01*
X528321Y265430D01*
X528332Y265365D01*
X528334Y265299D01*
X528352Y265256D01*
X528360Y265209D01*
X528394Y265152D01*
X528419Y265092D01*
X528450Y265057D01*
X528475Y265016D01*
X528526Y264975D01*
X528570Y264926D01*
X528612Y264904D01*
X528649Y264875D01*
X528711Y264854D01*
X528770Y264823D01*
X528824Y264815D01*
X528861Y264803D01*
X528901Y264804D01*
X528955Y264796D01*
X532765Y264796D01*
X532830Y264807D01*
G37*
G36*
X299150Y264807D02*
X299150Y264807D01*
X299216Y264809D01*
X299259Y264827D01*
X299306Y264835D01*
X299363Y264869D01*
X299423Y264894D01*
X299458Y264925D01*
X299499Y264950D01*
X299541Y265001D01*
X299589Y265045D01*
X299611Y265087D01*
X299640Y265124D01*
X299661Y265186D01*
X299692Y265245D01*
X299700Y265299D01*
X299712Y265336D01*
X299711Y265376D01*
X299719Y265430D01*
X299719Y267970D01*
X299708Y268035D01*
X299706Y268101D01*
X299688Y268144D01*
X299680Y268191D01*
X299646Y268248D01*
X299621Y268308D01*
X299590Y268343D01*
X299565Y268384D01*
X299514Y268426D01*
X299470Y268474D01*
X299428Y268496D01*
X299391Y268525D01*
X299329Y268546D01*
X299270Y268577D01*
X299216Y268585D01*
X299179Y268597D01*
X299139Y268596D01*
X299085Y268604D01*
X295275Y268604D01*
X295210Y268593D01*
X295144Y268591D01*
X295101Y268573D01*
X295054Y268565D01*
X294997Y268531D01*
X294937Y268506D01*
X294902Y268475D01*
X294861Y268450D01*
X294820Y268399D01*
X294771Y268355D01*
X294749Y268313D01*
X294720Y268276D01*
X294699Y268214D01*
X294668Y268155D01*
X294660Y268101D01*
X294648Y268064D01*
X294648Y268061D01*
X294649Y268024D01*
X294641Y267970D01*
X294641Y265430D01*
X294652Y265365D01*
X294654Y265299D01*
X294672Y265256D01*
X294680Y265209D01*
X294714Y265152D01*
X294739Y265092D01*
X294770Y265057D01*
X294795Y265016D01*
X294846Y264975D01*
X294890Y264926D01*
X294932Y264904D01*
X294969Y264875D01*
X295031Y264854D01*
X295090Y264823D01*
X295144Y264815D01*
X295181Y264803D01*
X295221Y264804D01*
X295275Y264796D01*
X299085Y264796D01*
X299150Y264807D01*
G37*
G36*
X65470Y264807D02*
X65470Y264807D01*
X65536Y264809D01*
X65579Y264827D01*
X65626Y264835D01*
X65683Y264869D01*
X65743Y264894D01*
X65778Y264925D01*
X65819Y264950D01*
X65861Y265001D01*
X65909Y265045D01*
X65931Y265087D01*
X65960Y265124D01*
X65981Y265186D01*
X66012Y265245D01*
X66020Y265299D01*
X66032Y265336D01*
X66031Y265376D01*
X66039Y265430D01*
X66039Y267970D01*
X66028Y268035D01*
X66026Y268101D01*
X66008Y268144D01*
X66000Y268191D01*
X65966Y268248D01*
X65941Y268308D01*
X65910Y268343D01*
X65885Y268384D01*
X65834Y268426D01*
X65790Y268474D01*
X65748Y268496D01*
X65711Y268525D01*
X65649Y268546D01*
X65590Y268577D01*
X65536Y268585D01*
X65499Y268597D01*
X65459Y268596D01*
X65405Y268604D01*
X61595Y268604D01*
X61530Y268593D01*
X61464Y268591D01*
X61421Y268573D01*
X61374Y268565D01*
X61317Y268531D01*
X61257Y268506D01*
X61222Y268475D01*
X61181Y268450D01*
X61140Y268399D01*
X61091Y268355D01*
X61069Y268313D01*
X61040Y268276D01*
X61019Y268214D01*
X60988Y268155D01*
X60980Y268101D01*
X60968Y268064D01*
X60968Y268061D01*
X60969Y268024D01*
X60961Y267970D01*
X60961Y265430D01*
X60972Y265365D01*
X60974Y265299D01*
X60992Y265256D01*
X61000Y265209D01*
X61034Y265152D01*
X61059Y265092D01*
X61090Y265057D01*
X61115Y265016D01*
X61166Y264975D01*
X61210Y264926D01*
X61252Y264904D01*
X61289Y264875D01*
X61351Y264854D01*
X61410Y264823D01*
X61464Y264815D01*
X61501Y264803D01*
X61541Y264804D01*
X61595Y264796D01*
X65405Y264796D01*
X65470Y264807D01*
G37*
D10*
X139700Y247650D03*
X373380Y247650D03*
X607060Y247650D03*
X840740Y247650D03*
X1074420Y247650D03*
X139700Y557530D03*
X373380Y557530D03*
X607060Y557530D03*
X840740Y557530D03*
X1074420Y557530D03*
X139700Y867410D03*
X373380Y867410D03*
X607060Y867410D03*
X840740Y867410D03*
X1074420Y867410D03*
X139700Y1177290D03*
X373380Y1177290D03*
X607060Y1177290D03*
X840740Y1177290D03*
X1074420Y1177290D03*
X139700Y1487170D03*
X373380Y1487170D03*
X607060Y1487170D03*
X840740Y1487170D03*
X1074420Y1487170D03*
X139700Y1797050D03*
X373380Y1797050D03*
X607060Y1797050D03*
X840740Y1797050D03*
X1074420Y1797050D03*
D11*
X114300Y247650D03*
D12*
X71511Y272552D02*
X65903Y272552D01*
X71511Y272552D02*
X71511Y260848D01*
X65903Y260848D01*
X65903Y272552D01*
X65903Y263242D02*
X71511Y263242D01*
X71511Y265636D02*
X65903Y265636D01*
X65903Y268030D02*
X71511Y268030D01*
X71511Y270424D02*
X65903Y270424D01*
X61097Y272552D02*
X55489Y272552D01*
X61097Y272552D02*
X61097Y260848D01*
X55489Y260848D01*
X55489Y272552D01*
X55489Y263242D02*
X61097Y263242D01*
X61097Y265636D02*
X55489Y265636D01*
X55489Y268030D02*
X61097Y268030D01*
X61097Y270424D02*
X55489Y270424D01*
X73777Y297952D02*
X79131Y297952D01*
X79131Y286248D01*
X73777Y286248D01*
X73777Y297952D01*
X73777Y288642D02*
X79131Y288642D01*
X79131Y291036D02*
X73777Y291036D01*
X73777Y293430D02*
X79131Y293430D01*
X79131Y295824D02*
X73777Y295824D01*
X71003Y297952D02*
X65649Y297952D01*
X71003Y297952D02*
X71003Y286248D01*
X65649Y286248D01*
X65649Y297952D01*
X65649Y288642D02*
X71003Y288642D01*
X71003Y291036D02*
X65649Y291036D01*
X65649Y293430D02*
X71003Y293430D01*
X71003Y295824D02*
X65649Y295824D01*
X145659Y184648D02*
X151013Y184648D01*
X145659Y184648D02*
X145659Y196352D01*
X151013Y196352D01*
X151013Y184648D01*
X151013Y187042D02*
X145659Y187042D01*
X145659Y189436D02*
X151013Y189436D01*
X151013Y191830D02*
X145659Y191830D01*
X145659Y194224D02*
X151013Y194224D01*
X153787Y184648D02*
X159141Y184648D01*
X153787Y184648D02*
X153787Y196352D01*
X159141Y196352D01*
X159141Y184648D01*
X159141Y187042D02*
X153787Y187042D01*
X153787Y189436D02*
X159141Y189436D01*
X159141Y191830D02*
X153787Y191830D01*
X153787Y194224D02*
X159141Y194224D01*
X151013Y159248D02*
X145659Y159248D01*
X145659Y170952D01*
X151013Y170952D01*
X151013Y159248D01*
X151013Y161642D02*
X145659Y161642D01*
X145659Y164036D02*
X151013Y164036D01*
X151013Y166430D02*
X145659Y166430D01*
X145659Y168824D02*
X151013Y168824D01*
X153787Y159248D02*
X159141Y159248D01*
X153787Y159248D02*
X153787Y170952D01*
X159141Y170952D01*
X159141Y159248D01*
X159141Y161642D02*
X153787Y161642D01*
X153787Y164036D02*
X159141Y164036D01*
X159141Y166430D02*
X153787Y166430D01*
X153787Y168824D02*
X159141Y168824D01*
X151013Y108448D02*
X145659Y108448D01*
X145659Y120152D01*
X151013Y120152D01*
X151013Y108448D01*
X151013Y110842D02*
X145659Y110842D01*
X145659Y113236D02*
X151013Y113236D01*
X151013Y115630D02*
X145659Y115630D01*
X145659Y118024D02*
X151013Y118024D01*
X153787Y108448D02*
X159141Y108448D01*
X153787Y108448D02*
X153787Y120152D01*
X159141Y120152D01*
X159141Y108448D01*
X159141Y110842D02*
X153787Y110842D01*
X153787Y113236D02*
X159141Y113236D01*
X159141Y115630D02*
X153787Y115630D01*
X153787Y118024D02*
X159141Y118024D01*
X151013Y133848D02*
X145659Y133848D01*
X145659Y145552D01*
X151013Y145552D01*
X151013Y133848D01*
X151013Y136242D02*
X145659Y136242D01*
X145659Y138636D02*
X151013Y138636D01*
X151013Y141030D02*
X145659Y141030D01*
X145659Y143424D02*
X151013Y143424D01*
X153787Y133848D02*
X159141Y133848D01*
X153787Y133848D02*
X153787Y145552D01*
X159141Y145552D01*
X159141Y133848D01*
X159141Y136242D02*
X153787Y136242D01*
X153787Y138636D02*
X159141Y138636D01*
X159141Y141030D02*
X153787Y141030D01*
X153787Y143424D02*
X159141Y143424D01*
X151013Y83048D02*
X145659Y83048D01*
X145659Y94752D01*
X151013Y94752D01*
X151013Y83048D01*
X151013Y85442D02*
X145659Y85442D01*
X145659Y87836D02*
X151013Y87836D01*
X151013Y90230D02*
X145659Y90230D01*
X145659Y92624D02*
X151013Y92624D01*
X153787Y83048D02*
X159141Y83048D01*
X153787Y83048D02*
X153787Y94752D01*
X159141Y94752D01*
X159141Y83048D01*
X159141Y85442D02*
X153787Y85442D01*
X153787Y87836D02*
X159141Y87836D01*
X159141Y90230D02*
X153787Y90230D01*
X153787Y92624D02*
X159141Y92624D01*
D13*
X12700Y12700D03*
X177800Y279400D03*
D11*
X215900Y12700D03*
X215900Y38100D03*
X215900Y63500D03*
X215900Y88900D03*
X215900Y114300D03*
X215900Y139700D03*
X215900Y165100D03*
X215900Y190500D03*
X215900Y215900D03*
X215900Y241300D03*
X215900Y266700D03*
X215900Y292100D03*
X12700Y88900D03*
X12700Y114300D03*
X12700Y139700D03*
X12700Y165100D03*
X12700Y190500D03*
X12700Y215900D03*
X12700Y241300D03*
X12700Y266700D03*
X12700Y292100D03*
D12*
X145659Y210048D02*
X151013Y210048D01*
X145659Y210048D02*
X145659Y221752D01*
X151013Y221752D01*
X151013Y210048D01*
X151013Y212442D02*
X145659Y212442D01*
X145659Y214836D02*
X151013Y214836D01*
X151013Y217230D02*
X145659Y217230D01*
X145659Y219624D02*
X151013Y219624D01*
X153787Y210048D02*
X159141Y210048D01*
X153787Y210048D02*
X153787Y221752D01*
X159141Y221752D01*
X159141Y210048D01*
X159141Y212442D02*
X153787Y212442D01*
X153787Y214836D02*
X159141Y214836D01*
X159141Y217230D02*
X153787Y217230D01*
X153787Y219624D02*
X159141Y219624D01*
D11*
X347980Y247650D03*
D12*
X305191Y272552D02*
X299583Y272552D01*
X305191Y272552D02*
X305191Y260848D01*
X299583Y260848D01*
X299583Y272552D01*
X299583Y263242D02*
X305191Y263242D01*
X305191Y265636D02*
X299583Y265636D01*
X299583Y268030D02*
X305191Y268030D01*
X305191Y270424D02*
X299583Y270424D01*
X294777Y272552D02*
X289169Y272552D01*
X294777Y272552D02*
X294777Y260848D01*
X289169Y260848D01*
X289169Y272552D01*
X289169Y263242D02*
X294777Y263242D01*
X294777Y265636D02*
X289169Y265636D01*
X289169Y268030D02*
X294777Y268030D01*
X294777Y270424D02*
X289169Y270424D01*
X307457Y297952D02*
X312811Y297952D01*
X312811Y286248D01*
X307457Y286248D01*
X307457Y297952D01*
X307457Y288642D02*
X312811Y288642D01*
X312811Y291036D02*
X307457Y291036D01*
X307457Y293430D02*
X312811Y293430D01*
X312811Y295824D02*
X307457Y295824D01*
X304683Y297952D02*
X299329Y297952D01*
X304683Y297952D02*
X304683Y286248D01*
X299329Y286248D01*
X299329Y297952D01*
X299329Y288642D02*
X304683Y288642D01*
X304683Y291036D02*
X299329Y291036D01*
X299329Y293430D02*
X304683Y293430D01*
X304683Y295824D02*
X299329Y295824D01*
X379339Y184648D02*
X384693Y184648D01*
X379339Y184648D02*
X379339Y196352D01*
X384693Y196352D01*
X384693Y184648D01*
X384693Y187042D02*
X379339Y187042D01*
X379339Y189436D02*
X384693Y189436D01*
X384693Y191830D02*
X379339Y191830D01*
X379339Y194224D02*
X384693Y194224D01*
X387467Y184648D02*
X392821Y184648D01*
X387467Y184648D02*
X387467Y196352D01*
X392821Y196352D01*
X392821Y184648D01*
X392821Y187042D02*
X387467Y187042D01*
X387467Y189436D02*
X392821Y189436D01*
X392821Y191830D02*
X387467Y191830D01*
X387467Y194224D02*
X392821Y194224D01*
X384693Y159248D02*
X379339Y159248D01*
X379339Y170952D01*
X384693Y170952D01*
X384693Y159248D01*
X384693Y161642D02*
X379339Y161642D01*
X379339Y164036D02*
X384693Y164036D01*
X384693Y166430D02*
X379339Y166430D01*
X379339Y168824D02*
X384693Y168824D01*
X387467Y159248D02*
X392821Y159248D01*
X387467Y159248D02*
X387467Y170952D01*
X392821Y170952D01*
X392821Y159248D01*
X392821Y161642D02*
X387467Y161642D01*
X387467Y164036D02*
X392821Y164036D01*
X392821Y166430D02*
X387467Y166430D01*
X387467Y168824D02*
X392821Y168824D01*
X384693Y108448D02*
X379339Y108448D01*
X379339Y120152D01*
X384693Y120152D01*
X384693Y108448D01*
X384693Y110842D02*
X379339Y110842D01*
X379339Y113236D02*
X384693Y113236D01*
X384693Y115630D02*
X379339Y115630D01*
X379339Y118024D02*
X384693Y118024D01*
X387467Y108448D02*
X392821Y108448D01*
X387467Y108448D02*
X387467Y120152D01*
X392821Y120152D01*
X392821Y108448D01*
X392821Y110842D02*
X387467Y110842D01*
X387467Y113236D02*
X392821Y113236D01*
X392821Y115630D02*
X387467Y115630D01*
X387467Y118024D02*
X392821Y118024D01*
X384693Y133848D02*
X379339Y133848D01*
X379339Y145552D01*
X384693Y145552D01*
X384693Y133848D01*
X384693Y136242D02*
X379339Y136242D01*
X379339Y138636D02*
X384693Y138636D01*
X384693Y141030D02*
X379339Y141030D01*
X379339Y143424D02*
X384693Y143424D01*
X387467Y133848D02*
X392821Y133848D01*
X387467Y133848D02*
X387467Y145552D01*
X392821Y145552D01*
X392821Y133848D01*
X392821Y136242D02*
X387467Y136242D01*
X387467Y138636D02*
X392821Y138636D01*
X392821Y141030D02*
X387467Y141030D01*
X387467Y143424D02*
X392821Y143424D01*
X384693Y83048D02*
X379339Y83048D01*
X379339Y94752D01*
X384693Y94752D01*
X384693Y83048D01*
X384693Y85442D02*
X379339Y85442D01*
X379339Y87836D02*
X384693Y87836D01*
X384693Y90230D02*
X379339Y90230D01*
X379339Y92624D02*
X384693Y92624D01*
X387467Y83048D02*
X392821Y83048D01*
X387467Y83048D02*
X387467Y94752D01*
X392821Y94752D01*
X392821Y83048D01*
X392821Y85442D02*
X387467Y85442D01*
X387467Y87836D02*
X392821Y87836D01*
X392821Y90230D02*
X387467Y90230D01*
X387467Y92624D02*
X392821Y92624D01*
D13*
X246380Y12700D03*
X411480Y279400D03*
D11*
X449580Y12700D03*
X449580Y38100D03*
X449580Y63500D03*
X449580Y88900D03*
X449580Y114300D03*
X449580Y139700D03*
X449580Y165100D03*
X449580Y190500D03*
X449580Y215900D03*
X449580Y241300D03*
X449580Y266700D03*
X449580Y292100D03*
X246380Y88900D03*
X246380Y114300D03*
X246380Y139700D03*
X246380Y165100D03*
X246380Y190500D03*
X246380Y215900D03*
X246380Y241300D03*
X246380Y266700D03*
X246380Y292100D03*
D12*
X379339Y210048D02*
X384693Y210048D01*
X379339Y210048D02*
X379339Y221752D01*
X384693Y221752D01*
X384693Y210048D01*
X384693Y212442D02*
X379339Y212442D01*
X379339Y214836D02*
X384693Y214836D01*
X384693Y217230D02*
X379339Y217230D01*
X379339Y219624D02*
X384693Y219624D01*
X387467Y210048D02*
X392821Y210048D01*
X387467Y210048D02*
X387467Y221752D01*
X392821Y221752D01*
X392821Y210048D01*
X392821Y212442D02*
X387467Y212442D01*
X387467Y214836D02*
X392821Y214836D01*
X392821Y217230D02*
X387467Y217230D01*
X387467Y219624D02*
X392821Y219624D01*
D11*
X581660Y247650D03*
D12*
X538871Y272552D02*
X533263Y272552D01*
X538871Y272552D02*
X538871Y260848D01*
X533263Y260848D01*
X533263Y272552D01*
X533263Y263242D02*
X538871Y263242D01*
X538871Y265636D02*
X533263Y265636D01*
X533263Y268030D02*
X538871Y268030D01*
X538871Y270424D02*
X533263Y270424D01*
X528457Y272552D02*
X522849Y272552D01*
X528457Y272552D02*
X528457Y260848D01*
X522849Y260848D01*
X522849Y272552D01*
X522849Y263242D02*
X528457Y263242D01*
X528457Y265636D02*
X522849Y265636D01*
X522849Y268030D02*
X528457Y268030D01*
X528457Y270424D02*
X522849Y270424D01*
X541137Y297952D02*
X546491Y297952D01*
X546491Y286248D01*
X541137Y286248D01*
X541137Y297952D01*
X541137Y288642D02*
X546491Y288642D01*
X546491Y291036D02*
X541137Y291036D01*
X541137Y293430D02*
X546491Y293430D01*
X546491Y295824D02*
X541137Y295824D01*
X538363Y297952D02*
X533009Y297952D01*
X538363Y297952D02*
X538363Y286248D01*
X533009Y286248D01*
X533009Y297952D01*
X533009Y288642D02*
X538363Y288642D01*
X538363Y291036D02*
X533009Y291036D01*
X533009Y293430D02*
X538363Y293430D01*
X538363Y295824D02*
X533009Y295824D01*
X613019Y184648D02*
X618373Y184648D01*
X613019Y184648D02*
X613019Y196352D01*
X618373Y196352D01*
X618373Y184648D01*
X618373Y187042D02*
X613019Y187042D01*
X613019Y189436D02*
X618373Y189436D01*
X618373Y191830D02*
X613019Y191830D01*
X613019Y194224D02*
X618373Y194224D01*
X621147Y184648D02*
X626501Y184648D01*
X621147Y184648D02*
X621147Y196352D01*
X626501Y196352D01*
X626501Y184648D01*
X626501Y187042D02*
X621147Y187042D01*
X621147Y189436D02*
X626501Y189436D01*
X626501Y191830D02*
X621147Y191830D01*
X621147Y194224D02*
X626501Y194224D01*
X618373Y159248D02*
X613019Y159248D01*
X613019Y170952D01*
X618373Y170952D01*
X618373Y159248D01*
X618373Y161642D02*
X613019Y161642D01*
X613019Y164036D02*
X618373Y164036D01*
X618373Y166430D02*
X613019Y166430D01*
X613019Y168824D02*
X618373Y168824D01*
X621147Y159248D02*
X626501Y159248D01*
X621147Y159248D02*
X621147Y170952D01*
X626501Y170952D01*
X626501Y159248D01*
X626501Y161642D02*
X621147Y161642D01*
X621147Y164036D02*
X626501Y164036D01*
X626501Y166430D02*
X621147Y166430D01*
X621147Y168824D02*
X626501Y168824D01*
X618373Y108448D02*
X613019Y108448D01*
X613019Y120152D01*
X618373Y120152D01*
X618373Y108448D01*
X618373Y110842D02*
X613019Y110842D01*
X613019Y113236D02*
X618373Y113236D01*
X618373Y115630D02*
X613019Y115630D01*
X613019Y118024D02*
X618373Y118024D01*
X621147Y108448D02*
X626501Y108448D01*
X621147Y108448D02*
X621147Y120152D01*
X626501Y120152D01*
X626501Y108448D01*
X626501Y110842D02*
X621147Y110842D01*
X621147Y113236D02*
X626501Y113236D01*
X626501Y115630D02*
X621147Y115630D01*
X621147Y118024D02*
X626501Y118024D01*
X618373Y133848D02*
X613019Y133848D01*
X613019Y145552D01*
X618373Y145552D01*
X618373Y133848D01*
X618373Y136242D02*
X613019Y136242D01*
X613019Y138636D02*
X618373Y138636D01*
X618373Y141030D02*
X613019Y141030D01*
X613019Y143424D02*
X618373Y143424D01*
X621147Y133848D02*
X626501Y133848D01*
X621147Y133848D02*
X621147Y145552D01*
X626501Y145552D01*
X626501Y133848D01*
X626501Y136242D02*
X621147Y136242D01*
X621147Y138636D02*
X626501Y138636D01*
X626501Y141030D02*
X621147Y141030D01*
X621147Y143424D02*
X626501Y143424D01*
X618373Y83048D02*
X613019Y83048D01*
X613019Y94752D01*
X618373Y94752D01*
X618373Y83048D01*
X618373Y85442D02*
X613019Y85442D01*
X613019Y87836D02*
X618373Y87836D01*
X618373Y90230D02*
X613019Y90230D01*
X613019Y92624D02*
X618373Y92624D01*
X621147Y83048D02*
X626501Y83048D01*
X621147Y83048D02*
X621147Y94752D01*
X626501Y94752D01*
X626501Y83048D01*
X626501Y85442D02*
X621147Y85442D01*
X621147Y87836D02*
X626501Y87836D01*
X626501Y90230D02*
X621147Y90230D01*
X621147Y92624D02*
X626501Y92624D01*
D13*
X480060Y12700D03*
X645160Y279400D03*
D11*
X683260Y12700D03*
X683260Y38100D03*
X683260Y63500D03*
X683260Y88900D03*
X683260Y114300D03*
X683260Y139700D03*
X683260Y165100D03*
X683260Y190500D03*
X683260Y215900D03*
X683260Y241300D03*
X683260Y266700D03*
X683260Y292100D03*
X480060Y88900D03*
X480060Y114300D03*
X480060Y139700D03*
X480060Y165100D03*
X480060Y190500D03*
X480060Y215900D03*
X480060Y241300D03*
X480060Y266700D03*
X480060Y292100D03*
D12*
X613019Y210048D02*
X618373Y210048D01*
X613019Y210048D02*
X613019Y221752D01*
X618373Y221752D01*
X618373Y210048D01*
X618373Y212442D02*
X613019Y212442D01*
X613019Y214836D02*
X618373Y214836D01*
X618373Y217230D02*
X613019Y217230D01*
X613019Y219624D02*
X618373Y219624D01*
X621147Y210048D02*
X626501Y210048D01*
X621147Y210048D02*
X621147Y221752D01*
X626501Y221752D01*
X626501Y210048D01*
X626501Y212442D02*
X621147Y212442D01*
X621147Y214836D02*
X626501Y214836D01*
X626501Y217230D02*
X621147Y217230D01*
X621147Y219624D02*
X626501Y219624D01*
D11*
X815340Y247650D03*
D12*
X772551Y272552D02*
X766943Y272552D01*
X772551Y272552D02*
X772551Y260848D01*
X766943Y260848D01*
X766943Y272552D01*
X766943Y263242D02*
X772551Y263242D01*
X772551Y265636D02*
X766943Y265636D01*
X766943Y268030D02*
X772551Y268030D01*
X772551Y270424D02*
X766943Y270424D01*
X762137Y272552D02*
X756529Y272552D01*
X762137Y272552D02*
X762137Y260848D01*
X756529Y260848D01*
X756529Y272552D01*
X756529Y263242D02*
X762137Y263242D01*
X762137Y265636D02*
X756529Y265636D01*
X756529Y268030D02*
X762137Y268030D01*
X762137Y270424D02*
X756529Y270424D01*
X774817Y297952D02*
X780171Y297952D01*
X780171Y286248D01*
X774817Y286248D01*
X774817Y297952D01*
X774817Y288642D02*
X780171Y288642D01*
X780171Y291036D02*
X774817Y291036D01*
X774817Y293430D02*
X780171Y293430D01*
X780171Y295824D02*
X774817Y295824D01*
X772043Y297952D02*
X766689Y297952D01*
X772043Y297952D02*
X772043Y286248D01*
X766689Y286248D01*
X766689Y297952D01*
X766689Y288642D02*
X772043Y288642D01*
X772043Y291036D02*
X766689Y291036D01*
X766689Y293430D02*
X772043Y293430D01*
X772043Y295824D02*
X766689Y295824D01*
X846699Y184648D02*
X852053Y184648D01*
X846699Y184648D02*
X846699Y196352D01*
X852053Y196352D01*
X852053Y184648D01*
X852053Y187042D02*
X846699Y187042D01*
X846699Y189436D02*
X852053Y189436D01*
X852053Y191830D02*
X846699Y191830D01*
X846699Y194224D02*
X852053Y194224D01*
X854827Y184648D02*
X860181Y184648D01*
X854827Y184648D02*
X854827Y196352D01*
X860181Y196352D01*
X860181Y184648D01*
X860181Y187042D02*
X854827Y187042D01*
X854827Y189436D02*
X860181Y189436D01*
X860181Y191830D02*
X854827Y191830D01*
X854827Y194224D02*
X860181Y194224D01*
X852053Y159248D02*
X846699Y159248D01*
X846699Y170952D01*
X852053Y170952D01*
X852053Y159248D01*
X852053Y161642D02*
X846699Y161642D01*
X846699Y164036D02*
X852053Y164036D01*
X852053Y166430D02*
X846699Y166430D01*
X846699Y168824D02*
X852053Y168824D01*
X854827Y159248D02*
X860181Y159248D01*
X854827Y159248D02*
X854827Y170952D01*
X860181Y170952D01*
X860181Y159248D01*
X860181Y161642D02*
X854827Y161642D01*
X854827Y164036D02*
X860181Y164036D01*
X860181Y166430D02*
X854827Y166430D01*
X854827Y168824D02*
X860181Y168824D01*
X852053Y108448D02*
X846699Y108448D01*
X846699Y120152D01*
X852053Y120152D01*
X852053Y108448D01*
X852053Y110842D02*
X846699Y110842D01*
X846699Y113236D02*
X852053Y113236D01*
X852053Y115630D02*
X846699Y115630D01*
X846699Y118024D02*
X852053Y118024D01*
X854827Y108448D02*
X860181Y108448D01*
X854827Y108448D02*
X854827Y120152D01*
X860181Y120152D01*
X860181Y108448D01*
X860181Y110842D02*
X854827Y110842D01*
X854827Y113236D02*
X860181Y113236D01*
X860181Y115630D02*
X854827Y115630D01*
X854827Y118024D02*
X860181Y118024D01*
X852053Y133848D02*
X846699Y133848D01*
X846699Y145552D01*
X852053Y145552D01*
X852053Y133848D01*
X852053Y136242D02*
X846699Y136242D01*
X846699Y138636D02*
X852053Y138636D01*
X852053Y141030D02*
X846699Y141030D01*
X846699Y143424D02*
X852053Y143424D01*
X854827Y133848D02*
X860181Y133848D01*
X854827Y133848D02*
X854827Y145552D01*
X860181Y145552D01*
X860181Y133848D01*
X860181Y136242D02*
X854827Y136242D01*
X854827Y138636D02*
X860181Y138636D01*
X860181Y141030D02*
X854827Y141030D01*
X854827Y143424D02*
X860181Y143424D01*
X852053Y83048D02*
X846699Y83048D01*
X846699Y94752D01*
X852053Y94752D01*
X852053Y83048D01*
X852053Y85442D02*
X846699Y85442D01*
X846699Y87836D02*
X852053Y87836D01*
X852053Y90230D02*
X846699Y90230D01*
X846699Y92624D02*
X852053Y92624D01*
X854827Y83048D02*
X860181Y83048D01*
X854827Y83048D02*
X854827Y94752D01*
X860181Y94752D01*
X860181Y83048D01*
X860181Y85442D02*
X854827Y85442D01*
X854827Y87836D02*
X860181Y87836D01*
X860181Y90230D02*
X854827Y90230D01*
X854827Y92624D02*
X860181Y92624D01*
D13*
X713740Y12700D03*
X878840Y279400D03*
D11*
X916940Y12700D03*
X916940Y38100D03*
X916940Y63500D03*
X916940Y88900D03*
X916940Y114300D03*
X916940Y139700D03*
X916940Y165100D03*
X916940Y190500D03*
X916940Y215900D03*
X916940Y241300D03*
X916940Y266700D03*
X916940Y292100D03*
X713740Y88900D03*
X713740Y114300D03*
X713740Y139700D03*
X713740Y165100D03*
X713740Y190500D03*
X713740Y215900D03*
X713740Y241300D03*
X713740Y266700D03*
X713740Y292100D03*
D12*
X846699Y210048D02*
X852053Y210048D01*
X846699Y210048D02*
X846699Y221752D01*
X852053Y221752D01*
X852053Y210048D01*
X852053Y212442D02*
X846699Y212442D01*
X846699Y214836D02*
X852053Y214836D01*
X852053Y217230D02*
X846699Y217230D01*
X846699Y219624D02*
X852053Y219624D01*
X854827Y210048D02*
X860181Y210048D01*
X854827Y210048D02*
X854827Y221752D01*
X860181Y221752D01*
X860181Y210048D01*
X860181Y212442D02*
X854827Y212442D01*
X854827Y214836D02*
X860181Y214836D01*
X860181Y217230D02*
X854827Y217230D01*
X854827Y219624D02*
X860181Y219624D01*
D11*
X1049020Y247650D03*
D12*
X1006231Y272552D02*
X1000623Y272552D01*
X1006231Y272552D02*
X1006231Y260848D01*
X1000623Y260848D01*
X1000623Y272552D01*
X1000623Y263242D02*
X1006231Y263242D01*
X1006231Y265636D02*
X1000623Y265636D01*
X1000623Y268030D02*
X1006231Y268030D01*
X1006231Y270424D02*
X1000623Y270424D01*
X995817Y272552D02*
X990209Y272552D01*
X995817Y272552D02*
X995817Y260848D01*
X990209Y260848D01*
X990209Y272552D01*
X990209Y263242D02*
X995817Y263242D01*
X995817Y265636D02*
X990209Y265636D01*
X990209Y268030D02*
X995817Y268030D01*
X995817Y270424D02*
X990209Y270424D01*
X1008497Y297952D02*
X1013851Y297952D01*
X1013851Y286248D01*
X1008497Y286248D01*
X1008497Y297952D01*
X1008497Y288642D02*
X1013851Y288642D01*
X1013851Y291036D02*
X1008497Y291036D01*
X1008497Y293430D02*
X1013851Y293430D01*
X1013851Y295824D02*
X1008497Y295824D01*
X1005723Y297952D02*
X1000369Y297952D01*
X1005723Y297952D02*
X1005723Y286248D01*
X1000369Y286248D01*
X1000369Y297952D01*
X1000369Y288642D02*
X1005723Y288642D01*
X1005723Y291036D02*
X1000369Y291036D01*
X1000369Y293430D02*
X1005723Y293430D01*
X1005723Y295824D02*
X1000369Y295824D01*
X1080379Y184648D02*
X1085733Y184648D01*
X1080379Y184648D02*
X1080379Y196352D01*
X1085733Y196352D01*
X1085733Y184648D01*
X1085733Y187042D02*
X1080379Y187042D01*
X1080379Y189436D02*
X1085733Y189436D01*
X1085733Y191830D02*
X1080379Y191830D01*
X1080379Y194224D02*
X1085733Y194224D01*
X1088507Y184648D02*
X1093861Y184648D01*
X1088507Y184648D02*
X1088507Y196352D01*
X1093861Y196352D01*
X1093861Y184648D01*
X1093861Y187042D02*
X1088507Y187042D01*
X1088507Y189436D02*
X1093861Y189436D01*
X1093861Y191830D02*
X1088507Y191830D01*
X1088507Y194224D02*
X1093861Y194224D01*
X1085733Y159248D02*
X1080379Y159248D01*
X1080379Y170952D01*
X1085733Y170952D01*
X1085733Y159248D01*
X1085733Y161642D02*
X1080379Y161642D01*
X1080379Y164036D02*
X1085733Y164036D01*
X1085733Y166430D02*
X1080379Y166430D01*
X1080379Y168824D02*
X1085733Y168824D01*
X1088507Y159248D02*
X1093861Y159248D01*
X1088507Y159248D02*
X1088507Y170952D01*
X1093861Y170952D01*
X1093861Y159248D01*
X1093861Y161642D02*
X1088507Y161642D01*
X1088507Y164036D02*
X1093861Y164036D01*
X1093861Y166430D02*
X1088507Y166430D01*
X1088507Y168824D02*
X1093861Y168824D01*
X1085733Y108448D02*
X1080379Y108448D01*
X1080379Y120152D01*
X1085733Y120152D01*
X1085733Y108448D01*
X1085733Y110842D02*
X1080379Y110842D01*
X1080379Y113236D02*
X1085733Y113236D01*
X1085733Y115630D02*
X1080379Y115630D01*
X1080379Y118024D02*
X1085733Y118024D01*
X1088507Y108448D02*
X1093861Y108448D01*
X1088507Y108448D02*
X1088507Y120152D01*
X1093861Y120152D01*
X1093861Y108448D01*
X1093861Y110842D02*
X1088507Y110842D01*
X1088507Y113236D02*
X1093861Y113236D01*
X1093861Y115630D02*
X1088507Y115630D01*
X1088507Y118024D02*
X1093861Y118024D01*
X1085733Y133848D02*
X1080379Y133848D01*
X1080379Y145552D01*
X1085733Y145552D01*
X1085733Y133848D01*
X1085733Y136242D02*
X1080379Y136242D01*
X1080379Y138636D02*
X1085733Y138636D01*
X1085733Y141030D02*
X1080379Y141030D01*
X1080379Y143424D02*
X1085733Y143424D01*
X1088507Y133848D02*
X1093861Y133848D01*
X1088507Y133848D02*
X1088507Y145552D01*
X1093861Y145552D01*
X1093861Y133848D01*
X1093861Y136242D02*
X1088507Y136242D01*
X1088507Y138636D02*
X1093861Y138636D01*
X1093861Y141030D02*
X1088507Y141030D01*
X1088507Y143424D02*
X1093861Y143424D01*
X1085733Y83048D02*
X1080379Y83048D01*
X1080379Y94752D01*
X1085733Y94752D01*
X1085733Y83048D01*
X1085733Y85442D02*
X1080379Y85442D01*
X1080379Y87836D02*
X1085733Y87836D01*
X1085733Y90230D02*
X1080379Y90230D01*
X1080379Y92624D02*
X1085733Y92624D01*
X1088507Y83048D02*
X1093861Y83048D01*
X1088507Y83048D02*
X1088507Y94752D01*
X1093861Y94752D01*
X1093861Y83048D01*
X1093861Y85442D02*
X1088507Y85442D01*
X1088507Y87836D02*
X1093861Y87836D01*
X1093861Y90230D02*
X1088507Y90230D01*
X1088507Y92624D02*
X1093861Y92624D01*
D13*
X947420Y12700D03*
X1112520Y279400D03*
D11*
X1150620Y12700D03*
X1150620Y38100D03*
X1150620Y63500D03*
X1150620Y88900D03*
X1150620Y114300D03*
X1150620Y139700D03*
X1150620Y165100D03*
X1150620Y190500D03*
X1150620Y215900D03*
X1150620Y241300D03*
X1150620Y266700D03*
X1150620Y292100D03*
X947420Y88900D03*
X947420Y114300D03*
X947420Y139700D03*
X947420Y165100D03*
X947420Y190500D03*
X947420Y215900D03*
X947420Y241300D03*
X947420Y266700D03*
X947420Y292100D03*
D12*
X1080379Y210048D02*
X1085733Y210048D01*
X1080379Y210048D02*
X1080379Y221752D01*
X1085733Y221752D01*
X1085733Y210048D01*
X1085733Y212442D02*
X1080379Y212442D01*
X1080379Y214836D02*
X1085733Y214836D01*
X1085733Y217230D02*
X1080379Y217230D01*
X1080379Y219624D02*
X1085733Y219624D01*
X1088507Y210048D02*
X1093861Y210048D01*
X1088507Y210048D02*
X1088507Y221752D01*
X1093861Y221752D01*
X1093861Y210048D01*
X1093861Y212442D02*
X1088507Y212442D01*
X1088507Y214836D02*
X1093861Y214836D01*
X1093861Y217230D02*
X1088507Y217230D01*
X1088507Y219624D02*
X1093861Y219624D01*
D11*
X114300Y557530D03*
D12*
X71511Y582432D02*
X65903Y582432D01*
X71511Y582432D02*
X71511Y570728D01*
X65903Y570728D01*
X65903Y582432D01*
X65903Y573122D02*
X71511Y573122D01*
X71511Y575516D02*
X65903Y575516D01*
X65903Y577910D02*
X71511Y577910D01*
X71511Y580304D02*
X65903Y580304D01*
X61097Y582432D02*
X55489Y582432D01*
X61097Y582432D02*
X61097Y570728D01*
X55489Y570728D01*
X55489Y582432D01*
X55489Y573122D02*
X61097Y573122D01*
X61097Y575516D02*
X55489Y575516D01*
X55489Y577910D02*
X61097Y577910D01*
X61097Y580304D02*
X55489Y580304D01*
X73777Y607832D02*
X79131Y607832D01*
X79131Y596128D01*
X73777Y596128D01*
X73777Y607832D01*
X73777Y598522D02*
X79131Y598522D01*
X79131Y600916D02*
X73777Y600916D01*
X73777Y603310D02*
X79131Y603310D01*
X79131Y605704D02*
X73777Y605704D01*
X71003Y607832D02*
X65649Y607832D01*
X71003Y607832D02*
X71003Y596128D01*
X65649Y596128D01*
X65649Y607832D01*
X65649Y598522D02*
X71003Y598522D01*
X71003Y600916D02*
X65649Y600916D01*
X65649Y603310D02*
X71003Y603310D01*
X71003Y605704D02*
X65649Y605704D01*
X145659Y494528D02*
X151013Y494528D01*
X145659Y494528D02*
X145659Y506232D01*
X151013Y506232D01*
X151013Y494528D01*
X151013Y496922D02*
X145659Y496922D01*
X145659Y499316D02*
X151013Y499316D01*
X151013Y501710D02*
X145659Y501710D01*
X145659Y504104D02*
X151013Y504104D01*
X153787Y494528D02*
X159141Y494528D01*
X153787Y494528D02*
X153787Y506232D01*
X159141Y506232D01*
X159141Y494528D01*
X159141Y496922D02*
X153787Y496922D01*
X153787Y499316D02*
X159141Y499316D01*
X159141Y501710D02*
X153787Y501710D01*
X153787Y504104D02*
X159141Y504104D01*
X151013Y469128D02*
X145659Y469128D01*
X145659Y480832D01*
X151013Y480832D01*
X151013Y469128D01*
X151013Y471522D02*
X145659Y471522D01*
X145659Y473916D02*
X151013Y473916D01*
X151013Y476310D02*
X145659Y476310D01*
X145659Y478704D02*
X151013Y478704D01*
X153787Y469128D02*
X159141Y469128D01*
X153787Y469128D02*
X153787Y480832D01*
X159141Y480832D01*
X159141Y469128D01*
X159141Y471522D02*
X153787Y471522D01*
X153787Y473916D02*
X159141Y473916D01*
X159141Y476310D02*
X153787Y476310D01*
X153787Y478704D02*
X159141Y478704D01*
X151013Y418328D02*
X145659Y418328D01*
X145659Y430032D01*
X151013Y430032D01*
X151013Y418328D01*
X151013Y420722D02*
X145659Y420722D01*
X145659Y423116D02*
X151013Y423116D01*
X151013Y425510D02*
X145659Y425510D01*
X145659Y427904D02*
X151013Y427904D01*
X153787Y418328D02*
X159141Y418328D01*
X153787Y418328D02*
X153787Y430032D01*
X159141Y430032D01*
X159141Y418328D01*
X159141Y420722D02*
X153787Y420722D01*
X153787Y423116D02*
X159141Y423116D01*
X159141Y425510D02*
X153787Y425510D01*
X153787Y427904D02*
X159141Y427904D01*
X151013Y443728D02*
X145659Y443728D01*
X145659Y455432D01*
X151013Y455432D01*
X151013Y443728D01*
X151013Y446122D02*
X145659Y446122D01*
X145659Y448516D02*
X151013Y448516D01*
X151013Y450910D02*
X145659Y450910D01*
X145659Y453304D02*
X151013Y453304D01*
X153787Y443728D02*
X159141Y443728D01*
X153787Y443728D02*
X153787Y455432D01*
X159141Y455432D01*
X159141Y443728D01*
X159141Y446122D02*
X153787Y446122D01*
X153787Y448516D02*
X159141Y448516D01*
X159141Y450910D02*
X153787Y450910D01*
X153787Y453304D02*
X159141Y453304D01*
X151013Y392928D02*
X145659Y392928D01*
X145659Y404632D01*
X151013Y404632D01*
X151013Y392928D01*
X151013Y395322D02*
X145659Y395322D01*
X145659Y397716D02*
X151013Y397716D01*
X151013Y400110D02*
X145659Y400110D01*
X145659Y402504D02*
X151013Y402504D01*
X153787Y392928D02*
X159141Y392928D01*
X153787Y392928D02*
X153787Y404632D01*
X159141Y404632D01*
X159141Y392928D01*
X159141Y395322D02*
X153787Y395322D01*
X153787Y397716D02*
X159141Y397716D01*
X159141Y400110D02*
X153787Y400110D01*
X153787Y402504D02*
X159141Y402504D01*
D13*
X12700Y322580D03*
X177800Y589280D03*
D11*
X215900Y322580D03*
X215900Y347980D03*
X215900Y373380D03*
X215900Y398780D03*
X215900Y424180D03*
X215900Y449580D03*
X215900Y474980D03*
X215900Y500380D03*
X215900Y525780D03*
X215900Y551180D03*
X215900Y576580D03*
X215900Y601980D03*
X12700Y398780D03*
X12700Y424180D03*
X12700Y449580D03*
X12700Y474980D03*
X12700Y500380D03*
X12700Y525780D03*
X12700Y551180D03*
X12700Y576580D03*
X12700Y601980D03*
D12*
X145659Y519928D02*
X151013Y519928D01*
X145659Y519928D02*
X145659Y531632D01*
X151013Y531632D01*
X151013Y519928D01*
X151013Y522322D02*
X145659Y522322D01*
X145659Y524716D02*
X151013Y524716D01*
X151013Y527110D02*
X145659Y527110D01*
X145659Y529504D02*
X151013Y529504D01*
X153787Y519928D02*
X159141Y519928D01*
X153787Y519928D02*
X153787Y531632D01*
X159141Y531632D01*
X159141Y519928D01*
X159141Y522322D02*
X153787Y522322D01*
X153787Y524716D02*
X159141Y524716D01*
X159141Y527110D02*
X153787Y527110D01*
X153787Y529504D02*
X159141Y529504D01*
D11*
X347980Y557530D03*
D12*
X305191Y582432D02*
X299583Y582432D01*
X305191Y582432D02*
X305191Y570728D01*
X299583Y570728D01*
X299583Y582432D01*
X299583Y573122D02*
X305191Y573122D01*
X305191Y575516D02*
X299583Y575516D01*
X299583Y577910D02*
X305191Y577910D01*
X305191Y580304D02*
X299583Y580304D01*
X294777Y582432D02*
X289169Y582432D01*
X294777Y582432D02*
X294777Y570728D01*
X289169Y570728D01*
X289169Y582432D01*
X289169Y573122D02*
X294777Y573122D01*
X294777Y575516D02*
X289169Y575516D01*
X289169Y577910D02*
X294777Y577910D01*
X294777Y580304D02*
X289169Y580304D01*
X307457Y607832D02*
X312811Y607832D01*
X312811Y596128D01*
X307457Y596128D01*
X307457Y607832D01*
X307457Y598522D02*
X312811Y598522D01*
X312811Y600916D02*
X307457Y600916D01*
X307457Y603310D02*
X312811Y603310D01*
X312811Y605704D02*
X307457Y605704D01*
X304683Y607832D02*
X299329Y607832D01*
X304683Y607832D02*
X304683Y596128D01*
X299329Y596128D01*
X299329Y607832D01*
X299329Y598522D02*
X304683Y598522D01*
X304683Y600916D02*
X299329Y600916D01*
X299329Y603310D02*
X304683Y603310D01*
X304683Y605704D02*
X299329Y605704D01*
X379339Y494528D02*
X384693Y494528D01*
X379339Y494528D02*
X379339Y506232D01*
X384693Y506232D01*
X384693Y494528D01*
X384693Y496922D02*
X379339Y496922D01*
X379339Y499316D02*
X384693Y499316D01*
X384693Y501710D02*
X379339Y501710D01*
X379339Y504104D02*
X384693Y504104D01*
X387467Y494528D02*
X392821Y494528D01*
X387467Y494528D02*
X387467Y506232D01*
X392821Y506232D01*
X392821Y494528D01*
X392821Y496922D02*
X387467Y496922D01*
X387467Y499316D02*
X392821Y499316D01*
X392821Y501710D02*
X387467Y501710D01*
X387467Y504104D02*
X392821Y504104D01*
X384693Y469128D02*
X379339Y469128D01*
X379339Y480832D01*
X384693Y480832D01*
X384693Y469128D01*
X384693Y471522D02*
X379339Y471522D01*
X379339Y473916D02*
X384693Y473916D01*
X384693Y476310D02*
X379339Y476310D01*
X379339Y478704D02*
X384693Y478704D01*
X387467Y469128D02*
X392821Y469128D01*
X387467Y469128D02*
X387467Y480832D01*
X392821Y480832D01*
X392821Y469128D01*
X392821Y471522D02*
X387467Y471522D01*
X387467Y473916D02*
X392821Y473916D01*
X392821Y476310D02*
X387467Y476310D01*
X387467Y478704D02*
X392821Y478704D01*
X384693Y418328D02*
X379339Y418328D01*
X379339Y430032D01*
X384693Y430032D01*
X384693Y418328D01*
X384693Y420722D02*
X379339Y420722D01*
X379339Y423116D02*
X384693Y423116D01*
X384693Y425510D02*
X379339Y425510D01*
X379339Y427904D02*
X384693Y427904D01*
X387467Y418328D02*
X392821Y418328D01*
X387467Y418328D02*
X387467Y430032D01*
X392821Y430032D01*
X392821Y418328D01*
X392821Y420722D02*
X387467Y420722D01*
X387467Y423116D02*
X392821Y423116D01*
X392821Y425510D02*
X387467Y425510D01*
X387467Y427904D02*
X392821Y427904D01*
X384693Y443728D02*
X379339Y443728D01*
X379339Y455432D01*
X384693Y455432D01*
X384693Y443728D01*
X384693Y446122D02*
X379339Y446122D01*
X379339Y448516D02*
X384693Y448516D01*
X384693Y450910D02*
X379339Y450910D01*
X379339Y453304D02*
X384693Y453304D01*
X387467Y443728D02*
X392821Y443728D01*
X387467Y443728D02*
X387467Y455432D01*
X392821Y455432D01*
X392821Y443728D01*
X392821Y446122D02*
X387467Y446122D01*
X387467Y448516D02*
X392821Y448516D01*
X392821Y450910D02*
X387467Y450910D01*
X387467Y453304D02*
X392821Y453304D01*
X384693Y392928D02*
X379339Y392928D01*
X379339Y404632D01*
X384693Y404632D01*
X384693Y392928D01*
X384693Y395322D02*
X379339Y395322D01*
X379339Y397716D02*
X384693Y397716D01*
X384693Y400110D02*
X379339Y400110D01*
X379339Y402504D02*
X384693Y402504D01*
X387467Y392928D02*
X392821Y392928D01*
X387467Y392928D02*
X387467Y404632D01*
X392821Y404632D01*
X392821Y392928D01*
X392821Y395322D02*
X387467Y395322D01*
X387467Y397716D02*
X392821Y397716D01*
X392821Y400110D02*
X387467Y400110D01*
X387467Y402504D02*
X392821Y402504D01*
D13*
X246380Y322580D03*
X411480Y589280D03*
D11*
X449580Y322580D03*
X449580Y347980D03*
X449580Y373380D03*
X449580Y398780D03*
X449580Y424180D03*
X449580Y449580D03*
X449580Y474980D03*
X449580Y500380D03*
X449580Y525780D03*
X449580Y551180D03*
X449580Y576580D03*
X449580Y601980D03*
X246380Y398780D03*
X246380Y424180D03*
X246380Y449580D03*
X246380Y474980D03*
X246380Y500380D03*
X246380Y525780D03*
X246380Y551180D03*
X246380Y576580D03*
X246380Y601980D03*
D12*
X379339Y519928D02*
X384693Y519928D01*
X379339Y519928D02*
X379339Y531632D01*
X384693Y531632D01*
X384693Y519928D01*
X384693Y522322D02*
X379339Y522322D01*
X379339Y524716D02*
X384693Y524716D01*
X384693Y527110D02*
X379339Y527110D01*
X379339Y529504D02*
X384693Y529504D01*
X387467Y519928D02*
X392821Y519928D01*
X387467Y519928D02*
X387467Y531632D01*
X392821Y531632D01*
X392821Y519928D01*
X392821Y522322D02*
X387467Y522322D01*
X387467Y524716D02*
X392821Y524716D01*
X392821Y527110D02*
X387467Y527110D01*
X387467Y529504D02*
X392821Y529504D01*
D11*
X581660Y557530D03*
D12*
X538871Y582432D02*
X533263Y582432D01*
X538871Y582432D02*
X538871Y570728D01*
X533263Y570728D01*
X533263Y582432D01*
X533263Y573122D02*
X538871Y573122D01*
X538871Y575516D02*
X533263Y575516D01*
X533263Y577910D02*
X538871Y577910D01*
X538871Y580304D02*
X533263Y580304D01*
X528457Y582432D02*
X522849Y582432D01*
X528457Y582432D02*
X528457Y570728D01*
X522849Y570728D01*
X522849Y582432D01*
X522849Y573122D02*
X528457Y573122D01*
X528457Y575516D02*
X522849Y575516D01*
X522849Y577910D02*
X528457Y577910D01*
X528457Y580304D02*
X522849Y580304D01*
X541137Y607832D02*
X546491Y607832D01*
X546491Y596128D01*
X541137Y596128D01*
X541137Y607832D01*
X541137Y598522D02*
X546491Y598522D01*
X546491Y600916D02*
X541137Y600916D01*
X541137Y603310D02*
X546491Y603310D01*
X546491Y605704D02*
X541137Y605704D01*
X538363Y607832D02*
X533009Y607832D01*
X538363Y607832D02*
X538363Y596128D01*
X533009Y596128D01*
X533009Y607832D01*
X533009Y598522D02*
X538363Y598522D01*
X538363Y600916D02*
X533009Y600916D01*
X533009Y603310D02*
X538363Y603310D01*
X538363Y605704D02*
X533009Y605704D01*
X613019Y494528D02*
X618373Y494528D01*
X613019Y494528D02*
X613019Y506232D01*
X618373Y506232D01*
X618373Y494528D01*
X618373Y496922D02*
X613019Y496922D01*
X613019Y499316D02*
X618373Y499316D01*
X618373Y501710D02*
X613019Y501710D01*
X613019Y504104D02*
X618373Y504104D01*
X621147Y494528D02*
X626501Y494528D01*
X621147Y494528D02*
X621147Y506232D01*
X626501Y506232D01*
X626501Y494528D01*
X626501Y496922D02*
X621147Y496922D01*
X621147Y499316D02*
X626501Y499316D01*
X626501Y501710D02*
X621147Y501710D01*
X621147Y504104D02*
X626501Y504104D01*
X618373Y469128D02*
X613019Y469128D01*
X613019Y480832D01*
X618373Y480832D01*
X618373Y469128D01*
X618373Y471522D02*
X613019Y471522D01*
X613019Y473916D02*
X618373Y473916D01*
X618373Y476310D02*
X613019Y476310D01*
X613019Y478704D02*
X618373Y478704D01*
X621147Y469128D02*
X626501Y469128D01*
X621147Y469128D02*
X621147Y480832D01*
X626501Y480832D01*
X626501Y469128D01*
X626501Y471522D02*
X621147Y471522D01*
X621147Y473916D02*
X626501Y473916D01*
X626501Y476310D02*
X621147Y476310D01*
X621147Y478704D02*
X626501Y478704D01*
X618373Y418328D02*
X613019Y418328D01*
X613019Y430032D01*
X618373Y430032D01*
X618373Y418328D01*
X618373Y420722D02*
X613019Y420722D01*
X613019Y423116D02*
X618373Y423116D01*
X618373Y425510D02*
X613019Y425510D01*
X613019Y427904D02*
X618373Y427904D01*
X621147Y418328D02*
X626501Y418328D01*
X621147Y418328D02*
X621147Y430032D01*
X626501Y430032D01*
X626501Y418328D01*
X626501Y420722D02*
X621147Y420722D01*
X621147Y423116D02*
X626501Y423116D01*
X626501Y425510D02*
X621147Y425510D01*
X621147Y427904D02*
X626501Y427904D01*
X618373Y443728D02*
X613019Y443728D01*
X613019Y455432D01*
X618373Y455432D01*
X618373Y443728D01*
X618373Y446122D02*
X613019Y446122D01*
X613019Y448516D02*
X618373Y448516D01*
X618373Y450910D02*
X613019Y450910D01*
X613019Y453304D02*
X618373Y453304D01*
X621147Y443728D02*
X626501Y443728D01*
X621147Y443728D02*
X621147Y455432D01*
X626501Y455432D01*
X626501Y443728D01*
X626501Y446122D02*
X621147Y446122D01*
X621147Y448516D02*
X626501Y448516D01*
X626501Y450910D02*
X621147Y450910D01*
X621147Y453304D02*
X626501Y453304D01*
X618373Y392928D02*
X613019Y392928D01*
X613019Y404632D01*
X618373Y404632D01*
X618373Y392928D01*
X618373Y395322D02*
X613019Y395322D01*
X613019Y397716D02*
X618373Y397716D01*
X618373Y400110D02*
X613019Y400110D01*
X613019Y402504D02*
X618373Y402504D01*
X621147Y392928D02*
X626501Y392928D01*
X621147Y392928D02*
X621147Y404632D01*
X626501Y404632D01*
X626501Y392928D01*
X626501Y395322D02*
X621147Y395322D01*
X621147Y397716D02*
X626501Y397716D01*
X626501Y400110D02*
X621147Y400110D01*
X621147Y402504D02*
X626501Y402504D01*
D13*
X480060Y322580D03*
X645160Y589280D03*
D11*
X683260Y322580D03*
X683260Y347980D03*
X683260Y373380D03*
X683260Y398780D03*
X683260Y424180D03*
X683260Y449580D03*
X683260Y474980D03*
X683260Y500380D03*
X683260Y525780D03*
X683260Y551180D03*
X683260Y576580D03*
X683260Y601980D03*
X480060Y398780D03*
X480060Y424180D03*
X480060Y449580D03*
X480060Y474980D03*
X480060Y500380D03*
X480060Y525780D03*
X480060Y551180D03*
X480060Y576580D03*
X480060Y601980D03*
D12*
X613019Y519928D02*
X618373Y519928D01*
X613019Y519928D02*
X613019Y531632D01*
X618373Y531632D01*
X618373Y519928D01*
X618373Y522322D02*
X613019Y522322D01*
X613019Y524716D02*
X618373Y524716D01*
X618373Y527110D02*
X613019Y527110D01*
X613019Y529504D02*
X618373Y529504D01*
X621147Y519928D02*
X626501Y519928D01*
X621147Y519928D02*
X621147Y531632D01*
X626501Y531632D01*
X626501Y519928D01*
X626501Y522322D02*
X621147Y522322D01*
X621147Y524716D02*
X626501Y524716D01*
X626501Y527110D02*
X621147Y527110D01*
X621147Y529504D02*
X626501Y529504D01*
D11*
X815340Y557530D03*
D12*
X772551Y582432D02*
X766943Y582432D01*
X772551Y582432D02*
X772551Y570728D01*
X766943Y570728D01*
X766943Y582432D01*
X766943Y573122D02*
X772551Y573122D01*
X772551Y575516D02*
X766943Y575516D01*
X766943Y577910D02*
X772551Y577910D01*
X772551Y580304D02*
X766943Y580304D01*
X762137Y582432D02*
X756529Y582432D01*
X762137Y582432D02*
X762137Y570728D01*
X756529Y570728D01*
X756529Y582432D01*
X756529Y573122D02*
X762137Y573122D01*
X762137Y575516D02*
X756529Y575516D01*
X756529Y577910D02*
X762137Y577910D01*
X762137Y580304D02*
X756529Y580304D01*
X774817Y607832D02*
X780171Y607832D01*
X780171Y596128D01*
X774817Y596128D01*
X774817Y607832D01*
X774817Y598522D02*
X780171Y598522D01*
X780171Y600916D02*
X774817Y600916D01*
X774817Y603310D02*
X780171Y603310D01*
X780171Y605704D02*
X774817Y605704D01*
X772043Y607832D02*
X766689Y607832D01*
X772043Y607832D02*
X772043Y596128D01*
X766689Y596128D01*
X766689Y607832D01*
X766689Y598522D02*
X772043Y598522D01*
X772043Y600916D02*
X766689Y600916D01*
X766689Y603310D02*
X772043Y603310D01*
X772043Y605704D02*
X766689Y605704D01*
X846699Y494528D02*
X852053Y494528D01*
X846699Y494528D02*
X846699Y506232D01*
X852053Y506232D01*
X852053Y494528D01*
X852053Y496922D02*
X846699Y496922D01*
X846699Y499316D02*
X852053Y499316D01*
X852053Y501710D02*
X846699Y501710D01*
X846699Y504104D02*
X852053Y504104D01*
X854827Y494528D02*
X860181Y494528D01*
X854827Y494528D02*
X854827Y506232D01*
X860181Y506232D01*
X860181Y494528D01*
X860181Y496922D02*
X854827Y496922D01*
X854827Y499316D02*
X860181Y499316D01*
X860181Y501710D02*
X854827Y501710D01*
X854827Y504104D02*
X860181Y504104D01*
X852053Y469128D02*
X846699Y469128D01*
X846699Y480832D01*
X852053Y480832D01*
X852053Y469128D01*
X852053Y471522D02*
X846699Y471522D01*
X846699Y473916D02*
X852053Y473916D01*
X852053Y476310D02*
X846699Y476310D01*
X846699Y478704D02*
X852053Y478704D01*
X854827Y469128D02*
X860181Y469128D01*
X854827Y469128D02*
X854827Y480832D01*
X860181Y480832D01*
X860181Y469128D01*
X860181Y471522D02*
X854827Y471522D01*
X854827Y473916D02*
X860181Y473916D01*
X860181Y476310D02*
X854827Y476310D01*
X854827Y478704D02*
X860181Y478704D01*
X852053Y418328D02*
X846699Y418328D01*
X846699Y430032D01*
X852053Y430032D01*
X852053Y418328D01*
X852053Y420722D02*
X846699Y420722D01*
X846699Y423116D02*
X852053Y423116D01*
X852053Y425510D02*
X846699Y425510D01*
X846699Y427904D02*
X852053Y427904D01*
X854827Y418328D02*
X860181Y418328D01*
X854827Y418328D02*
X854827Y430032D01*
X860181Y430032D01*
X860181Y418328D01*
X860181Y420722D02*
X854827Y420722D01*
X854827Y423116D02*
X860181Y423116D01*
X860181Y425510D02*
X854827Y425510D01*
X854827Y427904D02*
X860181Y427904D01*
X852053Y443728D02*
X846699Y443728D01*
X846699Y455432D01*
X852053Y455432D01*
X852053Y443728D01*
X852053Y446122D02*
X846699Y446122D01*
X846699Y448516D02*
X852053Y448516D01*
X852053Y450910D02*
X846699Y450910D01*
X846699Y453304D02*
X852053Y453304D01*
X854827Y443728D02*
X860181Y443728D01*
X854827Y443728D02*
X854827Y455432D01*
X860181Y455432D01*
X860181Y443728D01*
X860181Y446122D02*
X854827Y446122D01*
X854827Y448516D02*
X860181Y448516D01*
X860181Y450910D02*
X854827Y450910D01*
X854827Y453304D02*
X860181Y453304D01*
X852053Y392928D02*
X846699Y392928D01*
X846699Y404632D01*
X852053Y404632D01*
X852053Y392928D01*
X852053Y395322D02*
X846699Y395322D01*
X846699Y397716D02*
X852053Y397716D01*
X852053Y400110D02*
X846699Y400110D01*
X846699Y402504D02*
X852053Y402504D01*
X854827Y392928D02*
X860181Y392928D01*
X854827Y392928D02*
X854827Y404632D01*
X860181Y404632D01*
X860181Y392928D01*
X860181Y395322D02*
X854827Y395322D01*
X854827Y397716D02*
X860181Y397716D01*
X860181Y400110D02*
X854827Y400110D01*
X854827Y402504D02*
X860181Y402504D01*
D13*
X713740Y322580D03*
X878840Y589280D03*
D11*
X916940Y322580D03*
X916940Y347980D03*
X916940Y373380D03*
X916940Y398780D03*
X916940Y424180D03*
X916940Y449580D03*
X916940Y474980D03*
X916940Y500380D03*
X916940Y525780D03*
X916940Y551180D03*
X916940Y576580D03*
X916940Y601980D03*
X713740Y398780D03*
X713740Y424180D03*
X713740Y449580D03*
X713740Y474980D03*
X713740Y500380D03*
X713740Y525780D03*
X713740Y551180D03*
X713740Y576580D03*
X713740Y601980D03*
D12*
X846699Y519928D02*
X852053Y519928D01*
X846699Y519928D02*
X846699Y531632D01*
X852053Y531632D01*
X852053Y519928D01*
X852053Y522322D02*
X846699Y522322D01*
X846699Y524716D02*
X852053Y524716D01*
X852053Y527110D02*
X846699Y527110D01*
X846699Y529504D02*
X852053Y529504D01*
X854827Y519928D02*
X860181Y519928D01*
X854827Y519928D02*
X854827Y531632D01*
X860181Y531632D01*
X860181Y519928D01*
X860181Y522322D02*
X854827Y522322D01*
X854827Y524716D02*
X860181Y524716D01*
X860181Y527110D02*
X854827Y527110D01*
X854827Y529504D02*
X860181Y529504D01*
D11*
X1049020Y557530D03*
D12*
X1006231Y582432D02*
X1000623Y582432D01*
X1006231Y582432D02*
X1006231Y570728D01*
X1000623Y570728D01*
X1000623Y582432D01*
X1000623Y573122D02*
X1006231Y573122D01*
X1006231Y575516D02*
X1000623Y575516D01*
X1000623Y577910D02*
X1006231Y577910D01*
X1006231Y580304D02*
X1000623Y580304D01*
X995817Y582432D02*
X990209Y582432D01*
X995817Y582432D02*
X995817Y570728D01*
X990209Y570728D01*
X990209Y582432D01*
X990209Y573122D02*
X995817Y573122D01*
X995817Y575516D02*
X990209Y575516D01*
X990209Y577910D02*
X995817Y577910D01*
X995817Y580304D02*
X990209Y580304D01*
X1008497Y607832D02*
X1013851Y607832D01*
X1013851Y596128D01*
X1008497Y596128D01*
X1008497Y607832D01*
X1008497Y598522D02*
X1013851Y598522D01*
X1013851Y600916D02*
X1008497Y600916D01*
X1008497Y603310D02*
X1013851Y603310D01*
X1013851Y605704D02*
X1008497Y605704D01*
X1005723Y607832D02*
X1000369Y607832D01*
X1005723Y607832D02*
X1005723Y596128D01*
X1000369Y596128D01*
X1000369Y607832D01*
X1000369Y598522D02*
X1005723Y598522D01*
X1005723Y600916D02*
X1000369Y600916D01*
X1000369Y603310D02*
X1005723Y603310D01*
X1005723Y605704D02*
X1000369Y605704D01*
X1080379Y494528D02*
X1085733Y494528D01*
X1080379Y494528D02*
X1080379Y506232D01*
X1085733Y506232D01*
X1085733Y494528D01*
X1085733Y496922D02*
X1080379Y496922D01*
X1080379Y499316D02*
X1085733Y499316D01*
X1085733Y501710D02*
X1080379Y501710D01*
X1080379Y504104D02*
X1085733Y504104D01*
X1088507Y494528D02*
X1093861Y494528D01*
X1088507Y494528D02*
X1088507Y506232D01*
X1093861Y506232D01*
X1093861Y494528D01*
X1093861Y496922D02*
X1088507Y496922D01*
X1088507Y499316D02*
X1093861Y499316D01*
X1093861Y501710D02*
X1088507Y501710D01*
X1088507Y504104D02*
X1093861Y504104D01*
X1085733Y469128D02*
X1080379Y469128D01*
X1080379Y480832D01*
X1085733Y480832D01*
X1085733Y469128D01*
X1085733Y471522D02*
X1080379Y471522D01*
X1080379Y473916D02*
X1085733Y473916D01*
X1085733Y476310D02*
X1080379Y476310D01*
X1080379Y478704D02*
X1085733Y478704D01*
X1088507Y469128D02*
X1093861Y469128D01*
X1088507Y469128D02*
X1088507Y480832D01*
X1093861Y480832D01*
X1093861Y469128D01*
X1093861Y471522D02*
X1088507Y471522D01*
X1088507Y473916D02*
X1093861Y473916D01*
X1093861Y476310D02*
X1088507Y476310D01*
X1088507Y478704D02*
X1093861Y478704D01*
X1085733Y418328D02*
X1080379Y418328D01*
X1080379Y430032D01*
X1085733Y430032D01*
X1085733Y418328D01*
X1085733Y420722D02*
X1080379Y420722D01*
X1080379Y423116D02*
X1085733Y423116D01*
X1085733Y425510D02*
X1080379Y425510D01*
X1080379Y427904D02*
X1085733Y427904D01*
X1088507Y418328D02*
X1093861Y418328D01*
X1088507Y418328D02*
X1088507Y430032D01*
X1093861Y430032D01*
X1093861Y418328D01*
X1093861Y420722D02*
X1088507Y420722D01*
X1088507Y423116D02*
X1093861Y423116D01*
X1093861Y425510D02*
X1088507Y425510D01*
X1088507Y427904D02*
X1093861Y427904D01*
X1085733Y443728D02*
X1080379Y443728D01*
X1080379Y455432D01*
X1085733Y455432D01*
X1085733Y443728D01*
X1085733Y446122D02*
X1080379Y446122D01*
X1080379Y448516D02*
X1085733Y448516D01*
X1085733Y450910D02*
X1080379Y450910D01*
X1080379Y453304D02*
X1085733Y453304D01*
X1088507Y443728D02*
X1093861Y443728D01*
X1088507Y443728D02*
X1088507Y455432D01*
X1093861Y455432D01*
X1093861Y443728D01*
X1093861Y446122D02*
X1088507Y446122D01*
X1088507Y448516D02*
X1093861Y448516D01*
X1093861Y450910D02*
X1088507Y450910D01*
X1088507Y453304D02*
X1093861Y453304D01*
X1085733Y392928D02*
X1080379Y392928D01*
X1080379Y404632D01*
X1085733Y404632D01*
X1085733Y392928D01*
X1085733Y395322D02*
X1080379Y395322D01*
X1080379Y397716D02*
X1085733Y397716D01*
X1085733Y400110D02*
X1080379Y400110D01*
X1080379Y402504D02*
X1085733Y402504D01*
X1088507Y392928D02*
X1093861Y392928D01*
X1088507Y392928D02*
X1088507Y404632D01*
X1093861Y404632D01*
X1093861Y392928D01*
X1093861Y395322D02*
X1088507Y395322D01*
X1088507Y397716D02*
X1093861Y397716D01*
X1093861Y400110D02*
X1088507Y400110D01*
X1088507Y402504D02*
X1093861Y402504D01*
D13*
X947420Y322580D03*
X1112520Y589280D03*
D11*
X1150620Y322580D03*
X1150620Y347980D03*
X1150620Y373380D03*
X1150620Y398780D03*
X1150620Y424180D03*
X1150620Y449580D03*
X1150620Y474980D03*
X1150620Y500380D03*
X1150620Y525780D03*
X1150620Y551180D03*
X1150620Y576580D03*
X1150620Y601980D03*
X947420Y398780D03*
X947420Y424180D03*
X947420Y449580D03*
X947420Y474980D03*
X947420Y500380D03*
X947420Y525780D03*
X947420Y551180D03*
X947420Y576580D03*
X947420Y601980D03*
D12*
X1080379Y519928D02*
X1085733Y519928D01*
X1080379Y519928D02*
X1080379Y531632D01*
X1085733Y531632D01*
X1085733Y519928D01*
X1085733Y522322D02*
X1080379Y522322D01*
X1080379Y524716D02*
X1085733Y524716D01*
X1085733Y527110D02*
X1080379Y527110D01*
X1080379Y529504D02*
X1085733Y529504D01*
X1088507Y519928D02*
X1093861Y519928D01*
X1088507Y519928D02*
X1088507Y531632D01*
X1093861Y531632D01*
X1093861Y519928D01*
X1093861Y522322D02*
X1088507Y522322D01*
X1088507Y524716D02*
X1093861Y524716D01*
X1093861Y527110D02*
X1088507Y527110D01*
X1088507Y529504D02*
X1093861Y529504D01*
D11*
X114300Y867410D03*
D12*
X71511Y892312D02*
X65903Y892312D01*
X71511Y892312D02*
X71511Y880608D01*
X65903Y880608D01*
X65903Y892312D01*
X65903Y883002D02*
X71511Y883002D01*
X71511Y885396D02*
X65903Y885396D01*
X65903Y887790D02*
X71511Y887790D01*
X71511Y890184D02*
X65903Y890184D01*
X61097Y892312D02*
X55489Y892312D01*
X61097Y892312D02*
X61097Y880608D01*
X55489Y880608D01*
X55489Y892312D01*
X55489Y883002D02*
X61097Y883002D01*
X61097Y885396D02*
X55489Y885396D01*
X55489Y887790D02*
X61097Y887790D01*
X61097Y890184D02*
X55489Y890184D01*
X73777Y917712D02*
X79131Y917712D01*
X79131Y906008D01*
X73777Y906008D01*
X73777Y917712D01*
X73777Y908402D02*
X79131Y908402D01*
X79131Y910796D02*
X73777Y910796D01*
X73777Y913190D02*
X79131Y913190D01*
X79131Y915584D02*
X73777Y915584D01*
X71003Y917712D02*
X65649Y917712D01*
X71003Y917712D02*
X71003Y906008D01*
X65649Y906008D01*
X65649Y917712D01*
X65649Y908402D02*
X71003Y908402D01*
X71003Y910796D02*
X65649Y910796D01*
X65649Y913190D02*
X71003Y913190D01*
X71003Y915584D02*
X65649Y915584D01*
X145659Y804408D02*
X151013Y804408D01*
X145659Y804408D02*
X145659Y816112D01*
X151013Y816112D01*
X151013Y804408D01*
X151013Y806802D02*
X145659Y806802D01*
X145659Y809196D02*
X151013Y809196D01*
X151013Y811590D02*
X145659Y811590D01*
X145659Y813984D02*
X151013Y813984D01*
X153787Y804408D02*
X159141Y804408D01*
X153787Y804408D02*
X153787Y816112D01*
X159141Y816112D01*
X159141Y804408D01*
X159141Y806802D02*
X153787Y806802D01*
X153787Y809196D02*
X159141Y809196D01*
X159141Y811590D02*
X153787Y811590D01*
X153787Y813984D02*
X159141Y813984D01*
X151013Y779008D02*
X145659Y779008D01*
X145659Y790712D01*
X151013Y790712D01*
X151013Y779008D01*
X151013Y781402D02*
X145659Y781402D01*
X145659Y783796D02*
X151013Y783796D01*
X151013Y786190D02*
X145659Y786190D01*
X145659Y788584D02*
X151013Y788584D01*
X153787Y779008D02*
X159141Y779008D01*
X153787Y779008D02*
X153787Y790712D01*
X159141Y790712D01*
X159141Y779008D01*
X159141Y781402D02*
X153787Y781402D01*
X153787Y783796D02*
X159141Y783796D01*
X159141Y786190D02*
X153787Y786190D01*
X153787Y788584D02*
X159141Y788584D01*
X151013Y728208D02*
X145659Y728208D01*
X145659Y739912D01*
X151013Y739912D01*
X151013Y728208D01*
X151013Y730602D02*
X145659Y730602D01*
X145659Y732996D02*
X151013Y732996D01*
X151013Y735390D02*
X145659Y735390D01*
X145659Y737784D02*
X151013Y737784D01*
X153787Y728208D02*
X159141Y728208D01*
X153787Y728208D02*
X153787Y739912D01*
X159141Y739912D01*
X159141Y728208D01*
X159141Y730602D02*
X153787Y730602D01*
X153787Y732996D02*
X159141Y732996D01*
X159141Y735390D02*
X153787Y735390D01*
X153787Y737784D02*
X159141Y737784D01*
X151013Y753608D02*
X145659Y753608D01*
X145659Y765312D01*
X151013Y765312D01*
X151013Y753608D01*
X151013Y756002D02*
X145659Y756002D01*
X145659Y758396D02*
X151013Y758396D01*
X151013Y760790D02*
X145659Y760790D01*
X145659Y763184D02*
X151013Y763184D01*
X153787Y753608D02*
X159141Y753608D01*
X153787Y753608D02*
X153787Y765312D01*
X159141Y765312D01*
X159141Y753608D01*
X159141Y756002D02*
X153787Y756002D01*
X153787Y758396D02*
X159141Y758396D01*
X159141Y760790D02*
X153787Y760790D01*
X153787Y763184D02*
X159141Y763184D01*
X151013Y702808D02*
X145659Y702808D01*
X145659Y714512D01*
X151013Y714512D01*
X151013Y702808D01*
X151013Y705202D02*
X145659Y705202D01*
X145659Y707596D02*
X151013Y707596D01*
X151013Y709990D02*
X145659Y709990D01*
X145659Y712384D02*
X151013Y712384D01*
X153787Y702808D02*
X159141Y702808D01*
X153787Y702808D02*
X153787Y714512D01*
X159141Y714512D01*
X159141Y702808D01*
X159141Y705202D02*
X153787Y705202D01*
X153787Y707596D02*
X159141Y707596D01*
X159141Y709990D02*
X153787Y709990D01*
X153787Y712384D02*
X159141Y712384D01*
D13*
X12700Y632460D03*
X177800Y899160D03*
D11*
X215900Y632460D03*
X215900Y657860D03*
X215900Y683260D03*
X215900Y708660D03*
X215900Y734060D03*
X215900Y759460D03*
X215900Y784860D03*
X215900Y810260D03*
X215900Y835660D03*
X215900Y861060D03*
X215900Y886460D03*
X215900Y911860D03*
X12700Y708660D03*
X12700Y734060D03*
X12700Y759460D03*
X12700Y784860D03*
X12700Y810260D03*
X12700Y835660D03*
X12700Y861060D03*
X12700Y886460D03*
X12700Y911860D03*
D12*
X145659Y829808D02*
X151013Y829808D01*
X145659Y829808D02*
X145659Y841512D01*
X151013Y841512D01*
X151013Y829808D01*
X151013Y832202D02*
X145659Y832202D01*
X145659Y834596D02*
X151013Y834596D01*
X151013Y836990D02*
X145659Y836990D01*
X145659Y839384D02*
X151013Y839384D01*
X153787Y829808D02*
X159141Y829808D01*
X153787Y829808D02*
X153787Y841512D01*
X159141Y841512D01*
X159141Y829808D01*
X159141Y832202D02*
X153787Y832202D01*
X153787Y834596D02*
X159141Y834596D01*
X159141Y836990D02*
X153787Y836990D01*
X153787Y839384D02*
X159141Y839384D01*
D11*
X347980Y867410D03*
D12*
X305191Y892312D02*
X299583Y892312D01*
X305191Y892312D02*
X305191Y880608D01*
X299583Y880608D01*
X299583Y892312D01*
X299583Y883002D02*
X305191Y883002D01*
X305191Y885396D02*
X299583Y885396D01*
X299583Y887790D02*
X305191Y887790D01*
X305191Y890184D02*
X299583Y890184D01*
X294777Y892312D02*
X289169Y892312D01*
X294777Y892312D02*
X294777Y880608D01*
X289169Y880608D01*
X289169Y892312D01*
X289169Y883002D02*
X294777Y883002D01*
X294777Y885396D02*
X289169Y885396D01*
X289169Y887790D02*
X294777Y887790D01*
X294777Y890184D02*
X289169Y890184D01*
X307457Y917712D02*
X312811Y917712D01*
X312811Y906008D01*
X307457Y906008D01*
X307457Y917712D01*
X307457Y908402D02*
X312811Y908402D01*
X312811Y910796D02*
X307457Y910796D01*
X307457Y913190D02*
X312811Y913190D01*
X312811Y915584D02*
X307457Y915584D01*
X304683Y917712D02*
X299329Y917712D01*
X304683Y917712D02*
X304683Y906008D01*
X299329Y906008D01*
X299329Y917712D01*
X299329Y908402D02*
X304683Y908402D01*
X304683Y910796D02*
X299329Y910796D01*
X299329Y913190D02*
X304683Y913190D01*
X304683Y915584D02*
X299329Y915584D01*
X379339Y804408D02*
X384693Y804408D01*
X379339Y804408D02*
X379339Y816112D01*
X384693Y816112D01*
X384693Y804408D01*
X384693Y806802D02*
X379339Y806802D01*
X379339Y809196D02*
X384693Y809196D01*
X384693Y811590D02*
X379339Y811590D01*
X379339Y813984D02*
X384693Y813984D01*
X387467Y804408D02*
X392821Y804408D01*
X387467Y804408D02*
X387467Y816112D01*
X392821Y816112D01*
X392821Y804408D01*
X392821Y806802D02*
X387467Y806802D01*
X387467Y809196D02*
X392821Y809196D01*
X392821Y811590D02*
X387467Y811590D01*
X387467Y813984D02*
X392821Y813984D01*
X384693Y779008D02*
X379339Y779008D01*
X379339Y790712D01*
X384693Y790712D01*
X384693Y779008D01*
X384693Y781402D02*
X379339Y781402D01*
X379339Y783796D02*
X384693Y783796D01*
X384693Y786190D02*
X379339Y786190D01*
X379339Y788584D02*
X384693Y788584D01*
X387467Y779008D02*
X392821Y779008D01*
X387467Y779008D02*
X387467Y790712D01*
X392821Y790712D01*
X392821Y779008D01*
X392821Y781402D02*
X387467Y781402D01*
X387467Y783796D02*
X392821Y783796D01*
X392821Y786190D02*
X387467Y786190D01*
X387467Y788584D02*
X392821Y788584D01*
X384693Y728208D02*
X379339Y728208D01*
X379339Y739912D01*
X384693Y739912D01*
X384693Y728208D01*
X384693Y730602D02*
X379339Y730602D01*
X379339Y732996D02*
X384693Y732996D01*
X384693Y735390D02*
X379339Y735390D01*
X379339Y737784D02*
X384693Y737784D01*
X387467Y728208D02*
X392821Y728208D01*
X387467Y728208D02*
X387467Y739912D01*
X392821Y739912D01*
X392821Y728208D01*
X392821Y730602D02*
X387467Y730602D01*
X387467Y732996D02*
X392821Y732996D01*
X392821Y735390D02*
X387467Y735390D01*
X387467Y737784D02*
X392821Y737784D01*
X384693Y753608D02*
X379339Y753608D01*
X379339Y765312D01*
X384693Y765312D01*
X384693Y753608D01*
X384693Y756002D02*
X379339Y756002D01*
X379339Y758396D02*
X384693Y758396D01*
X384693Y760790D02*
X379339Y760790D01*
X379339Y763184D02*
X384693Y763184D01*
X387467Y753608D02*
X392821Y753608D01*
X387467Y753608D02*
X387467Y765312D01*
X392821Y765312D01*
X392821Y753608D01*
X392821Y756002D02*
X387467Y756002D01*
X387467Y758396D02*
X392821Y758396D01*
X392821Y760790D02*
X387467Y760790D01*
X387467Y763184D02*
X392821Y763184D01*
X384693Y702808D02*
X379339Y702808D01*
X379339Y714512D01*
X384693Y714512D01*
X384693Y702808D01*
X384693Y705202D02*
X379339Y705202D01*
X379339Y707596D02*
X384693Y707596D01*
X384693Y709990D02*
X379339Y709990D01*
X379339Y712384D02*
X384693Y712384D01*
X387467Y702808D02*
X392821Y702808D01*
X387467Y702808D02*
X387467Y714512D01*
X392821Y714512D01*
X392821Y702808D01*
X392821Y705202D02*
X387467Y705202D01*
X387467Y707596D02*
X392821Y707596D01*
X392821Y709990D02*
X387467Y709990D01*
X387467Y712384D02*
X392821Y712384D01*
D13*
X246380Y632460D03*
X411480Y899160D03*
D11*
X449580Y632460D03*
X449580Y657860D03*
X449580Y683260D03*
X449580Y708660D03*
X449580Y734060D03*
X449580Y759460D03*
X449580Y784860D03*
X449580Y810260D03*
X449580Y835660D03*
X449580Y861060D03*
X449580Y886460D03*
X449580Y911860D03*
X246380Y708660D03*
X246380Y734060D03*
X246380Y759460D03*
X246380Y784860D03*
X246380Y810260D03*
X246380Y835660D03*
X246380Y861060D03*
X246380Y886460D03*
X246380Y911860D03*
D12*
X379339Y829808D02*
X384693Y829808D01*
X379339Y829808D02*
X379339Y841512D01*
X384693Y841512D01*
X384693Y829808D01*
X384693Y832202D02*
X379339Y832202D01*
X379339Y834596D02*
X384693Y834596D01*
X384693Y836990D02*
X379339Y836990D01*
X379339Y839384D02*
X384693Y839384D01*
X387467Y829808D02*
X392821Y829808D01*
X387467Y829808D02*
X387467Y841512D01*
X392821Y841512D01*
X392821Y829808D01*
X392821Y832202D02*
X387467Y832202D01*
X387467Y834596D02*
X392821Y834596D01*
X392821Y836990D02*
X387467Y836990D01*
X387467Y839384D02*
X392821Y839384D01*
D11*
X581660Y867410D03*
D12*
X538871Y892312D02*
X533263Y892312D01*
X538871Y892312D02*
X538871Y880608D01*
X533263Y880608D01*
X533263Y892312D01*
X533263Y883002D02*
X538871Y883002D01*
X538871Y885396D02*
X533263Y885396D01*
X533263Y887790D02*
X538871Y887790D01*
X538871Y890184D02*
X533263Y890184D01*
X528457Y892312D02*
X522849Y892312D01*
X528457Y892312D02*
X528457Y880608D01*
X522849Y880608D01*
X522849Y892312D01*
X522849Y883002D02*
X528457Y883002D01*
X528457Y885396D02*
X522849Y885396D01*
X522849Y887790D02*
X528457Y887790D01*
X528457Y890184D02*
X522849Y890184D01*
X541137Y917712D02*
X546491Y917712D01*
X546491Y906008D01*
X541137Y906008D01*
X541137Y917712D01*
X541137Y908402D02*
X546491Y908402D01*
X546491Y910796D02*
X541137Y910796D01*
X541137Y913190D02*
X546491Y913190D01*
X546491Y915584D02*
X541137Y915584D01*
X538363Y917712D02*
X533009Y917712D01*
X538363Y917712D02*
X538363Y906008D01*
X533009Y906008D01*
X533009Y917712D01*
X533009Y908402D02*
X538363Y908402D01*
X538363Y910796D02*
X533009Y910796D01*
X533009Y913190D02*
X538363Y913190D01*
X538363Y915584D02*
X533009Y915584D01*
X613019Y804408D02*
X618373Y804408D01*
X613019Y804408D02*
X613019Y816112D01*
X618373Y816112D01*
X618373Y804408D01*
X618373Y806802D02*
X613019Y806802D01*
X613019Y809196D02*
X618373Y809196D01*
X618373Y811590D02*
X613019Y811590D01*
X613019Y813984D02*
X618373Y813984D01*
X621147Y804408D02*
X626501Y804408D01*
X621147Y804408D02*
X621147Y816112D01*
X626501Y816112D01*
X626501Y804408D01*
X626501Y806802D02*
X621147Y806802D01*
X621147Y809196D02*
X626501Y809196D01*
X626501Y811590D02*
X621147Y811590D01*
X621147Y813984D02*
X626501Y813984D01*
X618373Y779008D02*
X613019Y779008D01*
X613019Y790712D01*
X618373Y790712D01*
X618373Y779008D01*
X618373Y781402D02*
X613019Y781402D01*
X613019Y783796D02*
X618373Y783796D01*
X618373Y786190D02*
X613019Y786190D01*
X613019Y788584D02*
X618373Y788584D01*
X621147Y779008D02*
X626501Y779008D01*
X621147Y779008D02*
X621147Y790712D01*
X626501Y790712D01*
X626501Y779008D01*
X626501Y781402D02*
X621147Y781402D01*
X621147Y783796D02*
X626501Y783796D01*
X626501Y786190D02*
X621147Y786190D01*
X621147Y788584D02*
X626501Y788584D01*
X618373Y728208D02*
X613019Y728208D01*
X613019Y739912D01*
X618373Y739912D01*
X618373Y728208D01*
X618373Y730602D02*
X613019Y730602D01*
X613019Y732996D02*
X618373Y732996D01*
X618373Y735390D02*
X613019Y735390D01*
X613019Y737784D02*
X618373Y737784D01*
X621147Y728208D02*
X626501Y728208D01*
X621147Y728208D02*
X621147Y739912D01*
X626501Y739912D01*
X626501Y728208D01*
X626501Y730602D02*
X621147Y730602D01*
X621147Y732996D02*
X626501Y732996D01*
X626501Y735390D02*
X621147Y735390D01*
X621147Y737784D02*
X626501Y737784D01*
X618373Y753608D02*
X613019Y753608D01*
X613019Y765312D01*
X618373Y765312D01*
X618373Y753608D01*
X618373Y756002D02*
X613019Y756002D01*
X613019Y758396D02*
X618373Y758396D01*
X618373Y760790D02*
X613019Y760790D01*
X613019Y763184D02*
X618373Y763184D01*
X621147Y753608D02*
X626501Y753608D01*
X621147Y753608D02*
X621147Y765312D01*
X626501Y765312D01*
X626501Y753608D01*
X626501Y756002D02*
X621147Y756002D01*
X621147Y758396D02*
X626501Y758396D01*
X626501Y760790D02*
X621147Y760790D01*
X621147Y763184D02*
X626501Y763184D01*
X618373Y702808D02*
X613019Y702808D01*
X613019Y714512D01*
X618373Y714512D01*
X618373Y702808D01*
X618373Y705202D02*
X613019Y705202D01*
X613019Y707596D02*
X618373Y707596D01*
X618373Y709990D02*
X613019Y709990D01*
X613019Y712384D02*
X618373Y712384D01*
X621147Y702808D02*
X626501Y702808D01*
X621147Y702808D02*
X621147Y714512D01*
X626501Y714512D01*
X626501Y702808D01*
X626501Y705202D02*
X621147Y705202D01*
X621147Y707596D02*
X626501Y707596D01*
X626501Y709990D02*
X621147Y709990D01*
X621147Y712384D02*
X626501Y712384D01*
D13*
X480060Y632460D03*
X645160Y899160D03*
D11*
X683260Y632460D03*
X683260Y657860D03*
X683260Y683260D03*
X683260Y708660D03*
X683260Y734060D03*
X683260Y759460D03*
X683260Y784860D03*
X683260Y810260D03*
X683260Y835660D03*
X683260Y861060D03*
X683260Y886460D03*
X683260Y911860D03*
X480060Y708660D03*
X480060Y734060D03*
X480060Y759460D03*
X480060Y784860D03*
X480060Y810260D03*
X480060Y835660D03*
X480060Y861060D03*
X480060Y886460D03*
X480060Y911860D03*
D12*
X613019Y829808D02*
X618373Y829808D01*
X613019Y829808D02*
X613019Y841512D01*
X618373Y841512D01*
X618373Y829808D01*
X618373Y832202D02*
X613019Y832202D01*
X613019Y834596D02*
X618373Y834596D01*
X618373Y836990D02*
X613019Y836990D01*
X613019Y839384D02*
X618373Y839384D01*
X621147Y829808D02*
X626501Y829808D01*
X621147Y829808D02*
X621147Y841512D01*
X626501Y841512D01*
X626501Y829808D01*
X626501Y832202D02*
X621147Y832202D01*
X621147Y834596D02*
X626501Y834596D01*
X626501Y836990D02*
X621147Y836990D01*
X621147Y839384D02*
X626501Y839384D01*
D11*
X815340Y867410D03*
D12*
X772551Y892312D02*
X766943Y892312D01*
X772551Y892312D02*
X772551Y880608D01*
X766943Y880608D01*
X766943Y892312D01*
X766943Y883002D02*
X772551Y883002D01*
X772551Y885396D02*
X766943Y885396D01*
X766943Y887790D02*
X772551Y887790D01*
X772551Y890184D02*
X766943Y890184D01*
X762137Y892312D02*
X756529Y892312D01*
X762137Y892312D02*
X762137Y880608D01*
X756529Y880608D01*
X756529Y892312D01*
X756529Y883002D02*
X762137Y883002D01*
X762137Y885396D02*
X756529Y885396D01*
X756529Y887790D02*
X762137Y887790D01*
X762137Y890184D02*
X756529Y890184D01*
X774817Y917712D02*
X780171Y917712D01*
X780171Y906008D01*
X774817Y906008D01*
X774817Y917712D01*
X774817Y908402D02*
X780171Y908402D01*
X780171Y910796D02*
X774817Y910796D01*
X774817Y913190D02*
X780171Y913190D01*
X780171Y915584D02*
X774817Y915584D01*
X772043Y917712D02*
X766689Y917712D01*
X772043Y917712D02*
X772043Y906008D01*
X766689Y906008D01*
X766689Y917712D01*
X766689Y908402D02*
X772043Y908402D01*
X772043Y910796D02*
X766689Y910796D01*
X766689Y913190D02*
X772043Y913190D01*
X772043Y915584D02*
X766689Y915584D01*
X846699Y804408D02*
X852053Y804408D01*
X846699Y804408D02*
X846699Y816112D01*
X852053Y816112D01*
X852053Y804408D01*
X852053Y806802D02*
X846699Y806802D01*
X846699Y809196D02*
X852053Y809196D01*
X852053Y811590D02*
X846699Y811590D01*
X846699Y813984D02*
X852053Y813984D01*
X854827Y804408D02*
X860181Y804408D01*
X854827Y804408D02*
X854827Y816112D01*
X860181Y816112D01*
X860181Y804408D01*
X860181Y806802D02*
X854827Y806802D01*
X854827Y809196D02*
X860181Y809196D01*
X860181Y811590D02*
X854827Y811590D01*
X854827Y813984D02*
X860181Y813984D01*
X852053Y779008D02*
X846699Y779008D01*
X846699Y790712D01*
X852053Y790712D01*
X852053Y779008D01*
X852053Y781402D02*
X846699Y781402D01*
X846699Y783796D02*
X852053Y783796D01*
X852053Y786190D02*
X846699Y786190D01*
X846699Y788584D02*
X852053Y788584D01*
X854827Y779008D02*
X860181Y779008D01*
X854827Y779008D02*
X854827Y790712D01*
X860181Y790712D01*
X860181Y779008D01*
X860181Y781402D02*
X854827Y781402D01*
X854827Y783796D02*
X860181Y783796D01*
X860181Y786190D02*
X854827Y786190D01*
X854827Y788584D02*
X860181Y788584D01*
X852053Y728208D02*
X846699Y728208D01*
X846699Y739912D01*
X852053Y739912D01*
X852053Y728208D01*
X852053Y730602D02*
X846699Y730602D01*
X846699Y732996D02*
X852053Y732996D01*
X852053Y735390D02*
X846699Y735390D01*
X846699Y737784D02*
X852053Y737784D01*
X854827Y728208D02*
X860181Y728208D01*
X854827Y728208D02*
X854827Y739912D01*
X860181Y739912D01*
X860181Y728208D01*
X860181Y730602D02*
X854827Y730602D01*
X854827Y732996D02*
X860181Y732996D01*
X860181Y735390D02*
X854827Y735390D01*
X854827Y737784D02*
X860181Y737784D01*
X852053Y753608D02*
X846699Y753608D01*
X846699Y765312D01*
X852053Y765312D01*
X852053Y753608D01*
X852053Y756002D02*
X846699Y756002D01*
X846699Y758396D02*
X852053Y758396D01*
X852053Y760790D02*
X846699Y760790D01*
X846699Y763184D02*
X852053Y763184D01*
X854827Y753608D02*
X860181Y753608D01*
X854827Y753608D02*
X854827Y765312D01*
X860181Y765312D01*
X860181Y753608D01*
X860181Y756002D02*
X854827Y756002D01*
X854827Y758396D02*
X860181Y758396D01*
X860181Y760790D02*
X854827Y760790D01*
X854827Y763184D02*
X860181Y763184D01*
X852053Y702808D02*
X846699Y702808D01*
X846699Y714512D01*
X852053Y714512D01*
X852053Y702808D01*
X852053Y705202D02*
X846699Y705202D01*
X846699Y707596D02*
X852053Y707596D01*
X852053Y709990D02*
X846699Y709990D01*
X846699Y712384D02*
X852053Y712384D01*
X854827Y702808D02*
X860181Y702808D01*
X854827Y702808D02*
X854827Y714512D01*
X860181Y714512D01*
X860181Y702808D01*
X860181Y705202D02*
X854827Y705202D01*
X854827Y707596D02*
X860181Y707596D01*
X860181Y709990D02*
X854827Y709990D01*
X854827Y712384D02*
X860181Y712384D01*
D13*
X713740Y632460D03*
X878840Y899160D03*
D11*
X916940Y632460D03*
X916940Y657860D03*
X916940Y683260D03*
X916940Y708660D03*
X916940Y734060D03*
X916940Y759460D03*
X916940Y784860D03*
X916940Y810260D03*
X916940Y835660D03*
X916940Y861060D03*
X916940Y886460D03*
X916940Y911860D03*
X713740Y708660D03*
X713740Y734060D03*
X713740Y759460D03*
X713740Y784860D03*
X713740Y810260D03*
X713740Y835660D03*
X713740Y861060D03*
X713740Y886460D03*
X713740Y911860D03*
D12*
X846699Y829808D02*
X852053Y829808D01*
X846699Y829808D02*
X846699Y841512D01*
X852053Y841512D01*
X852053Y829808D01*
X852053Y832202D02*
X846699Y832202D01*
X846699Y834596D02*
X852053Y834596D01*
X852053Y836990D02*
X846699Y836990D01*
X846699Y839384D02*
X852053Y839384D01*
X854827Y829808D02*
X860181Y829808D01*
X854827Y829808D02*
X854827Y841512D01*
X860181Y841512D01*
X860181Y829808D01*
X860181Y832202D02*
X854827Y832202D01*
X854827Y834596D02*
X860181Y834596D01*
X860181Y836990D02*
X854827Y836990D01*
X854827Y839384D02*
X860181Y839384D01*
D11*
X1049020Y867410D03*
D12*
X1006231Y892312D02*
X1000623Y892312D01*
X1006231Y892312D02*
X1006231Y880608D01*
X1000623Y880608D01*
X1000623Y892312D01*
X1000623Y883002D02*
X1006231Y883002D01*
X1006231Y885396D02*
X1000623Y885396D01*
X1000623Y887790D02*
X1006231Y887790D01*
X1006231Y890184D02*
X1000623Y890184D01*
X995817Y892312D02*
X990209Y892312D01*
X995817Y892312D02*
X995817Y880608D01*
X990209Y880608D01*
X990209Y892312D01*
X990209Y883002D02*
X995817Y883002D01*
X995817Y885396D02*
X990209Y885396D01*
X990209Y887790D02*
X995817Y887790D01*
X995817Y890184D02*
X990209Y890184D01*
X1008497Y917712D02*
X1013851Y917712D01*
X1013851Y906008D01*
X1008497Y906008D01*
X1008497Y917712D01*
X1008497Y908402D02*
X1013851Y908402D01*
X1013851Y910796D02*
X1008497Y910796D01*
X1008497Y913190D02*
X1013851Y913190D01*
X1013851Y915584D02*
X1008497Y915584D01*
X1005723Y917712D02*
X1000369Y917712D01*
X1005723Y917712D02*
X1005723Y906008D01*
X1000369Y906008D01*
X1000369Y917712D01*
X1000369Y908402D02*
X1005723Y908402D01*
X1005723Y910796D02*
X1000369Y910796D01*
X1000369Y913190D02*
X1005723Y913190D01*
X1005723Y915584D02*
X1000369Y915584D01*
X1080379Y804408D02*
X1085733Y804408D01*
X1080379Y804408D02*
X1080379Y816112D01*
X1085733Y816112D01*
X1085733Y804408D01*
X1085733Y806802D02*
X1080379Y806802D01*
X1080379Y809196D02*
X1085733Y809196D01*
X1085733Y811590D02*
X1080379Y811590D01*
X1080379Y813984D02*
X1085733Y813984D01*
X1088507Y804408D02*
X1093861Y804408D01*
X1088507Y804408D02*
X1088507Y816112D01*
X1093861Y816112D01*
X1093861Y804408D01*
X1093861Y806802D02*
X1088507Y806802D01*
X1088507Y809196D02*
X1093861Y809196D01*
X1093861Y811590D02*
X1088507Y811590D01*
X1088507Y813984D02*
X1093861Y813984D01*
X1085733Y779008D02*
X1080379Y779008D01*
X1080379Y790712D01*
X1085733Y790712D01*
X1085733Y779008D01*
X1085733Y781402D02*
X1080379Y781402D01*
X1080379Y783796D02*
X1085733Y783796D01*
X1085733Y786190D02*
X1080379Y786190D01*
X1080379Y788584D02*
X1085733Y788584D01*
X1088507Y779008D02*
X1093861Y779008D01*
X1088507Y779008D02*
X1088507Y790712D01*
X1093861Y790712D01*
X1093861Y779008D01*
X1093861Y781402D02*
X1088507Y781402D01*
X1088507Y783796D02*
X1093861Y783796D01*
X1093861Y786190D02*
X1088507Y786190D01*
X1088507Y788584D02*
X1093861Y788584D01*
X1085733Y728208D02*
X1080379Y728208D01*
X1080379Y739912D01*
X1085733Y739912D01*
X1085733Y728208D01*
X1085733Y730602D02*
X1080379Y730602D01*
X1080379Y732996D02*
X1085733Y732996D01*
X1085733Y735390D02*
X1080379Y735390D01*
X1080379Y737784D02*
X1085733Y737784D01*
X1088507Y728208D02*
X1093861Y728208D01*
X1088507Y728208D02*
X1088507Y739912D01*
X1093861Y739912D01*
X1093861Y728208D01*
X1093861Y730602D02*
X1088507Y730602D01*
X1088507Y732996D02*
X1093861Y732996D01*
X1093861Y735390D02*
X1088507Y735390D01*
X1088507Y737784D02*
X1093861Y737784D01*
X1085733Y753608D02*
X1080379Y753608D01*
X1080379Y765312D01*
X1085733Y765312D01*
X1085733Y753608D01*
X1085733Y756002D02*
X1080379Y756002D01*
X1080379Y758396D02*
X1085733Y758396D01*
X1085733Y760790D02*
X1080379Y760790D01*
X1080379Y763184D02*
X1085733Y763184D01*
X1088507Y753608D02*
X1093861Y753608D01*
X1088507Y753608D02*
X1088507Y765312D01*
X1093861Y765312D01*
X1093861Y753608D01*
X1093861Y756002D02*
X1088507Y756002D01*
X1088507Y758396D02*
X1093861Y758396D01*
X1093861Y760790D02*
X1088507Y760790D01*
X1088507Y763184D02*
X1093861Y763184D01*
X1085733Y702808D02*
X1080379Y702808D01*
X1080379Y714512D01*
X1085733Y714512D01*
X1085733Y702808D01*
X1085733Y705202D02*
X1080379Y705202D01*
X1080379Y707596D02*
X1085733Y707596D01*
X1085733Y709990D02*
X1080379Y709990D01*
X1080379Y712384D02*
X1085733Y712384D01*
X1088507Y702808D02*
X1093861Y702808D01*
X1088507Y702808D02*
X1088507Y714512D01*
X1093861Y714512D01*
X1093861Y702808D01*
X1093861Y705202D02*
X1088507Y705202D01*
X1088507Y707596D02*
X1093861Y707596D01*
X1093861Y709990D02*
X1088507Y709990D01*
X1088507Y712384D02*
X1093861Y712384D01*
D13*
X947420Y632460D03*
X1112520Y899160D03*
D11*
X1150620Y632460D03*
X1150620Y657860D03*
X1150620Y683260D03*
X1150620Y708660D03*
X1150620Y734060D03*
X1150620Y759460D03*
X1150620Y784860D03*
X1150620Y810260D03*
X1150620Y835660D03*
X1150620Y861060D03*
X1150620Y886460D03*
X1150620Y911860D03*
X947420Y708660D03*
X947420Y734060D03*
X947420Y759460D03*
X947420Y784860D03*
X947420Y810260D03*
X947420Y835660D03*
X947420Y861060D03*
X947420Y886460D03*
X947420Y911860D03*
D12*
X1080379Y829808D02*
X1085733Y829808D01*
X1080379Y829808D02*
X1080379Y841512D01*
X1085733Y841512D01*
X1085733Y829808D01*
X1085733Y832202D02*
X1080379Y832202D01*
X1080379Y834596D02*
X1085733Y834596D01*
X1085733Y836990D02*
X1080379Y836990D01*
X1080379Y839384D02*
X1085733Y839384D01*
X1088507Y829808D02*
X1093861Y829808D01*
X1088507Y829808D02*
X1088507Y841512D01*
X1093861Y841512D01*
X1093861Y829808D01*
X1093861Y832202D02*
X1088507Y832202D01*
X1088507Y834596D02*
X1093861Y834596D01*
X1093861Y836990D02*
X1088507Y836990D01*
X1088507Y839384D02*
X1093861Y839384D01*
D11*
X114300Y1177290D03*
D12*
X71511Y1202192D02*
X65903Y1202192D01*
X71511Y1202192D02*
X71511Y1190488D01*
X65903Y1190488D01*
X65903Y1202192D01*
X65903Y1192882D02*
X71511Y1192882D01*
X71511Y1195276D02*
X65903Y1195276D01*
X65903Y1197670D02*
X71511Y1197670D01*
X71511Y1200064D02*
X65903Y1200064D01*
X61097Y1202192D02*
X55489Y1202192D01*
X61097Y1202192D02*
X61097Y1190488D01*
X55489Y1190488D01*
X55489Y1202192D01*
X55489Y1192882D02*
X61097Y1192882D01*
X61097Y1195276D02*
X55489Y1195276D01*
X55489Y1197670D02*
X61097Y1197670D01*
X61097Y1200064D02*
X55489Y1200064D01*
X73777Y1227592D02*
X79131Y1227592D01*
X79131Y1215888D01*
X73777Y1215888D01*
X73777Y1227592D01*
X73777Y1218282D02*
X79131Y1218282D01*
X79131Y1220676D02*
X73777Y1220676D01*
X73777Y1223070D02*
X79131Y1223070D01*
X79131Y1225464D02*
X73777Y1225464D01*
X71003Y1227592D02*
X65649Y1227592D01*
X71003Y1227592D02*
X71003Y1215888D01*
X65649Y1215888D01*
X65649Y1227592D01*
X65649Y1218282D02*
X71003Y1218282D01*
X71003Y1220676D02*
X65649Y1220676D01*
X65649Y1223070D02*
X71003Y1223070D01*
X71003Y1225464D02*
X65649Y1225464D01*
X145659Y1114288D02*
X151013Y1114288D01*
X145659Y1114288D02*
X145659Y1125992D01*
X151013Y1125992D01*
X151013Y1114288D01*
X151013Y1116682D02*
X145659Y1116682D01*
X145659Y1119076D02*
X151013Y1119076D01*
X151013Y1121470D02*
X145659Y1121470D01*
X145659Y1123864D02*
X151013Y1123864D01*
X153787Y1114288D02*
X159141Y1114288D01*
X153787Y1114288D02*
X153787Y1125992D01*
X159141Y1125992D01*
X159141Y1114288D01*
X159141Y1116682D02*
X153787Y1116682D01*
X153787Y1119076D02*
X159141Y1119076D01*
X159141Y1121470D02*
X153787Y1121470D01*
X153787Y1123864D02*
X159141Y1123864D01*
X151013Y1088888D02*
X145659Y1088888D01*
X145659Y1100592D01*
X151013Y1100592D01*
X151013Y1088888D01*
X151013Y1091282D02*
X145659Y1091282D01*
X145659Y1093676D02*
X151013Y1093676D01*
X151013Y1096070D02*
X145659Y1096070D01*
X145659Y1098464D02*
X151013Y1098464D01*
X153787Y1088888D02*
X159141Y1088888D01*
X153787Y1088888D02*
X153787Y1100592D01*
X159141Y1100592D01*
X159141Y1088888D01*
X159141Y1091282D02*
X153787Y1091282D01*
X153787Y1093676D02*
X159141Y1093676D01*
X159141Y1096070D02*
X153787Y1096070D01*
X153787Y1098464D02*
X159141Y1098464D01*
X151013Y1038088D02*
X145659Y1038088D01*
X145659Y1049792D01*
X151013Y1049792D01*
X151013Y1038088D01*
X151013Y1040482D02*
X145659Y1040482D01*
X145659Y1042876D02*
X151013Y1042876D01*
X151013Y1045270D02*
X145659Y1045270D01*
X145659Y1047664D02*
X151013Y1047664D01*
X153787Y1038088D02*
X159141Y1038088D01*
X153787Y1038088D02*
X153787Y1049792D01*
X159141Y1049792D01*
X159141Y1038088D01*
X159141Y1040482D02*
X153787Y1040482D01*
X153787Y1042876D02*
X159141Y1042876D01*
X159141Y1045270D02*
X153787Y1045270D01*
X153787Y1047664D02*
X159141Y1047664D01*
X151013Y1063488D02*
X145659Y1063488D01*
X145659Y1075192D01*
X151013Y1075192D01*
X151013Y1063488D01*
X151013Y1065882D02*
X145659Y1065882D01*
X145659Y1068276D02*
X151013Y1068276D01*
X151013Y1070670D02*
X145659Y1070670D01*
X145659Y1073064D02*
X151013Y1073064D01*
X153787Y1063488D02*
X159141Y1063488D01*
X153787Y1063488D02*
X153787Y1075192D01*
X159141Y1075192D01*
X159141Y1063488D01*
X159141Y1065882D02*
X153787Y1065882D01*
X153787Y1068276D02*
X159141Y1068276D01*
X159141Y1070670D02*
X153787Y1070670D01*
X153787Y1073064D02*
X159141Y1073064D01*
X151013Y1012688D02*
X145659Y1012688D01*
X145659Y1024392D01*
X151013Y1024392D01*
X151013Y1012688D01*
X151013Y1015082D02*
X145659Y1015082D01*
X145659Y1017476D02*
X151013Y1017476D01*
X151013Y1019870D02*
X145659Y1019870D01*
X145659Y1022264D02*
X151013Y1022264D01*
X153787Y1012688D02*
X159141Y1012688D01*
X153787Y1012688D02*
X153787Y1024392D01*
X159141Y1024392D01*
X159141Y1012688D01*
X159141Y1015082D02*
X153787Y1015082D01*
X153787Y1017476D02*
X159141Y1017476D01*
X159141Y1019870D02*
X153787Y1019870D01*
X153787Y1022264D02*
X159141Y1022264D01*
D13*
X12700Y942340D03*
X177800Y1209040D03*
D11*
X215900Y942340D03*
X215900Y967740D03*
X215900Y993140D03*
X215900Y1018540D03*
X215900Y1043940D03*
X215900Y1069340D03*
X215900Y1094740D03*
X215900Y1120140D03*
X215900Y1145540D03*
X215900Y1170940D03*
X215900Y1196340D03*
X215900Y1221740D03*
X12700Y1018540D03*
X12700Y1043940D03*
X12700Y1069340D03*
X12700Y1094740D03*
X12700Y1120140D03*
X12700Y1145540D03*
X12700Y1170940D03*
X12700Y1196340D03*
X12700Y1221740D03*
D12*
X145659Y1139688D02*
X151013Y1139688D01*
X145659Y1139688D02*
X145659Y1151392D01*
X151013Y1151392D01*
X151013Y1139688D01*
X151013Y1142082D02*
X145659Y1142082D01*
X145659Y1144476D02*
X151013Y1144476D01*
X151013Y1146870D02*
X145659Y1146870D01*
X145659Y1149264D02*
X151013Y1149264D01*
X153787Y1139688D02*
X159141Y1139688D01*
X153787Y1139688D02*
X153787Y1151392D01*
X159141Y1151392D01*
X159141Y1139688D01*
X159141Y1142082D02*
X153787Y1142082D01*
X153787Y1144476D02*
X159141Y1144476D01*
X159141Y1146870D02*
X153787Y1146870D01*
X153787Y1149264D02*
X159141Y1149264D01*
D11*
X347980Y1177290D03*
D12*
X305191Y1202192D02*
X299583Y1202192D01*
X305191Y1202192D02*
X305191Y1190488D01*
X299583Y1190488D01*
X299583Y1202192D01*
X299583Y1192882D02*
X305191Y1192882D01*
X305191Y1195276D02*
X299583Y1195276D01*
X299583Y1197670D02*
X305191Y1197670D01*
X305191Y1200064D02*
X299583Y1200064D01*
X294777Y1202192D02*
X289169Y1202192D01*
X294777Y1202192D02*
X294777Y1190488D01*
X289169Y1190488D01*
X289169Y1202192D01*
X289169Y1192882D02*
X294777Y1192882D01*
X294777Y1195276D02*
X289169Y1195276D01*
X289169Y1197670D02*
X294777Y1197670D01*
X294777Y1200064D02*
X289169Y1200064D01*
X307457Y1227592D02*
X312811Y1227592D01*
X312811Y1215888D01*
X307457Y1215888D01*
X307457Y1227592D01*
X307457Y1218282D02*
X312811Y1218282D01*
X312811Y1220676D02*
X307457Y1220676D01*
X307457Y1223070D02*
X312811Y1223070D01*
X312811Y1225464D02*
X307457Y1225464D01*
X304683Y1227592D02*
X299329Y1227592D01*
X304683Y1227592D02*
X304683Y1215888D01*
X299329Y1215888D01*
X299329Y1227592D01*
X299329Y1218282D02*
X304683Y1218282D01*
X304683Y1220676D02*
X299329Y1220676D01*
X299329Y1223070D02*
X304683Y1223070D01*
X304683Y1225464D02*
X299329Y1225464D01*
X379339Y1114288D02*
X384693Y1114288D01*
X379339Y1114288D02*
X379339Y1125992D01*
X384693Y1125992D01*
X384693Y1114288D01*
X384693Y1116682D02*
X379339Y1116682D01*
X379339Y1119076D02*
X384693Y1119076D01*
X384693Y1121470D02*
X379339Y1121470D01*
X379339Y1123864D02*
X384693Y1123864D01*
X387467Y1114288D02*
X392821Y1114288D01*
X387467Y1114288D02*
X387467Y1125992D01*
X392821Y1125992D01*
X392821Y1114288D01*
X392821Y1116682D02*
X387467Y1116682D01*
X387467Y1119076D02*
X392821Y1119076D01*
X392821Y1121470D02*
X387467Y1121470D01*
X387467Y1123864D02*
X392821Y1123864D01*
X384693Y1088888D02*
X379339Y1088888D01*
X379339Y1100592D01*
X384693Y1100592D01*
X384693Y1088888D01*
X384693Y1091282D02*
X379339Y1091282D01*
X379339Y1093676D02*
X384693Y1093676D01*
X384693Y1096070D02*
X379339Y1096070D01*
X379339Y1098464D02*
X384693Y1098464D01*
X387467Y1088888D02*
X392821Y1088888D01*
X387467Y1088888D02*
X387467Y1100592D01*
X392821Y1100592D01*
X392821Y1088888D01*
X392821Y1091282D02*
X387467Y1091282D01*
X387467Y1093676D02*
X392821Y1093676D01*
X392821Y1096070D02*
X387467Y1096070D01*
X387467Y1098464D02*
X392821Y1098464D01*
X384693Y1038088D02*
X379339Y1038088D01*
X379339Y1049792D01*
X384693Y1049792D01*
X384693Y1038088D01*
X384693Y1040482D02*
X379339Y1040482D01*
X379339Y1042876D02*
X384693Y1042876D01*
X384693Y1045270D02*
X379339Y1045270D01*
X379339Y1047664D02*
X384693Y1047664D01*
X387467Y1038088D02*
X392821Y1038088D01*
X387467Y1038088D02*
X387467Y1049792D01*
X392821Y1049792D01*
X392821Y1038088D01*
X392821Y1040482D02*
X387467Y1040482D01*
X387467Y1042876D02*
X392821Y1042876D01*
X392821Y1045270D02*
X387467Y1045270D01*
X387467Y1047664D02*
X392821Y1047664D01*
X384693Y1063488D02*
X379339Y1063488D01*
X379339Y1075192D01*
X384693Y1075192D01*
X384693Y1063488D01*
X384693Y1065882D02*
X379339Y1065882D01*
X379339Y1068276D02*
X384693Y1068276D01*
X384693Y1070670D02*
X379339Y1070670D01*
X379339Y1073064D02*
X384693Y1073064D01*
X387467Y1063488D02*
X392821Y1063488D01*
X387467Y1063488D02*
X387467Y1075192D01*
X392821Y1075192D01*
X392821Y1063488D01*
X392821Y1065882D02*
X387467Y1065882D01*
X387467Y1068276D02*
X392821Y1068276D01*
X392821Y1070670D02*
X387467Y1070670D01*
X387467Y1073064D02*
X392821Y1073064D01*
X384693Y1012688D02*
X379339Y1012688D01*
X379339Y1024392D01*
X384693Y1024392D01*
X384693Y1012688D01*
X384693Y1015082D02*
X379339Y1015082D01*
X379339Y1017476D02*
X384693Y1017476D01*
X384693Y1019870D02*
X379339Y1019870D01*
X379339Y1022264D02*
X384693Y1022264D01*
X387467Y1012688D02*
X392821Y1012688D01*
X387467Y1012688D02*
X387467Y1024392D01*
X392821Y1024392D01*
X392821Y1012688D01*
X392821Y1015082D02*
X387467Y1015082D01*
X387467Y1017476D02*
X392821Y1017476D01*
X392821Y1019870D02*
X387467Y1019870D01*
X387467Y1022264D02*
X392821Y1022264D01*
D13*
X246380Y942340D03*
X411480Y1209040D03*
D11*
X449580Y942340D03*
X449580Y967740D03*
X449580Y993140D03*
X449580Y1018540D03*
X449580Y1043940D03*
X449580Y1069340D03*
X449580Y1094740D03*
X449580Y1120140D03*
X449580Y1145540D03*
X449580Y1170940D03*
X449580Y1196340D03*
X449580Y1221740D03*
X246380Y1018540D03*
X246380Y1043940D03*
X246380Y1069340D03*
X246380Y1094740D03*
X246380Y1120140D03*
X246380Y1145540D03*
X246380Y1170940D03*
X246380Y1196340D03*
X246380Y1221740D03*
D12*
X379339Y1139688D02*
X384693Y1139688D01*
X379339Y1139688D02*
X379339Y1151392D01*
X384693Y1151392D01*
X384693Y1139688D01*
X384693Y1142082D02*
X379339Y1142082D01*
X379339Y1144476D02*
X384693Y1144476D01*
X384693Y1146870D02*
X379339Y1146870D01*
X379339Y1149264D02*
X384693Y1149264D01*
X387467Y1139688D02*
X392821Y1139688D01*
X387467Y1139688D02*
X387467Y1151392D01*
X392821Y1151392D01*
X392821Y1139688D01*
X392821Y1142082D02*
X387467Y1142082D01*
X387467Y1144476D02*
X392821Y1144476D01*
X392821Y1146870D02*
X387467Y1146870D01*
X387467Y1149264D02*
X392821Y1149264D01*
D11*
X581660Y1177290D03*
D12*
X538871Y1202192D02*
X533263Y1202192D01*
X538871Y1202192D02*
X538871Y1190488D01*
X533263Y1190488D01*
X533263Y1202192D01*
X533263Y1192882D02*
X538871Y1192882D01*
X538871Y1195276D02*
X533263Y1195276D01*
X533263Y1197670D02*
X538871Y1197670D01*
X538871Y1200064D02*
X533263Y1200064D01*
X528457Y1202192D02*
X522849Y1202192D01*
X528457Y1202192D02*
X528457Y1190488D01*
X522849Y1190488D01*
X522849Y1202192D01*
X522849Y1192882D02*
X528457Y1192882D01*
X528457Y1195276D02*
X522849Y1195276D01*
X522849Y1197670D02*
X528457Y1197670D01*
X528457Y1200064D02*
X522849Y1200064D01*
X541137Y1227592D02*
X546491Y1227592D01*
X546491Y1215888D01*
X541137Y1215888D01*
X541137Y1227592D01*
X541137Y1218282D02*
X546491Y1218282D01*
X546491Y1220676D02*
X541137Y1220676D01*
X541137Y1223070D02*
X546491Y1223070D01*
X546491Y1225464D02*
X541137Y1225464D01*
X538363Y1227592D02*
X533009Y1227592D01*
X538363Y1227592D02*
X538363Y1215888D01*
X533009Y1215888D01*
X533009Y1227592D01*
X533009Y1218282D02*
X538363Y1218282D01*
X538363Y1220676D02*
X533009Y1220676D01*
X533009Y1223070D02*
X538363Y1223070D01*
X538363Y1225464D02*
X533009Y1225464D01*
X613019Y1114288D02*
X618373Y1114288D01*
X613019Y1114288D02*
X613019Y1125992D01*
X618373Y1125992D01*
X618373Y1114288D01*
X618373Y1116682D02*
X613019Y1116682D01*
X613019Y1119076D02*
X618373Y1119076D01*
X618373Y1121470D02*
X613019Y1121470D01*
X613019Y1123864D02*
X618373Y1123864D01*
X621147Y1114288D02*
X626501Y1114288D01*
X621147Y1114288D02*
X621147Y1125992D01*
X626501Y1125992D01*
X626501Y1114288D01*
X626501Y1116682D02*
X621147Y1116682D01*
X621147Y1119076D02*
X626501Y1119076D01*
X626501Y1121470D02*
X621147Y1121470D01*
X621147Y1123864D02*
X626501Y1123864D01*
X618373Y1088888D02*
X613019Y1088888D01*
X613019Y1100592D01*
X618373Y1100592D01*
X618373Y1088888D01*
X618373Y1091282D02*
X613019Y1091282D01*
X613019Y1093676D02*
X618373Y1093676D01*
X618373Y1096070D02*
X613019Y1096070D01*
X613019Y1098464D02*
X618373Y1098464D01*
X621147Y1088888D02*
X626501Y1088888D01*
X621147Y1088888D02*
X621147Y1100592D01*
X626501Y1100592D01*
X626501Y1088888D01*
X626501Y1091282D02*
X621147Y1091282D01*
X621147Y1093676D02*
X626501Y1093676D01*
X626501Y1096070D02*
X621147Y1096070D01*
X621147Y1098464D02*
X626501Y1098464D01*
X618373Y1038088D02*
X613019Y1038088D01*
X613019Y1049792D01*
X618373Y1049792D01*
X618373Y1038088D01*
X618373Y1040482D02*
X613019Y1040482D01*
X613019Y1042876D02*
X618373Y1042876D01*
X618373Y1045270D02*
X613019Y1045270D01*
X613019Y1047664D02*
X618373Y1047664D01*
X621147Y1038088D02*
X626501Y1038088D01*
X621147Y1038088D02*
X621147Y1049792D01*
X626501Y1049792D01*
X626501Y1038088D01*
X626501Y1040482D02*
X621147Y1040482D01*
X621147Y1042876D02*
X626501Y1042876D01*
X626501Y1045270D02*
X621147Y1045270D01*
X621147Y1047664D02*
X626501Y1047664D01*
X618373Y1063488D02*
X613019Y1063488D01*
X613019Y1075192D01*
X618373Y1075192D01*
X618373Y1063488D01*
X618373Y1065882D02*
X613019Y1065882D01*
X613019Y1068276D02*
X618373Y1068276D01*
X618373Y1070670D02*
X613019Y1070670D01*
X613019Y1073064D02*
X618373Y1073064D01*
X621147Y1063488D02*
X626501Y1063488D01*
X621147Y1063488D02*
X621147Y1075192D01*
X626501Y1075192D01*
X626501Y1063488D01*
X626501Y1065882D02*
X621147Y1065882D01*
X621147Y1068276D02*
X626501Y1068276D01*
X626501Y1070670D02*
X621147Y1070670D01*
X621147Y1073064D02*
X626501Y1073064D01*
X618373Y1012688D02*
X613019Y1012688D01*
X613019Y1024392D01*
X618373Y1024392D01*
X618373Y1012688D01*
X618373Y1015082D02*
X613019Y1015082D01*
X613019Y1017476D02*
X618373Y1017476D01*
X618373Y1019870D02*
X613019Y1019870D01*
X613019Y1022264D02*
X618373Y1022264D01*
X621147Y1012688D02*
X626501Y1012688D01*
X621147Y1012688D02*
X621147Y1024392D01*
X626501Y1024392D01*
X626501Y1012688D01*
X626501Y1015082D02*
X621147Y1015082D01*
X621147Y1017476D02*
X626501Y1017476D01*
X626501Y1019870D02*
X621147Y1019870D01*
X621147Y1022264D02*
X626501Y1022264D01*
D13*
X480060Y942340D03*
X645160Y1209040D03*
D11*
X683260Y942340D03*
X683260Y967740D03*
X683260Y993140D03*
X683260Y1018540D03*
X683260Y1043940D03*
X683260Y1069340D03*
X683260Y1094740D03*
X683260Y1120140D03*
X683260Y1145540D03*
X683260Y1170940D03*
X683260Y1196340D03*
X683260Y1221740D03*
X480060Y1018540D03*
X480060Y1043940D03*
X480060Y1069340D03*
X480060Y1094740D03*
X480060Y1120140D03*
X480060Y1145540D03*
X480060Y1170940D03*
X480060Y1196340D03*
X480060Y1221740D03*
D12*
X613019Y1139688D02*
X618373Y1139688D01*
X613019Y1139688D02*
X613019Y1151392D01*
X618373Y1151392D01*
X618373Y1139688D01*
X618373Y1142082D02*
X613019Y1142082D01*
X613019Y1144476D02*
X618373Y1144476D01*
X618373Y1146870D02*
X613019Y1146870D01*
X613019Y1149264D02*
X618373Y1149264D01*
X621147Y1139688D02*
X626501Y1139688D01*
X621147Y1139688D02*
X621147Y1151392D01*
X626501Y1151392D01*
X626501Y1139688D01*
X626501Y1142082D02*
X621147Y1142082D01*
X621147Y1144476D02*
X626501Y1144476D01*
X626501Y1146870D02*
X621147Y1146870D01*
X621147Y1149264D02*
X626501Y1149264D01*
D11*
X815340Y1177290D03*
D12*
X772551Y1202192D02*
X766943Y1202192D01*
X772551Y1202192D02*
X772551Y1190488D01*
X766943Y1190488D01*
X766943Y1202192D01*
X766943Y1192882D02*
X772551Y1192882D01*
X772551Y1195276D02*
X766943Y1195276D01*
X766943Y1197670D02*
X772551Y1197670D01*
X772551Y1200064D02*
X766943Y1200064D01*
X762137Y1202192D02*
X756529Y1202192D01*
X762137Y1202192D02*
X762137Y1190488D01*
X756529Y1190488D01*
X756529Y1202192D01*
X756529Y1192882D02*
X762137Y1192882D01*
X762137Y1195276D02*
X756529Y1195276D01*
X756529Y1197670D02*
X762137Y1197670D01*
X762137Y1200064D02*
X756529Y1200064D01*
X774817Y1227592D02*
X780171Y1227592D01*
X780171Y1215888D01*
X774817Y1215888D01*
X774817Y1227592D01*
X774817Y1218282D02*
X780171Y1218282D01*
X780171Y1220676D02*
X774817Y1220676D01*
X774817Y1223070D02*
X780171Y1223070D01*
X780171Y1225464D02*
X774817Y1225464D01*
X772043Y1227592D02*
X766689Y1227592D01*
X772043Y1227592D02*
X772043Y1215888D01*
X766689Y1215888D01*
X766689Y1227592D01*
X766689Y1218282D02*
X772043Y1218282D01*
X772043Y1220676D02*
X766689Y1220676D01*
X766689Y1223070D02*
X772043Y1223070D01*
X772043Y1225464D02*
X766689Y1225464D01*
X846699Y1114288D02*
X852053Y1114288D01*
X846699Y1114288D02*
X846699Y1125992D01*
X852053Y1125992D01*
X852053Y1114288D01*
X852053Y1116682D02*
X846699Y1116682D01*
X846699Y1119076D02*
X852053Y1119076D01*
X852053Y1121470D02*
X846699Y1121470D01*
X846699Y1123864D02*
X852053Y1123864D01*
X854827Y1114288D02*
X860181Y1114288D01*
X854827Y1114288D02*
X854827Y1125992D01*
X860181Y1125992D01*
X860181Y1114288D01*
X860181Y1116682D02*
X854827Y1116682D01*
X854827Y1119076D02*
X860181Y1119076D01*
X860181Y1121470D02*
X854827Y1121470D01*
X854827Y1123864D02*
X860181Y1123864D01*
X852053Y1088888D02*
X846699Y1088888D01*
X846699Y1100592D01*
X852053Y1100592D01*
X852053Y1088888D01*
X852053Y1091282D02*
X846699Y1091282D01*
X846699Y1093676D02*
X852053Y1093676D01*
X852053Y1096070D02*
X846699Y1096070D01*
X846699Y1098464D02*
X852053Y1098464D01*
X854827Y1088888D02*
X860181Y1088888D01*
X854827Y1088888D02*
X854827Y1100592D01*
X860181Y1100592D01*
X860181Y1088888D01*
X860181Y1091282D02*
X854827Y1091282D01*
X854827Y1093676D02*
X860181Y1093676D01*
X860181Y1096070D02*
X854827Y1096070D01*
X854827Y1098464D02*
X860181Y1098464D01*
X852053Y1038088D02*
X846699Y1038088D01*
X846699Y1049792D01*
X852053Y1049792D01*
X852053Y1038088D01*
X852053Y1040482D02*
X846699Y1040482D01*
X846699Y1042876D02*
X852053Y1042876D01*
X852053Y1045270D02*
X846699Y1045270D01*
X846699Y1047664D02*
X852053Y1047664D01*
X854827Y1038088D02*
X860181Y1038088D01*
X854827Y1038088D02*
X854827Y1049792D01*
X860181Y1049792D01*
X860181Y1038088D01*
X860181Y1040482D02*
X854827Y1040482D01*
X854827Y1042876D02*
X860181Y1042876D01*
X860181Y1045270D02*
X854827Y1045270D01*
X854827Y1047664D02*
X860181Y1047664D01*
X852053Y1063488D02*
X846699Y1063488D01*
X846699Y1075192D01*
X852053Y1075192D01*
X852053Y1063488D01*
X852053Y1065882D02*
X846699Y1065882D01*
X846699Y1068276D02*
X852053Y1068276D01*
X852053Y1070670D02*
X846699Y1070670D01*
X846699Y1073064D02*
X852053Y1073064D01*
X854827Y1063488D02*
X860181Y1063488D01*
X854827Y1063488D02*
X854827Y1075192D01*
X860181Y1075192D01*
X860181Y1063488D01*
X860181Y1065882D02*
X854827Y1065882D01*
X854827Y1068276D02*
X860181Y1068276D01*
X860181Y1070670D02*
X854827Y1070670D01*
X854827Y1073064D02*
X860181Y1073064D01*
X852053Y1012688D02*
X846699Y1012688D01*
X846699Y1024392D01*
X852053Y1024392D01*
X852053Y1012688D01*
X852053Y1015082D02*
X846699Y1015082D01*
X846699Y1017476D02*
X852053Y1017476D01*
X852053Y1019870D02*
X846699Y1019870D01*
X846699Y1022264D02*
X852053Y1022264D01*
X854827Y1012688D02*
X860181Y1012688D01*
X854827Y1012688D02*
X854827Y1024392D01*
X860181Y1024392D01*
X860181Y1012688D01*
X860181Y1015082D02*
X854827Y1015082D01*
X854827Y1017476D02*
X860181Y1017476D01*
X860181Y1019870D02*
X854827Y1019870D01*
X854827Y1022264D02*
X860181Y1022264D01*
D13*
X713740Y942340D03*
X878840Y1209040D03*
D11*
X916940Y942340D03*
X916940Y967740D03*
X916940Y993140D03*
X916940Y1018540D03*
X916940Y1043940D03*
X916940Y1069340D03*
X916940Y1094740D03*
X916940Y1120140D03*
X916940Y1145540D03*
X916940Y1170940D03*
X916940Y1196340D03*
X916940Y1221740D03*
X713740Y1018540D03*
X713740Y1043940D03*
X713740Y1069340D03*
X713740Y1094740D03*
X713740Y1120140D03*
X713740Y1145540D03*
X713740Y1170940D03*
X713740Y1196340D03*
X713740Y1221740D03*
D12*
X846699Y1139688D02*
X852053Y1139688D01*
X846699Y1139688D02*
X846699Y1151392D01*
X852053Y1151392D01*
X852053Y1139688D01*
X852053Y1142082D02*
X846699Y1142082D01*
X846699Y1144476D02*
X852053Y1144476D01*
X852053Y1146870D02*
X846699Y1146870D01*
X846699Y1149264D02*
X852053Y1149264D01*
X854827Y1139688D02*
X860181Y1139688D01*
X854827Y1139688D02*
X854827Y1151392D01*
X860181Y1151392D01*
X860181Y1139688D01*
X860181Y1142082D02*
X854827Y1142082D01*
X854827Y1144476D02*
X860181Y1144476D01*
X860181Y1146870D02*
X854827Y1146870D01*
X854827Y1149264D02*
X860181Y1149264D01*
D11*
X1049020Y1177290D03*
D12*
X1006231Y1202192D02*
X1000623Y1202192D01*
X1006231Y1202192D02*
X1006231Y1190488D01*
X1000623Y1190488D01*
X1000623Y1202192D01*
X1000623Y1192882D02*
X1006231Y1192882D01*
X1006231Y1195276D02*
X1000623Y1195276D01*
X1000623Y1197670D02*
X1006231Y1197670D01*
X1006231Y1200064D02*
X1000623Y1200064D01*
X995817Y1202192D02*
X990209Y1202192D01*
X995817Y1202192D02*
X995817Y1190488D01*
X990209Y1190488D01*
X990209Y1202192D01*
X990209Y1192882D02*
X995817Y1192882D01*
X995817Y1195276D02*
X990209Y1195276D01*
X990209Y1197670D02*
X995817Y1197670D01*
X995817Y1200064D02*
X990209Y1200064D01*
X1008497Y1227592D02*
X1013851Y1227592D01*
X1013851Y1215888D01*
X1008497Y1215888D01*
X1008497Y1227592D01*
X1008497Y1218282D02*
X1013851Y1218282D01*
X1013851Y1220676D02*
X1008497Y1220676D01*
X1008497Y1223070D02*
X1013851Y1223070D01*
X1013851Y1225464D02*
X1008497Y1225464D01*
X1005723Y1227592D02*
X1000369Y1227592D01*
X1005723Y1227592D02*
X1005723Y1215888D01*
X1000369Y1215888D01*
X1000369Y1227592D01*
X1000369Y1218282D02*
X1005723Y1218282D01*
X1005723Y1220676D02*
X1000369Y1220676D01*
X1000369Y1223070D02*
X1005723Y1223070D01*
X1005723Y1225464D02*
X1000369Y1225464D01*
X1080379Y1114288D02*
X1085733Y1114288D01*
X1080379Y1114288D02*
X1080379Y1125992D01*
X1085733Y1125992D01*
X1085733Y1114288D01*
X1085733Y1116682D02*
X1080379Y1116682D01*
X1080379Y1119076D02*
X1085733Y1119076D01*
X1085733Y1121470D02*
X1080379Y1121470D01*
X1080379Y1123864D02*
X1085733Y1123864D01*
X1088507Y1114288D02*
X1093861Y1114288D01*
X1088507Y1114288D02*
X1088507Y1125992D01*
X1093861Y1125992D01*
X1093861Y1114288D01*
X1093861Y1116682D02*
X1088507Y1116682D01*
X1088507Y1119076D02*
X1093861Y1119076D01*
X1093861Y1121470D02*
X1088507Y1121470D01*
X1088507Y1123864D02*
X1093861Y1123864D01*
X1085733Y1088888D02*
X1080379Y1088888D01*
X1080379Y1100592D01*
X1085733Y1100592D01*
X1085733Y1088888D01*
X1085733Y1091282D02*
X1080379Y1091282D01*
X1080379Y1093676D02*
X1085733Y1093676D01*
X1085733Y1096070D02*
X1080379Y1096070D01*
X1080379Y1098464D02*
X1085733Y1098464D01*
X1088507Y1088888D02*
X1093861Y1088888D01*
X1088507Y1088888D02*
X1088507Y1100592D01*
X1093861Y1100592D01*
X1093861Y1088888D01*
X1093861Y1091282D02*
X1088507Y1091282D01*
X1088507Y1093676D02*
X1093861Y1093676D01*
X1093861Y1096070D02*
X1088507Y1096070D01*
X1088507Y1098464D02*
X1093861Y1098464D01*
X1085733Y1038088D02*
X1080379Y1038088D01*
X1080379Y1049792D01*
X1085733Y1049792D01*
X1085733Y1038088D01*
X1085733Y1040482D02*
X1080379Y1040482D01*
X1080379Y1042876D02*
X1085733Y1042876D01*
X1085733Y1045270D02*
X1080379Y1045270D01*
X1080379Y1047664D02*
X1085733Y1047664D01*
X1088507Y1038088D02*
X1093861Y1038088D01*
X1088507Y1038088D02*
X1088507Y1049792D01*
X1093861Y1049792D01*
X1093861Y1038088D01*
X1093861Y1040482D02*
X1088507Y1040482D01*
X1088507Y1042876D02*
X1093861Y1042876D01*
X1093861Y1045270D02*
X1088507Y1045270D01*
X1088507Y1047664D02*
X1093861Y1047664D01*
X1085733Y1063488D02*
X1080379Y1063488D01*
X1080379Y1075192D01*
X1085733Y1075192D01*
X1085733Y1063488D01*
X1085733Y1065882D02*
X1080379Y1065882D01*
X1080379Y1068276D02*
X1085733Y1068276D01*
X1085733Y1070670D02*
X1080379Y1070670D01*
X1080379Y1073064D02*
X1085733Y1073064D01*
X1088507Y1063488D02*
X1093861Y1063488D01*
X1088507Y1063488D02*
X1088507Y1075192D01*
X1093861Y1075192D01*
X1093861Y1063488D01*
X1093861Y1065882D02*
X1088507Y1065882D01*
X1088507Y1068276D02*
X1093861Y1068276D01*
X1093861Y1070670D02*
X1088507Y1070670D01*
X1088507Y1073064D02*
X1093861Y1073064D01*
X1085733Y1012688D02*
X1080379Y1012688D01*
X1080379Y1024392D01*
X1085733Y1024392D01*
X1085733Y1012688D01*
X1085733Y1015082D02*
X1080379Y1015082D01*
X1080379Y1017476D02*
X1085733Y1017476D01*
X1085733Y1019870D02*
X1080379Y1019870D01*
X1080379Y1022264D02*
X1085733Y1022264D01*
X1088507Y1012688D02*
X1093861Y1012688D01*
X1088507Y1012688D02*
X1088507Y1024392D01*
X1093861Y1024392D01*
X1093861Y1012688D01*
X1093861Y1015082D02*
X1088507Y1015082D01*
X1088507Y1017476D02*
X1093861Y1017476D01*
X1093861Y1019870D02*
X1088507Y1019870D01*
X1088507Y1022264D02*
X1093861Y1022264D01*
D13*
X947420Y942340D03*
X1112520Y1209040D03*
D11*
X1150620Y942340D03*
X1150620Y967740D03*
X1150620Y993140D03*
X1150620Y1018540D03*
X1150620Y1043940D03*
X1150620Y1069340D03*
X1150620Y1094740D03*
X1150620Y1120140D03*
X1150620Y1145540D03*
X1150620Y1170940D03*
X1150620Y1196340D03*
X1150620Y1221740D03*
X947420Y1018540D03*
X947420Y1043940D03*
X947420Y1069340D03*
X947420Y1094740D03*
X947420Y1120140D03*
X947420Y1145540D03*
X947420Y1170940D03*
X947420Y1196340D03*
X947420Y1221740D03*
D12*
X1080379Y1139688D02*
X1085733Y1139688D01*
X1080379Y1139688D02*
X1080379Y1151392D01*
X1085733Y1151392D01*
X1085733Y1139688D01*
X1085733Y1142082D02*
X1080379Y1142082D01*
X1080379Y1144476D02*
X1085733Y1144476D01*
X1085733Y1146870D02*
X1080379Y1146870D01*
X1080379Y1149264D02*
X1085733Y1149264D01*
X1088507Y1139688D02*
X1093861Y1139688D01*
X1088507Y1139688D02*
X1088507Y1151392D01*
X1093861Y1151392D01*
X1093861Y1139688D01*
X1093861Y1142082D02*
X1088507Y1142082D01*
X1088507Y1144476D02*
X1093861Y1144476D01*
X1093861Y1146870D02*
X1088507Y1146870D01*
X1088507Y1149264D02*
X1093861Y1149264D01*
D11*
X114300Y1487170D03*
D12*
X71511Y1512072D02*
X65903Y1512072D01*
X71511Y1512072D02*
X71511Y1500368D01*
X65903Y1500368D01*
X65903Y1512072D01*
X65903Y1502762D02*
X71511Y1502762D01*
X71511Y1505156D02*
X65903Y1505156D01*
X65903Y1507550D02*
X71511Y1507550D01*
X71511Y1509944D02*
X65903Y1509944D01*
X61097Y1512072D02*
X55489Y1512072D01*
X61097Y1512072D02*
X61097Y1500368D01*
X55489Y1500368D01*
X55489Y1512072D01*
X55489Y1502762D02*
X61097Y1502762D01*
X61097Y1505156D02*
X55489Y1505156D01*
X55489Y1507550D02*
X61097Y1507550D01*
X61097Y1509944D02*
X55489Y1509944D01*
X73777Y1537472D02*
X79131Y1537472D01*
X79131Y1525768D01*
X73777Y1525768D01*
X73777Y1537472D01*
X73777Y1528162D02*
X79131Y1528162D01*
X79131Y1530556D02*
X73777Y1530556D01*
X73777Y1532950D02*
X79131Y1532950D01*
X79131Y1535344D02*
X73777Y1535344D01*
X71003Y1537472D02*
X65649Y1537472D01*
X71003Y1537472D02*
X71003Y1525768D01*
X65649Y1525768D01*
X65649Y1537472D01*
X65649Y1528162D02*
X71003Y1528162D01*
X71003Y1530556D02*
X65649Y1530556D01*
X65649Y1532950D02*
X71003Y1532950D01*
X71003Y1535344D02*
X65649Y1535344D01*
X145659Y1424168D02*
X151013Y1424168D01*
X145659Y1424168D02*
X145659Y1435872D01*
X151013Y1435872D01*
X151013Y1424168D01*
X151013Y1426562D02*
X145659Y1426562D01*
X145659Y1428956D02*
X151013Y1428956D01*
X151013Y1431350D02*
X145659Y1431350D01*
X145659Y1433744D02*
X151013Y1433744D01*
X153787Y1424168D02*
X159141Y1424168D01*
X153787Y1424168D02*
X153787Y1435872D01*
X159141Y1435872D01*
X159141Y1424168D01*
X159141Y1426562D02*
X153787Y1426562D01*
X153787Y1428956D02*
X159141Y1428956D01*
X159141Y1431350D02*
X153787Y1431350D01*
X153787Y1433744D02*
X159141Y1433744D01*
X151013Y1398768D02*
X145659Y1398768D01*
X145659Y1410472D01*
X151013Y1410472D01*
X151013Y1398768D01*
X151013Y1401162D02*
X145659Y1401162D01*
X145659Y1403556D02*
X151013Y1403556D01*
X151013Y1405950D02*
X145659Y1405950D01*
X145659Y1408344D02*
X151013Y1408344D01*
X153787Y1398768D02*
X159141Y1398768D01*
X153787Y1398768D02*
X153787Y1410472D01*
X159141Y1410472D01*
X159141Y1398768D01*
X159141Y1401162D02*
X153787Y1401162D01*
X153787Y1403556D02*
X159141Y1403556D01*
X159141Y1405950D02*
X153787Y1405950D01*
X153787Y1408344D02*
X159141Y1408344D01*
X151013Y1347968D02*
X145659Y1347968D01*
X145659Y1359672D01*
X151013Y1359672D01*
X151013Y1347968D01*
X151013Y1350362D02*
X145659Y1350362D01*
X145659Y1352756D02*
X151013Y1352756D01*
X151013Y1355150D02*
X145659Y1355150D01*
X145659Y1357544D02*
X151013Y1357544D01*
X153787Y1347968D02*
X159141Y1347968D01*
X153787Y1347968D02*
X153787Y1359672D01*
X159141Y1359672D01*
X159141Y1347968D01*
X159141Y1350362D02*
X153787Y1350362D01*
X153787Y1352756D02*
X159141Y1352756D01*
X159141Y1355150D02*
X153787Y1355150D01*
X153787Y1357544D02*
X159141Y1357544D01*
X151013Y1373368D02*
X145659Y1373368D01*
X145659Y1385072D01*
X151013Y1385072D01*
X151013Y1373368D01*
X151013Y1375762D02*
X145659Y1375762D01*
X145659Y1378156D02*
X151013Y1378156D01*
X151013Y1380550D02*
X145659Y1380550D01*
X145659Y1382944D02*
X151013Y1382944D01*
X153787Y1373368D02*
X159141Y1373368D01*
X153787Y1373368D02*
X153787Y1385072D01*
X159141Y1385072D01*
X159141Y1373368D01*
X159141Y1375762D02*
X153787Y1375762D01*
X153787Y1378156D02*
X159141Y1378156D01*
X159141Y1380550D02*
X153787Y1380550D01*
X153787Y1382944D02*
X159141Y1382944D01*
X151013Y1322568D02*
X145659Y1322568D01*
X145659Y1334272D01*
X151013Y1334272D01*
X151013Y1322568D01*
X151013Y1324962D02*
X145659Y1324962D01*
X145659Y1327356D02*
X151013Y1327356D01*
X151013Y1329750D02*
X145659Y1329750D01*
X145659Y1332144D02*
X151013Y1332144D01*
X153787Y1322568D02*
X159141Y1322568D01*
X153787Y1322568D02*
X153787Y1334272D01*
X159141Y1334272D01*
X159141Y1322568D01*
X159141Y1324962D02*
X153787Y1324962D01*
X153787Y1327356D02*
X159141Y1327356D01*
X159141Y1329750D02*
X153787Y1329750D01*
X153787Y1332144D02*
X159141Y1332144D01*
D13*
X12700Y1252220D03*
X177800Y1518920D03*
D11*
X215900Y1252220D03*
X215900Y1277620D03*
X215900Y1303020D03*
X215900Y1328420D03*
X215900Y1353820D03*
X215900Y1379220D03*
X215900Y1404620D03*
X215900Y1430020D03*
X215900Y1455420D03*
X215900Y1480820D03*
X215900Y1506220D03*
X215900Y1531620D03*
X12700Y1328420D03*
X12700Y1353820D03*
X12700Y1379220D03*
X12700Y1404620D03*
X12700Y1430020D03*
X12700Y1455420D03*
X12700Y1480820D03*
X12700Y1506220D03*
X12700Y1531620D03*
D12*
X145659Y1449568D02*
X151013Y1449568D01*
X145659Y1449568D02*
X145659Y1461272D01*
X151013Y1461272D01*
X151013Y1449568D01*
X151013Y1451962D02*
X145659Y1451962D01*
X145659Y1454356D02*
X151013Y1454356D01*
X151013Y1456750D02*
X145659Y1456750D01*
X145659Y1459144D02*
X151013Y1459144D01*
X153787Y1449568D02*
X159141Y1449568D01*
X153787Y1449568D02*
X153787Y1461272D01*
X159141Y1461272D01*
X159141Y1449568D01*
X159141Y1451962D02*
X153787Y1451962D01*
X153787Y1454356D02*
X159141Y1454356D01*
X159141Y1456750D02*
X153787Y1456750D01*
X153787Y1459144D02*
X159141Y1459144D01*
D11*
X347980Y1487170D03*
D12*
X305191Y1512072D02*
X299583Y1512072D01*
X305191Y1512072D02*
X305191Y1500368D01*
X299583Y1500368D01*
X299583Y1512072D01*
X299583Y1502762D02*
X305191Y1502762D01*
X305191Y1505156D02*
X299583Y1505156D01*
X299583Y1507550D02*
X305191Y1507550D01*
X305191Y1509944D02*
X299583Y1509944D01*
X294777Y1512072D02*
X289169Y1512072D01*
X294777Y1512072D02*
X294777Y1500368D01*
X289169Y1500368D01*
X289169Y1512072D01*
X289169Y1502762D02*
X294777Y1502762D01*
X294777Y1505156D02*
X289169Y1505156D01*
X289169Y1507550D02*
X294777Y1507550D01*
X294777Y1509944D02*
X289169Y1509944D01*
X307457Y1537472D02*
X312811Y1537472D01*
X312811Y1525768D01*
X307457Y1525768D01*
X307457Y1537472D01*
X307457Y1528162D02*
X312811Y1528162D01*
X312811Y1530556D02*
X307457Y1530556D01*
X307457Y1532950D02*
X312811Y1532950D01*
X312811Y1535344D02*
X307457Y1535344D01*
X304683Y1537472D02*
X299329Y1537472D01*
X304683Y1537472D02*
X304683Y1525768D01*
X299329Y1525768D01*
X299329Y1537472D01*
X299329Y1528162D02*
X304683Y1528162D01*
X304683Y1530556D02*
X299329Y1530556D01*
X299329Y1532950D02*
X304683Y1532950D01*
X304683Y1535344D02*
X299329Y1535344D01*
X379339Y1424168D02*
X384693Y1424168D01*
X379339Y1424168D02*
X379339Y1435872D01*
X384693Y1435872D01*
X384693Y1424168D01*
X384693Y1426562D02*
X379339Y1426562D01*
X379339Y1428956D02*
X384693Y1428956D01*
X384693Y1431350D02*
X379339Y1431350D01*
X379339Y1433744D02*
X384693Y1433744D01*
X387467Y1424168D02*
X392821Y1424168D01*
X387467Y1424168D02*
X387467Y1435872D01*
X392821Y1435872D01*
X392821Y1424168D01*
X392821Y1426562D02*
X387467Y1426562D01*
X387467Y1428956D02*
X392821Y1428956D01*
X392821Y1431350D02*
X387467Y1431350D01*
X387467Y1433744D02*
X392821Y1433744D01*
X384693Y1398768D02*
X379339Y1398768D01*
X379339Y1410472D01*
X384693Y1410472D01*
X384693Y1398768D01*
X384693Y1401162D02*
X379339Y1401162D01*
X379339Y1403556D02*
X384693Y1403556D01*
X384693Y1405950D02*
X379339Y1405950D01*
X379339Y1408344D02*
X384693Y1408344D01*
X387467Y1398768D02*
X392821Y1398768D01*
X387467Y1398768D02*
X387467Y1410472D01*
X392821Y1410472D01*
X392821Y1398768D01*
X392821Y1401162D02*
X387467Y1401162D01*
X387467Y1403556D02*
X392821Y1403556D01*
X392821Y1405950D02*
X387467Y1405950D01*
X387467Y1408344D02*
X392821Y1408344D01*
X384693Y1347968D02*
X379339Y1347968D01*
X379339Y1359672D01*
X384693Y1359672D01*
X384693Y1347968D01*
X384693Y1350362D02*
X379339Y1350362D01*
X379339Y1352756D02*
X384693Y1352756D01*
X384693Y1355150D02*
X379339Y1355150D01*
X379339Y1357544D02*
X384693Y1357544D01*
X387467Y1347968D02*
X392821Y1347968D01*
X387467Y1347968D02*
X387467Y1359672D01*
X392821Y1359672D01*
X392821Y1347968D01*
X392821Y1350362D02*
X387467Y1350362D01*
X387467Y1352756D02*
X392821Y1352756D01*
X392821Y1355150D02*
X387467Y1355150D01*
X387467Y1357544D02*
X392821Y1357544D01*
X384693Y1373368D02*
X379339Y1373368D01*
X379339Y1385072D01*
X384693Y1385072D01*
X384693Y1373368D01*
X384693Y1375762D02*
X379339Y1375762D01*
X379339Y1378156D02*
X384693Y1378156D01*
X384693Y1380550D02*
X379339Y1380550D01*
X379339Y1382944D02*
X384693Y1382944D01*
X387467Y1373368D02*
X392821Y1373368D01*
X387467Y1373368D02*
X387467Y1385072D01*
X392821Y1385072D01*
X392821Y1373368D01*
X392821Y1375762D02*
X387467Y1375762D01*
X387467Y1378156D02*
X392821Y1378156D01*
X392821Y1380550D02*
X387467Y1380550D01*
X387467Y1382944D02*
X392821Y1382944D01*
X384693Y1322568D02*
X379339Y1322568D01*
X379339Y1334272D01*
X384693Y1334272D01*
X384693Y1322568D01*
X384693Y1324962D02*
X379339Y1324962D01*
X379339Y1327356D02*
X384693Y1327356D01*
X384693Y1329750D02*
X379339Y1329750D01*
X379339Y1332144D02*
X384693Y1332144D01*
X387467Y1322568D02*
X392821Y1322568D01*
X387467Y1322568D02*
X387467Y1334272D01*
X392821Y1334272D01*
X392821Y1322568D01*
X392821Y1324962D02*
X387467Y1324962D01*
X387467Y1327356D02*
X392821Y1327356D01*
X392821Y1329750D02*
X387467Y1329750D01*
X387467Y1332144D02*
X392821Y1332144D01*
D13*
X246380Y1252220D03*
X411480Y1518920D03*
D11*
X449580Y1252220D03*
X449580Y1277620D03*
X449580Y1303020D03*
X449580Y1328420D03*
X449580Y1353820D03*
X449580Y1379220D03*
X449580Y1404620D03*
X449580Y1430020D03*
X449580Y1455420D03*
X449580Y1480820D03*
X449580Y1506220D03*
X449580Y1531620D03*
X246380Y1328420D03*
X246380Y1353820D03*
X246380Y1379220D03*
X246380Y1404620D03*
X246380Y1430020D03*
X246380Y1455420D03*
X246380Y1480820D03*
X246380Y1506220D03*
X246380Y1531620D03*
D12*
X379339Y1449568D02*
X384693Y1449568D01*
X379339Y1449568D02*
X379339Y1461272D01*
X384693Y1461272D01*
X384693Y1449568D01*
X384693Y1451962D02*
X379339Y1451962D01*
X379339Y1454356D02*
X384693Y1454356D01*
X384693Y1456750D02*
X379339Y1456750D01*
X379339Y1459144D02*
X384693Y1459144D01*
X387467Y1449568D02*
X392821Y1449568D01*
X387467Y1449568D02*
X387467Y1461272D01*
X392821Y1461272D01*
X392821Y1449568D01*
X392821Y1451962D02*
X387467Y1451962D01*
X387467Y1454356D02*
X392821Y1454356D01*
X392821Y1456750D02*
X387467Y1456750D01*
X387467Y1459144D02*
X392821Y1459144D01*
D11*
X581660Y1487170D03*
D12*
X538871Y1512072D02*
X533263Y1512072D01*
X538871Y1512072D02*
X538871Y1500368D01*
X533263Y1500368D01*
X533263Y1512072D01*
X533263Y1502762D02*
X538871Y1502762D01*
X538871Y1505156D02*
X533263Y1505156D01*
X533263Y1507550D02*
X538871Y1507550D01*
X538871Y1509944D02*
X533263Y1509944D01*
X528457Y1512072D02*
X522849Y1512072D01*
X528457Y1512072D02*
X528457Y1500368D01*
X522849Y1500368D01*
X522849Y1512072D01*
X522849Y1502762D02*
X528457Y1502762D01*
X528457Y1505156D02*
X522849Y1505156D01*
X522849Y1507550D02*
X528457Y1507550D01*
X528457Y1509944D02*
X522849Y1509944D01*
X541137Y1537472D02*
X546491Y1537472D01*
X546491Y1525768D01*
X541137Y1525768D01*
X541137Y1537472D01*
X541137Y1528162D02*
X546491Y1528162D01*
X546491Y1530556D02*
X541137Y1530556D01*
X541137Y1532950D02*
X546491Y1532950D01*
X546491Y1535344D02*
X541137Y1535344D01*
X538363Y1537472D02*
X533009Y1537472D01*
X538363Y1537472D02*
X538363Y1525768D01*
X533009Y1525768D01*
X533009Y1537472D01*
X533009Y1528162D02*
X538363Y1528162D01*
X538363Y1530556D02*
X533009Y1530556D01*
X533009Y1532950D02*
X538363Y1532950D01*
X538363Y1535344D02*
X533009Y1535344D01*
X613019Y1424168D02*
X618373Y1424168D01*
X613019Y1424168D02*
X613019Y1435872D01*
X618373Y1435872D01*
X618373Y1424168D01*
X618373Y1426562D02*
X613019Y1426562D01*
X613019Y1428956D02*
X618373Y1428956D01*
X618373Y1431350D02*
X613019Y1431350D01*
X613019Y1433744D02*
X618373Y1433744D01*
X621147Y1424168D02*
X626501Y1424168D01*
X621147Y1424168D02*
X621147Y1435872D01*
X626501Y1435872D01*
X626501Y1424168D01*
X626501Y1426562D02*
X621147Y1426562D01*
X621147Y1428956D02*
X626501Y1428956D01*
X626501Y1431350D02*
X621147Y1431350D01*
X621147Y1433744D02*
X626501Y1433744D01*
X618373Y1398768D02*
X613019Y1398768D01*
X613019Y1410472D01*
X618373Y1410472D01*
X618373Y1398768D01*
X618373Y1401162D02*
X613019Y1401162D01*
X613019Y1403556D02*
X618373Y1403556D01*
X618373Y1405950D02*
X613019Y1405950D01*
X613019Y1408344D02*
X618373Y1408344D01*
X621147Y1398768D02*
X626501Y1398768D01*
X621147Y1398768D02*
X621147Y1410472D01*
X626501Y1410472D01*
X626501Y1398768D01*
X626501Y1401162D02*
X621147Y1401162D01*
X621147Y1403556D02*
X626501Y1403556D01*
X626501Y1405950D02*
X621147Y1405950D01*
X621147Y1408344D02*
X626501Y1408344D01*
X618373Y1347968D02*
X613019Y1347968D01*
X613019Y1359672D01*
X618373Y1359672D01*
X618373Y1347968D01*
X618373Y1350362D02*
X613019Y1350362D01*
X613019Y1352756D02*
X618373Y1352756D01*
X618373Y1355150D02*
X613019Y1355150D01*
X613019Y1357544D02*
X618373Y1357544D01*
X621147Y1347968D02*
X626501Y1347968D01*
X621147Y1347968D02*
X621147Y1359672D01*
X626501Y1359672D01*
X626501Y1347968D01*
X626501Y1350362D02*
X621147Y1350362D01*
X621147Y1352756D02*
X626501Y1352756D01*
X626501Y1355150D02*
X621147Y1355150D01*
X621147Y1357544D02*
X626501Y1357544D01*
X618373Y1373368D02*
X613019Y1373368D01*
X613019Y1385072D01*
X618373Y1385072D01*
X618373Y1373368D01*
X618373Y1375762D02*
X613019Y1375762D01*
X613019Y1378156D02*
X618373Y1378156D01*
X618373Y1380550D02*
X613019Y1380550D01*
X613019Y1382944D02*
X618373Y1382944D01*
X621147Y1373368D02*
X626501Y1373368D01*
X621147Y1373368D02*
X621147Y1385072D01*
X626501Y1385072D01*
X626501Y1373368D01*
X626501Y1375762D02*
X621147Y1375762D01*
X621147Y1378156D02*
X626501Y1378156D01*
X626501Y1380550D02*
X621147Y1380550D01*
X621147Y1382944D02*
X626501Y1382944D01*
X618373Y1322568D02*
X613019Y1322568D01*
X613019Y1334272D01*
X618373Y1334272D01*
X618373Y1322568D01*
X618373Y1324962D02*
X613019Y1324962D01*
X613019Y1327356D02*
X618373Y1327356D01*
X618373Y1329750D02*
X613019Y1329750D01*
X613019Y1332144D02*
X618373Y1332144D01*
X621147Y1322568D02*
X626501Y1322568D01*
X621147Y1322568D02*
X621147Y1334272D01*
X626501Y1334272D01*
X626501Y1322568D01*
X626501Y1324962D02*
X621147Y1324962D01*
X621147Y1327356D02*
X626501Y1327356D01*
X626501Y1329750D02*
X621147Y1329750D01*
X621147Y1332144D02*
X626501Y1332144D01*
D13*
X480060Y1252220D03*
X645160Y1518920D03*
D11*
X683260Y1252220D03*
X683260Y1277620D03*
X683260Y1303020D03*
X683260Y1328420D03*
X683260Y1353820D03*
X683260Y1379220D03*
X683260Y1404620D03*
X683260Y1430020D03*
X683260Y1455420D03*
X683260Y1480820D03*
X683260Y1506220D03*
X683260Y1531620D03*
X480060Y1328420D03*
X480060Y1353820D03*
X480060Y1379220D03*
X480060Y1404620D03*
X480060Y1430020D03*
X480060Y1455420D03*
X480060Y1480820D03*
X480060Y1506220D03*
X480060Y1531620D03*
D12*
X613019Y1449568D02*
X618373Y1449568D01*
X613019Y1449568D02*
X613019Y1461272D01*
X618373Y1461272D01*
X618373Y1449568D01*
X618373Y1451962D02*
X613019Y1451962D01*
X613019Y1454356D02*
X618373Y1454356D01*
X618373Y1456750D02*
X613019Y1456750D01*
X613019Y1459144D02*
X618373Y1459144D01*
X621147Y1449568D02*
X626501Y1449568D01*
X621147Y1449568D02*
X621147Y1461272D01*
X626501Y1461272D01*
X626501Y1449568D01*
X626501Y1451962D02*
X621147Y1451962D01*
X621147Y1454356D02*
X626501Y1454356D01*
X626501Y1456750D02*
X621147Y1456750D01*
X621147Y1459144D02*
X626501Y1459144D01*
D11*
X815340Y1487170D03*
D12*
X772551Y1512072D02*
X766943Y1512072D01*
X772551Y1512072D02*
X772551Y1500368D01*
X766943Y1500368D01*
X766943Y1512072D01*
X766943Y1502762D02*
X772551Y1502762D01*
X772551Y1505156D02*
X766943Y1505156D01*
X766943Y1507550D02*
X772551Y1507550D01*
X772551Y1509944D02*
X766943Y1509944D01*
X762137Y1512072D02*
X756529Y1512072D01*
X762137Y1512072D02*
X762137Y1500368D01*
X756529Y1500368D01*
X756529Y1512072D01*
X756529Y1502762D02*
X762137Y1502762D01*
X762137Y1505156D02*
X756529Y1505156D01*
X756529Y1507550D02*
X762137Y1507550D01*
X762137Y1509944D02*
X756529Y1509944D01*
X774817Y1537472D02*
X780171Y1537472D01*
X780171Y1525768D01*
X774817Y1525768D01*
X774817Y1537472D01*
X774817Y1528162D02*
X780171Y1528162D01*
X780171Y1530556D02*
X774817Y1530556D01*
X774817Y1532950D02*
X780171Y1532950D01*
X780171Y1535344D02*
X774817Y1535344D01*
X772043Y1537472D02*
X766689Y1537472D01*
X772043Y1537472D02*
X772043Y1525768D01*
X766689Y1525768D01*
X766689Y1537472D01*
X766689Y1528162D02*
X772043Y1528162D01*
X772043Y1530556D02*
X766689Y1530556D01*
X766689Y1532950D02*
X772043Y1532950D01*
X772043Y1535344D02*
X766689Y1535344D01*
X846699Y1424168D02*
X852053Y1424168D01*
X846699Y1424168D02*
X846699Y1435872D01*
X852053Y1435872D01*
X852053Y1424168D01*
X852053Y1426562D02*
X846699Y1426562D01*
X846699Y1428956D02*
X852053Y1428956D01*
X852053Y1431350D02*
X846699Y1431350D01*
X846699Y1433744D02*
X852053Y1433744D01*
X854827Y1424168D02*
X860181Y1424168D01*
X854827Y1424168D02*
X854827Y1435872D01*
X860181Y1435872D01*
X860181Y1424168D01*
X860181Y1426562D02*
X854827Y1426562D01*
X854827Y1428956D02*
X860181Y1428956D01*
X860181Y1431350D02*
X854827Y1431350D01*
X854827Y1433744D02*
X860181Y1433744D01*
X852053Y1398768D02*
X846699Y1398768D01*
X846699Y1410472D01*
X852053Y1410472D01*
X852053Y1398768D01*
X852053Y1401162D02*
X846699Y1401162D01*
X846699Y1403556D02*
X852053Y1403556D01*
X852053Y1405950D02*
X846699Y1405950D01*
X846699Y1408344D02*
X852053Y1408344D01*
X854827Y1398768D02*
X860181Y1398768D01*
X854827Y1398768D02*
X854827Y1410472D01*
X860181Y1410472D01*
X860181Y1398768D01*
X860181Y1401162D02*
X854827Y1401162D01*
X854827Y1403556D02*
X860181Y1403556D01*
X860181Y1405950D02*
X854827Y1405950D01*
X854827Y1408344D02*
X860181Y1408344D01*
X852053Y1347968D02*
X846699Y1347968D01*
X846699Y1359672D01*
X852053Y1359672D01*
X852053Y1347968D01*
X852053Y1350362D02*
X846699Y1350362D01*
X846699Y1352756D02*
X852053Y1352756D01*
X852053Y1355150D02*
X846699Y1355150D01*
X846699Y1357544D02*
X852053Y1357544D01*
X854827Y1347968D02*
X860181Y1347968D01*
X854827Y1347968D02*
X854827Y1359672D01*
X860181Y1359672D01*
X860181Y1347968D01*
X860181Y1350362D02*
X854827Y1350362D01*
X854827Y1352756D02*
X860181Y1352756D01*
X860181Y1355150D02*
X854827Y1355150D01*
X854827Y1357544D02*
X860181Y1357544D01*
X852053Y1373368D02*
X846699Y1373368D01*
X846699Y1385072D01*
X852053Y1385072D01*
X852053Y1373368D01*
X852053Y1375762D02*
X846699Y1375762D01*
X846699Y1378156D02*
X852053Y1378156D01*
X852053Y1380550D02*
X846699Y1380550D01*
X846699Y1382944D02*
X852053Y1382944D01*
X854827Y1373368D02*
X860181Y1373368D01*
X854827Y1373368D02*
X854827Y1385072D01*
X860181Y1385072D01*
X860181Y1373368D01*
X860181Y1375762D02*
X854827Y1375762D01*
X854827Y1378156D02*
X860181Y1378156D01*
X860181Y1380550D02*
X854827Y1380550D01*
X854827Y1382944D02*
X860181Y1382944D01*
X852053Y1322568D02*
X846699Y1322568D01*
X846699Y1334272D01*
X852053Y1334272D01*
X852053Y1322568D01*
X852053Y1324962D02*
X846699Y1324962D01*
X846699Y1327356D02*
X852053Y1327356D01*
X852053Y1329750D02*
X846699Y1329750D01*
X846699Y1332144D02*
X852053Y1332144D01*
X854827Y1322568D02*
X860181Y1322568D01*
X854827Y1322568D02*
X854827Y1334272D01*
X860181Y1334272D01*
X860181Y1322568D01*
X860181Y1324962D02*
X854827Y1324962D01*
X854827Y1327356D02*
X860181Y1327356D01*
X860181Y1329750D02*
X854827Y1329750D01*
X854827Y1332144D02*
X860181Y1332144D01*
D13*
X713740Y1252220D03*
X878840Y1518920D03*
D11*
X916940Y1252220D03*
X916940Y1277620D03*
X916940Y1303020D03*
X916940Y1328420D03*
X916940Y1353820D03*
X916940Y1379220D03*
X916940Y1404620D03*
X916940Y1430020D03*
X916940Y1455420D03*
X916940Y1480820D03*
X916940Y1506220D03*
X916940Y1531620D03*
X713740Y1328420D03*
X713740Y1353820D03*
X713740Y1379220D03*
X713740Y1404620D03*
X713740Y1430020D03*
X713740Y1455420D03*
X713740Y1480820D03*
X713740Y1506220D03*
X713740Y1531620D03*
D12*
X846699Y1449568D02*
X852053Y1449568D01*
X846699Y1449568D02*
X846699Y1461272D01*
X852053Y1461272D01*
X852053Y1449568D01*
X852053Y1451962D02*
X846699Y1451962D01*
X846699Y1454356D02*
X852053Y1454356D01*
X852053Y1456750D02*
X846699Y1456750D01*
X846699Y1459144D02*
X852053Y1459144D01*
X854827Y1449568D02*
X860181Y1449568D01*
X854827Y1449568D02*
X854827Y1461272D01*
X860181Y1461272D01*
X860181Y1449568D01*
X860181Y1451962D02*
X854827Y1451962D01*
X854827Y1454356D02*
X860181Y1454356D01*
X860181Y1456750D02*
X854827Y1456750D01*
X854827Y1459144D02*
X860181Y1459144D01*
D11*
X1049020Y1487170D03*
D12*
X1006231Y1512072D02*
X1000623Y1512072D01*
X1006231Y1512072D02*
X1006231Y1500368D01*
X1000623Y1500368D01*
X1000623Y1512072D01*
X1000623Y1502762D02*
X1006231Y1502762D01*
X1006231Y1505156D02*
X1000623Y1505156D01*
X1000623Y1507550D02*
X1006231Y1507550D01*
X1006231Y1509944D02*
X1000623Y1509944D01*
X995817Y1512072D02*
X990209Y1512072D01*
X995817Y1512072D02*
X995817Y1500368D01*
X990209Y1500368D01*
X990209Y1512072D01*
X990209Y1502762D02*
X995817Y1502762D01*
X995817Y1505156D02*
X990209Y1505156D01*
X990209Y1507550D02*
X995817Y1507550D01*
X995817Y1509944D02*
X990209Y1509944D01*
X1008497Y1537472D02*
X1013851Y1537472D01*
X1013851Y1525768D01*
X1008497Y1525768D01*
X1008497Y1537472D01*
X1008497Y1528162D02*
X1013851Y1528162D01*
X1013851Y1530556D02*
X1008497Y1530556D01*
X1008497Y1532950D02*
X1013851Y1532950D01*
X1013851Y1535344D02*
X1008497Y1535344D01*
X1005723Y1537472D02*
X1000369Y1537472D01*
X1005723Y1537472D02*
X1005723Y1525768D01*
X1000369Y1525768D01*
X1000369Y1537472D01*
X1000369Y1528162D02*
X1005723Y1528162D01*
X1005723Y1530556D02*
X1000369Y1530556D01*
X1000369Y1532950D02*
X1005723Y1532950D01*
X1005723Y1535344D02*
X1000369Y1535344D01*
X1080379Y1424168D02*
X1085733Y1424168D01*
X1080379Y1424168D02*
X1080379Y1435872D01*
X1085733Y1435872D01*
X1085733Y1424168D01*
X1085733Y1426562D02*
X1080379Y1426562D01*
X1080379Y1428956D02*
X1085733Y1428956D01*
X1085733Y1431350D02*
X1080379Y1431350D01*
X1080379Y1433744D02*
X1085733Y1433744D01*
X1088507Y1424168D02*
X1093861Y1424168D01*
X1088507Y1424168D02*
X1088507Y1435872D01*
X1093861Y1435872D01*
X1093861Y1424168D01*
X1093861Y1426562D02*
X1088507Y1426562D01*
X1088507Y1428956D02*
X1093861Y1428956D01*
X1093861Y1431350D02*
X1088507Y1431350D01*
X1088507Y1433744D02*
X1093861Y1433744D01*
X1085733Y1398768D02*
X1080379Y1398768D01*
X1080379Y1410472D01*
X1085733Y1410472D01*
X1085733Y1398768D01*
X1085733Y1401162D02*
X1080379Y1401162D01*
X1080379Y1403556D02*
X1085733Y1403556D01*
X1085733Y1405950D02*
X1080379Y1405950D01*
X1080379Y1408344D02*
X1085733Y1408344D01*
X1088507Y1398768D02*
X1093861Y1398768D01*
X1088507Y1398768D02*
X1088507Y1410472D01*
X1093861Y1410472D01*
X1093861Y1398768D01*
X1093861Y1401162D02*
X1088507Y1401162D01*
X1088507Y1403556D02*
X1093861Y1403556D01*
X1093861Y1405950D02*
X1088507Y1405950D01*
X1088507Y1408344D02*
X1093861Y1408344D01*
X1085733Y1347968D02*
X1080379Y1347968D01*
X1080379Y1359672D01*
X1085733Y1359672D01*
X1085733Y1347968D01*
X1085733Y1350362D02*
X1080379Y1350362D01*
X1080379Y1352756D02*
X1085733Y1352756D01*
X1085733Y1355150D02*
X1080379Y1355150D01*
X1080379Y1357544D02*
X1085733Y1357544D01*
X1088507Y1347968D02*
X1093861Y1347968D01*
X1088507Y1347968D02*
X1088507Y1359672D01*
X1093861Y1359672D01*
X1093861Y1347968D01*
X1093861Y1350362D02*
X1088507Y1350362D01*
X1088507Y1352756D02*
X1093861Y1352756D01*
X1093861Y1355150D02*
X1088507Y1355150D01*
X1088507Y1357544D02*
X1093861Y1357544D01*
X1085733Y1373368D02*
X1080379Y1373368D01*
X1080379Y1385072D01*
X1085733Y1385072D01*
X1085733Y1373368D01*
X1085733Y1375762D02*
X1080379Y1375762D01*
X1080379Y1378156D02*
X1085733Y1378156D01*
X1085733Y1380550D02*
X1080379Y1380550D01*
X1080379Y1382944D02*
X1085733Y1382944D01*
X1088507Y1373368D02*
X1093861Y1373368D01*
X1088507Y1373368D02*
X1088507Y1385072D01*
X1093861Y1385072D01*
X1093861Y1373368D01*
X1093861Y1375762D02*
X1088507Y1375762D01*
X1088507Y1378156D02*
X1093861Y1378156D01*
X1093861Y1380550D02*
X1088507Y1380550D01*
X1088507Y1382944D02*
X1093861Y1382944D01*
X1085733Y1322568D02*
X1080379Y1322568D01*
X1080379Y1334272D01*
X1085733Y1334272D01*
X1085733Y1322568D01*
X1085733Y1324962D02*
X1080379Y1324962D01*
X1080379Y1327356D02*
X1085733Y1327356D01*
X1085733Y1329750D02*
X1080379Y1329750D01*
X1080379Y1332144D02*
X1085733Y1332144D01*
X1088507Y1322568D02*
X1093861Y1322568D01*
X1088507Y1322568D02*
X1088507Y1334272D01*
X1093861Y1334272D01*
X1093861Y1322568D01*
X1093861Y1324962D02*
X1088507Y1324962D01*
X1088507Y1327356D02*
X1093861Y1327356D01*
X1093861Y1329750D02*
X1088507Y1329750D01*
X1088507Y1332144D02*
X1093861Y1332144D01*
D13*
X947420Y1252220D03*
X1112520Y1518920D03*
D11*
X1150620Y1252220D03*
X1150620Y1277620D03*
X1150620Y1303020D03*
X1150620Y1328420D03*
X1150620Y1353820D03*
X1150620Y1379220D03*
X1150620Y1404620D03*
X1150620Y1430020D03*
X1150620Y1455420D03*
X1150620Y1480820D03*
X1150620Y1506220D03*
X1150620Y1531620D03*
X947420Y1328420D03*
X947420Y1353820D03*
X947420Y1379220D03*
X947420Y1404620D03*
X947420Y1430020D03*
X947420Y1455420D03*
X947420Y1480820D03*
X947420Y1506220D03*
X947420Y1531620D03*
D12*
X1080379Y1449568D02*
X1085733Y1449568D01*
X1080379Y1449568D02*
X1080379Y1461272D01*
X1085733Y1461272D01*
X1085733Y1449568D01*
X1085733Y1451962D02*
X1080379Y1451962D01*
X1080379Y1454356D02*
X1085733Y1454356D01*
X1085733Y1456750D02*
X1080379Y1456750D01*
X1080379Y1459144D02*
X1085733Y1459144D01*
X1088507Y1449568D02*
X1093861Y1449568D01*
X1088507Y1449568D02*
X1088507Y1461272D01*
X1093861Y1461272D01*
X1093861Y1449568D01*
X1093861Y1451962D02*
X1088507Y1451962D01*
X1088507Y1454356D02*
X1093861Y1454356D01*
X1093861Y1456750D02*
X1088507Y1456750D01*
X1088507Y1459144D02*
X1093861Y1459144D01*
D11*
X114300Y1797050D03*
D12*
X71511Y1821952D02*
X65903Y1821952D01*
X71511Y1821952D02*
X71511Y1810248D01*
X65903Y1810248D01*
X65903Y1821952D01*
X65903Y1812642D02*
X71511Y1812642D01*
X71511Y1815036D02*
X65903Y1815036D01*
X65903Y1817430D02*
X71511Y1817430D01*
X71511Y1819824D02*
X65903Y1819824D01*
X61097Y1821952D02*
X55489Y1821952D01*
X61097Y1821952D02*
X61097Y1810248D01*
X55489Y1810248D01*
X55489Y1821952D01*
X55489Y1812642D02*
X61097Y1812642D01*
X61097Y1815036D02*
X55489Y1815036D01*
X55489Y1817430D02*
X61097Y1817430D01*
X61097Y1819824D02*
X55489Y1819824D01*
X73777Y1847352D02*
X79131Y1847352D01*
X79131Y1835648D01*
X73777Y1835648D01*
X73777Y1847352D01*
X73777Y1838042D02*
X79131Y1838042D01*
X79131Y1840436D02*
X73777Y1840436D01*
X73777Y1842830D02*
X79131Y1842830D01*
X79131Y1845224D02*
X73777Y1845224D01*
X71003Y1847352D02*
X65649Y1847352D01*
X71003Y1847352D02*
X71003Y1835648D01*
X65649Y1835648D01*
X65649Y1847352D01*
X65649Y1838042D02*
X71003Y1838042D01*
X71003Y1840436D02*
X65649Y1840436D01*
X65649Y1842830D02*
X71003Y1842830D01*
X71003Y1845224D02*
X65649Y1845224D01*
X145659Y1734048D02*
X151013Y1734048D01*
X145659Y1734048D02*
X145659Y1745752D01*
X151013Y1745752D01*
X151013Y1734048D01*
X151013Y1736442D02*
X145659Y1736442D01*
X145659Y1738836D02*
X151013Y1738836D01*
X151013Y1741230D02*
X145659Y1741230D01*
X145659Y1743624D02*
X151013Y1743624D01*
X153787Y1734048D02*
X159141Y1734048D01*
X153787Y1734048D02*
X153787Y1745752D01*
X159141Y1745752D01*
X159141Y1734048D01*
X159141Y1736442D02*
X153787Y1736442D01*
X153787Y1738836D02*
X159141Y1738836D01*
X159141Y1741230D02*
X153787Y1741230D01*
X153787Y1743624D02*
X159141Y1743624D01*
X151013Y1708648D02*
X145659Y1708648D01*
X145659Y1720352D01*
X151013Y1720352D01*
X151013Y1708648D01*
X151013Y1711042D02*
X145659Y1711042D01*
X145659Y1713436D02*
X151013Y1713436D01*
X151013Y1715830D02*
X145659Y1715830D01*
X145659Y1718224D02*
X151013Y1718224D01*
X153787Y1708648D02*
X159141Y1708648D01*
X153787Y1708648D02*
X153787Y1720352D01*
X159141Y1720352D01*
X159141Y1708648D01*
X159141Y1711042D02*
X153787Y1711042D01*
X153787Y1713436D02*
X159141Y1713436D01*
X159141Y1715830D02*
X153787Y1715830D01*
X153787Y1718224D02*
X159141Y1718224D01*
X151013Y1657848D02*
X145659Y1657848D01*
X145659Y1669552D01*
X151013Y1669552D01*
X151013Y1657848D01*
X151013Y1660242D02*
X145659Y1660242D01*
X145659Y1662636D02*
X151013Y1662636D01*
X151013Y1665030D02*
X145659Y1665030D01*
X145659Y1667424D02*
X151013Y1667424D01*
X153787Y1657848D02*
X159141Y1657848D01*
X153787Y1657848D02*
X153787Y1669552D01*
X159141Y1669552D01*
X159141Y1657848D01*
X159141Y1660242D02*
X153787Y1660242D01*
X153787Y1662636D02*
X159141Y1662636D01*
X159141Y1665030D02*
X153787Y1665030D01*
X153787Y1667424D02*
X159141Y1667424D01*
X151013Y1683248D02*
X145659Y1683248D01*
X145659Y1694952D01*
X151013Y1694952D01*
X151013Y1683248D01*
X151013Y1685642D02*
X145659Y1685642D01*
X145659Y1688036D02*
X151013Y1688036D01*
X151013Y1690430D02*
X145659Y1690430D01*
X145659Y1692824D02*
X151013Y1692824D01*
X153787Y1683248D02*
X159141Y1683248D01*
X153787Y1683248D02*
X153787Y1694952D01*
X159141Y1694952D01*
X159141Y1683248D01*
X159141Y1685642D02*
X153787Y1685642D01*
X153787Y1688036D02*
X159141Y1688036D01*
X159141Y1690430D02*
X153787Y1690430D01*
X153787Y1692824D02*
X159141Y1692824D01*
X151013Y1632448D02*
X145659Y1632448D01*
X145659Y1644152D01*
X151013Y1644152D01*
X151013Y1632448D01*
X151013Y1634842D02*
X145659Y1634842D01*
X145659Y1637236D02*
X151013Y1637236D01*
X151013Y1639630D02*
X145659Y1639630D01*
X145659Y1642024D02*
X151013Y1642024D01*
X153787Y1632448D02*
X159141Y1632448D01*
X153787Y1632448D02*
X153787Y1644152D01*
X159141Y1644152D01*
X159141Y1632448D01*
X159141Y1634842D02*
X153787Y1634842D01*
X153787Y1637236D02*
X159141Y1637236D01*
X159141Y1639630D02*
X153787Y1639630D01*
X153787Y1642024D02*
X159141Y1642024D01*
D13*
X12700Y1562100D03*
X177800Y1828800D03*
D11*
X215900Y1562100D03*
X215900Y1587500D03*
X215900Y1612900D03*
X215900Y1638300D03*
X215900Y1663700D03*
X215900Y1689100D03*
X215900Y1714500D03*
X215900Y1739900D03*
X215900Y1765300D03*
X215900Y1790700D03*
X215900Y1816100D03*
X215900Y1841500D03*
X12700Y1638300D03*
X12700Y1663700D03*
X12700Y1689100D03*
X12700Y1714500D03*
X12700Y1739900D03*
X12700Y1765300D03*
X12700Y1790700D03*
X12700Y1816100D03*
X12700Y1841500D03*
D12*
X145659Y1759448D02*
X151013Y1759448D01*
X145659Y1759448D02*
X145659Y1771152D01*
X151013Y1771152D01*
X151013Y1759448D01*
X151013Y1761842D02*
X145659Y1761842D01*
X145659Y1764236D02*
X151013Y1764236D01*
X151013Y1766630D02*
X145659Y1766630D01*
X145659Y1769024D02*
X151013Y1769024D01*
X153787Y1759448D02*
X159141Y1759448D01*
X153787Y1759448D02*
X153787Y1771152D01*
X159141Y1771152D01*
X159141Y1759448D01*
X159141Y1761842D02*
X153787Y1761842D01*
X153787Y1764236D02*
X159141Y1764236D01*
X159141Y1766630D02*
X153787Y1766630D01*
X153787Y1769024D02*
X159141Y1769024D01*
D11*
X347980Y1797050D03*
D12*
X305191Y1821952D02*
X299583Y1821952D01*
X305191Y1821952D02*
X305191Y1810248D01*
X299583Y1810248D01*
X299583Y1821952D01*
X299583Y1812642D02*
X305191Y1812642D01*
X305191Y1815036D02*
X299583Y1815036D01*
X299583Y1817430D02*
X305191Y1817430D01*
X305191Y1819824D02*
X299583Y1819824D01*
X294777Y1821952D02*
X289169Y1821952D01*
X294777Y1821952D02*
X294777Y1810248D01*
X289169Y1810248D01*
X289169Y1821952D01*
X289169Y1812642D02*
X294777Y1812642D01*
X294777Y1815036D02*
X289169Y1815036D01*
X289169Y1817430D02*
X294777Y1817430D01*
X294777Y1819824D02*
X289169Y1819824D01*
X307457Y1847352D02*
X312811Y1847352D01*
X312811Y1835648D01*
X307457Y1835648D01*
X307457Y1847352D01*
X307457Y1838042D02*
X312811Y1838042D01*
X312811Y1840436D02*
X307457Y1840436D01*
X307457Y1842830D02*
X312811Y1842830D01*
X312811Y1845224D02*
X307457Y1845224D01*
X304683Y1847352D02*
X299329Y1847352D01*
X304683Y1847352D02*
X304683Y1835648D01*
X299329Y1835648D01*
X299329Y1847352D01*
X299329Y1838042D02*
X304683Y1838042D01*
X304683Y1840436D02*
X299329Y1840436D01*
X299329Y1842830D02*
X304683Y1842830D01*
X304683Y1845224D02*
X299329Y1845224D01*
X379339Y1734048D02*
X384693Y1734048D01*
X379339Y1734048D02*
X379339Y1745752D01*
X384693Y1745752D01*
X384693Y1734048D01*
X384693Y1736442D02*
X379339Y1736442D01*
X379339Y1738836D02*
X384693Y1738836D01*
X384693Y1741230D02*
X379339Y1741230D01*
X379339Y1743624D02*
X384693Y1743624D01*
X387467Y1734048D02*
X392821Y1734048D01*
X387467Y1734048D02*
X387467Y1745752D01*
X392821Y1745752D01*
X392821Y1734048D01*
X392821Y1736442D02*
X387467Y1736442D01*
X387467Y1738836D02*
X392821Y1738836D01*
X392821Y1741230D02*
X387467Y1741230D01*
X387467Y1743624D02*
X392821Y1743624D01*
X384693Y1708648D02*
X379339Y1708648D01*
X379339Y1720352D01*
X384693Y1720352D01*
X384693Y1708648D01*
X384693Y1711042D02*
X379339Y1711042D01*
X379339Y1713436D02*
X384693Y1713436D01*
X384693Y1715830D02*
X379339Y1715830D01*
X379339Y1718224D02*
X384693Y1718224D01*
X387467Y1708648D02*
X392821Y1708648D01*
X387467Y1708648D02*
X387467Y1720352D01*
X392821Y1720352D01*
X392821Y1708648D01*
X392821Y1711042D02*
X387467Y1711042D01*
X387467Y1713436D02*
X392821Y1713436D01*
X392821Y1715830D02*
X387467Y1715830D01*
X387467Y1718224D02*
X392821Y1718224D01*
X384693Y1657848D02*
X379339Y1657848D01*
X379339Y1669552D01*
X384693Y1669552D01*
X384693Y1657848D01*
X384693Y1660242D02*
X379339Y1660242D01*
X379339Y1662636D02*
X384693Y1662636D01*
X384693Y1665030D02*
X379339Y1665030D01*
X379339Y1667424D02*
X384693Y1667424D01*
X387467Y1657848D02*
X392821Y1657848D01*
X387467Y1657848D02*
X387467Y1669552D01*
X392821Y1669552D01*
X392821Y1657848D01*
X392821Y1660242D02*
X387467Y1660242D01*
X387467Y1662636D02*
X392821Y1662636D01*
X392821Y1665030D02*
X387467Y1665030D01*
X387467Y1667424D02*
X392821Y1667424D01*
X384693Y1683248D02*
X379339Y1683248D01*
X379339Y1694952D01*
X384693Y1694952D01*
X384693Y1683248D01*
X384693Y1685642D02*
X379339Y1685642D01*
X379339Y1688036D02*
X384693Y1688036D01*
X384693Y1690430D02*
X379339Y1690430D01*
X379339Y1692824D02*
X384693Y1692824D01*
X387467Y1683248D02*
X392821Y1683248D01*
X387467Y1683248D02*
X387467Y1694952D01*
X392821Y1694952D01*
X392821Y1683248D01*
X392821Y1685642D02*
X387467Y1685642D01*
X387467Y1688036D02*
X392821Y1688036D01*
X392821Y1690430D02*
X387467Y1690430D01*
X387467Y1692824D02*
X392821Y1692824D01*
X384693Y1632448D02*
X379339Y1632448D01*
X379339Y1644152D01*
X384693Y1644152D01*
X384693Y1632448D01*
X384693Y1634842D02*
X379339Y1634842D01*
X379339Y1637236D02*
X384693Y1637236D01*
X384693Y1639630D02*
X379339Y1639630D01*
X379339Y1642024D02*
X384693Y1642024D01*
X387467Y1632448D02*
X392821Y1632448D01*
X387467Y1632448D02*
X387467Y1644152D01*
X392821Y1644152D01*
X392821Y1632448D01*
X392821Y1634842D02*
X387467Y1634842D01*
X387467Y1637236D02*
X392821Y1637236D01*
X392821Y1639630D02*
X387467Y1639630D01*
X387467Y1642024D02*
X392821Y1642024D01*
D13*
X246380Y1562100D03*
X411480Y1828800D03*
D11*
X449580Y1562100D03*
X449580Y1587500D03*
X449580Y1612900D03*
X449580Y1638300D03*
X449580Y1663700D03*
X449580Y1689100D03*
X449580Y1714500D03*
X449580Y1739900D03*
X449580Y1765300D03*
X449580Y1790700D03*
X449580Y1816100D03*
X449580Y1841500D03*
X246380Y1638300D03*
X246380Y1663700D03*
X246380Y1689100D03*
X246380Y1714500D03*
X246380Y1739900D03*
X246380Y1765300D03*
X246380Y1790700D03*
X246380Y1816100D03*
X246380Y1841500D03*
D12*
X379339Y1759448D02*
X384693Y1759448D01*
X379339Y1759448D02*
X379339Y1771152D01*
X384693Y1771152D01*
X384693Y1759448D01*
X384693Y1761842D02*
X379339Y1761842D01*
X379339Y1764236D02*
X384693Y1764236D01*
X384693Y1766630D02*
X379339Y1766630D01*
X379339Y1769024D02*
X384693Y1769024D01*
X387467Y1759448D02*
X392821Y1759448D01*
X387467Y1759448D02*
X387467Y1771152D01*
X392821Y1771152D01*
X392821Y1759448D01*
X392821Y1761842D02*
X387467Y1761842D01*
X387467Y1764236D02*
X392821Y1764236D01*
X392821Y1766630D02*
X387467Y1766630D01*
X387467Y1769024D02*
X392821Y1769024D01*
D11*
X581660Y1797050D03*
D12*
X538871Y1821952D02*
X533263Y1821952D01*
X538871Y1821952D02*
X538871Y1810248D01*
X533263Y1810248D01*
X533263Y1821952D01*
X533263Y1812642D02*
X538871Y1812642D01*
X538871Y1815036D02*
X533263Y1815036D01*
X533263Y1817430D02*
X538871Y1817430D01*
X538871Y1819824D02*
X533263Y1819824D01*
X528457Y1821952D02*
X522849Y1821952D01*
X528457Y1821952D02*
X528457Y1810248D01*
X522849Y1810248D01*
X522849Y1821952D01*
X522849Y1812642D02*
X528457Y1812642D01*
X528457Y1815036D02*
X522849Y1815036D01*
X522849Y1817430D02*
X528457Y1817430D01*
X528457Y1819824D02*
X522849Y1819824D01*
X541137Y1847352D02*
X546491Y1847352D01*
X546491Y1835648D01*
X541137Y1835648D01*
X541137Y1847352D01*
X541137Y1838042D02*
X546491Y1838042D01*
X546491Y1840436D02*
X541137Y1840436D01*
X541137Y1842830D02*
X546491Y1842830D01*
X546491Y1845224D02*
X541137Y1845224D01*
X538363Y1847352D02*
X533009Y1847352D01*
X538363Y1847352D02*
X538363Y1835648D01*
X533009Y1835648D01*
X533009Y1847352D01*
X533009Y1838042D02*
X538363Y1838042D01*
X538363Y1840436D02*
X533009Y1840436D01*
X533009Y1842830D02*
X538363Y1842830D01*
X538363Y1845224D02*
X533009Y1845224D01*
X613019Y1734048D02*
X618373Y1734048D01*
X613019Y1734048D02*
X613019Y1745752D01*
X618373Y1745752D01*
X618373Y1734048D01*
X618373Y1736442D02*
X613019Y1736442D01*
X613019Y1738836D02*
X618373Y1738836D01*
X618373Y1741230D02*
X613019Y1741230D01*
X613019Y1743624D02*
X618373Y1743624D01*
X621147Y1734048D02*
X626501Y1734048D01*
X621147Y1734048D02*
X621147Y1745752D01*
X626501Y1745752D01*
X626501Y1734048D01*
X626501Y1736442D02*
X621147Y1736442D01*
X621147Y1738836D02*
X626501Y1738836D01*
X626501Y1741230D02*
X621147Y1741230D01*
X621147Y1743624D02*
X626501Y1743624D01*
X618373Y1708648D02*
X613019Y1708648D01*
X613019Y1720352D01*
X618373Y1720352D01*
X618373Y1708648D01*
X618373Y1711042D02*
X613019Y1711042D01*
X613019Y1713436D02*
X618373Y1713436D01*
X618373Y1715830D02*
X613019Y1715830D01*
X613019Y1718224D02*
X618373Y1718224D01*
X621147Y1708648D02*
X626501Y1708648D01*
X621147Y1708648D02*
X621147Y1720352D01*
X626501Y1720352D01*
X626501Y1708648D01*
X626501Y1711042D02*
X621147Y1711042D01*
X621147Y1713436D02*
X626501Y1713436D01*
X626501Y1715830D02*
X621147Y1715830D01*
X621147Y1718224D02*
X626501Y1718224D01*
X618373Y1657848D02*
X613019Y1657848D01*
X613019Y1669552D01*
X618373Y1669552D01*
X618373Y1657848D01*
X618373Y1660242D02*
X613019Y1660242D01*
X613019Y1662636D02*
X618373Y1662636D01*
X618373Y1665030D02*
X613019Y1665030D01*
X613019Y1667424D02*
X618373Y1667424D01*
X621147Y1657848D02*
X626501Y1657848D01*
X621147Y1657848D02*
X621147Y1669552D01*
X626501Y1669552D01*
X626501Y1657848D01*
X626501Y1660242D02*
X621147Y1660242D01*
X621147Y1662636D02*
X626501Y1662636D01*
X626501Y1665030D02*
X621147Y1665030D01*
X621147Y1667424D02*
X626501Y1667424D01*
X618373Y1683248D02*
X613019Y1683248D01*
X613019Y1694952D01*
X618373Y1694952D01*
X618373Y1683248D01*
X618373Y1685642D02*
X613019Y1685642D01*
X613019Y1688036D02*
X618373Y1688036D01*
X618373Y1690430D02*
X613019Y1690430D01*
X613019Y1692824D02*
X618373Y1692824D01*
X621147Y1683248D02*
X626501Y1683248D01*
X621147Y1683248D02*
X621147Y1694952D01*
X626501Y1694952D01*
X626501Y1683248D01*
X626501Y1685642D02*
X621147Y1685642D01*
X621147Y1688036D02*
X626501Y1688036D01*
X626501Y1690430D02*
X621147Y1690430D01*
X621147Y1692824D02*
X626501Y1692824D01*
X618373Y1632448D02*
X613019Y1632448D01*
X613019Y1644152D01*
X618373Y1644152D01*
X618373Y1632448D01*
X618373Y1634842D02*
X613019Y1634842D01*
X613019Y1637236D02*
X618373Y1637236D01*
X618373Y1639630D02*
X613019Y1639630D01*
X613019Y1642024D02*
X618373Y1642024D01*
X621147Y1632448D02*
X626501Y1632448D01*
X621147Y1632448D02*
X621147Y1644152D01*
X626501Y1644152D01*
X626501Y1632448D01*
X626501Y1634842D02*
X621147Y1634842D01*
X621147Y1637236D02*
X626501Y1637236D01*
X626501Y1639630D02*
X621147Y1639630D01*
X621147Y1642024D02*
X626501Y1642024D01*
D13*
X480060Y1562100D03*
X645160Y1828800D03*
D11*
X683260Y1562100D03*
X683260Y1587500D03*
X683260Y1612900D03*
X683260Y1638300D03*
X683260Y1663700D03*
X683260Y1689100D03*
X683260Y1714500D03*
X683260Y1739900D03*
X683260Y1765300D03*
X683260Y1790700D03*
X683260Y1816100D03*
X683260Y1841500D03*
X480060Y1638300D03*
X480060Y1663700D03*
X480060Y1689100D03*
X480060Y1714500D03*
X480060Y1739900D03*
X480060Y1765300D03*
X480060Y1790700D03*
X480060Y1816100D03*
X480060Y1841500D03*
D12*
X613019Y1759448D02*
X618373Y1759448D01*
X613019Y1759448D02*
X613019Y1771152D01*
X618373Y1771152D01*
X618373Y1759448D01*
X618373Y1761842D02*
X613019Y1761842D01*
X613019Y1764236D02*
X618373Y1764236D01*
X618373Y1766630D02*
X613019Y1766630D01*
X613019Y1769024D02*
X618373Y1769024D01*
X621147Y1759448D02*
X626501Y1759448D01*
X621147Y1759448D02*
X621147Y1771152D01*
X626501Y1771152D01*
X626501Y1759448D01*
X626501Y1761842D02*
X621147Y1761842D01*
X621147Y1764236D02*
X626501Y1764236D01*
X626501Y1766630D02*
X621147Y1766630D01*
X621147Y1769024D02*
X626501Y1769024D01*
D11*
X815340Y1797050D03*
D12*
X772551Y1821952D02*
X766943Y1821952D01*
X772551Y1821952D02*
X772551Y1810248D01*
X766943Y1810248D01*
X766943Y1821952D01*
X766943Y1812642D02*
X772551Y1812642D01*
X772551Y1815036D02*
X766943Y1815036D01*
X766943Y1817430D02*
X772551Y1817430D01*
X772551Y1819824D02*
X766943Y1819824D01*
X762137Y1821952D02*
X756529Y1821952D01*
X762137Y1821952D02*
X762137Y1810248D01*
X756529Y1810248D01*
X756529Y1821952D01*
X756529Y1812642D02*
X762137Y1812642D01*
X762137Y1815036D02*
X756529Y1815036D01*
X756529Y1817430D02*
X762137Y1817430D01*
X762137Y1819824D02*
X756529Y1819824D01*
X774817Y1847352D02*
X780171Y1847352D01*
X780171Y1835648D01*
X774817Y1835648D01*
X774817Y1847352D01*
X774817Y1838042D02*
X780171Y1838042D01*
X780171Y1840436D02*
X774817Y1840436D01*
X774817Y1842830D02*
X780171Y1842830D01*
X780171Y1845224D02*
X774817Y1845224D01*
X772043Y1847352D02*
X766689Y1847352D01*
X772043Y1847352D02*
X772043Y1835648D01*
X766689Y1835648D01*
X766689Y1847352D01*
X766689Y1838042D02*
X772043Y1838042D01*
X772043Y1840436D02*
X766689Y1840436D01*
X766689Y1842830D02*
X772043Y1842830D01*
X772043Y1845224D02*
X766689Y1845224D01*
X846699Y1734048D02*
X852053Y1734048D01*
X846699Y1734048D02*
X846699Y1745752D01*
X852053Y1745752D01*
X852053Y1734048D01*
X852053Y1736442D02*
X846699Y1736442D01*
X846699Y1738836D02*
X852053Y1738836D01*
X852053Y1741230D02*
X846699Y1741230D01*
X846699Y1743624D02*
X852053Y1743624D01*
X854827Y1734048D02*
X860181Y1734048D01*
X854827Y1734048D02*
X854827Y1745752D01*
X860181Y1745752D01*
X860181Y1734048D01*
X860181Y1736442D02*
X854827Y1736442D01*
X854827Y1738836D02*
X860181Y1738836D01*
X860181Y1741230D02*
X854827Y1741230D01*
X854827Y1743624D02*
X860181Y1743624D01*
X852053Y1708648D02*
X846699Y1708648D01*
X846699Y1720352D01*
X852053Y1720352D01*
X852053Y1708648D01*
X852053Y1711042D02*
X846699Y1711042D01*
X846699Y1713436D02*
X852053Y1713436D01*
X852053Y1715830D02*
X846699Y1715830D01*
X846699Y1718224D02*
X852053Y1718224D01*
X854827Y1708648D02*
X860181Y1708648D01*
X854827Y1708648D02*
X854827Y1720352D01*
X860181Y1720352D01*
X860181Y1708648D01*
X860181Y1711042D02*
X854827Y1711042D01*
X854827Y1713436D02*
X860181Y1713436D01*
X860181Y1715830D02*
X854827Y1715830D01*
X854827Y1718224D02*
X860181Y1718224D01*
X852053Y1657848D02*
X846699Y1657848D01*
X846699Y1669552D01*
X852053Y1669552D01*
X852053Y1657848D01*
X852053Y1660242D02*
X846699Y1660242D01*
X846699Y1662636D02*
X852053Y1662636D01*
X852053Y1665030D02*
X846699Y1665030D01*
X846699Y1667424D02*
X852053Y1667424D01*
X854827Y1657848D02*
X860181Y1657848D01*
X854827Y1657848D02*
X854827Y1669552D01*
X860181Y1669552D01*
X860181Y1657848D01*
X860181Y1660242D02*
X854827Y1660242D01*
X854827Y1662636D02*
X860181Y1662636D01*
X860181Y1665030D02*
X854827Y1665030D01*
X854827Y1667424D02*
X860181Y1667424D01*
X852053Y1683248D02*
X846699Y1683248D01*
X846699Y1694952D01*
X852053Y1694952D01*
X852053Y1683248D01*
X852053Y1685642D02*
X846699Y1685642D01*
X846699Y1688036D02*
X852053Y1688036D01*
X852053Y1690430D02*
X846699Y1690430D01*
X846699Y1692824D02*
X852053Y1692824D01*
X854827Y1683248D02*
X860181Y1683248D01*
X854827Y1683248D02*
X854827Y1694952D01*
X860181Y1694952D01*
X860181Y1683248D01*
X860181Y1685642D02*
X854827Y1685642D01*
X854827Y1688036D02*
X860181Y1688036D01*
X860181Y1690430D02*
X854827Y1690430D01*
X854827Y1692824D02*
X860181Y1692824D01*
X852053Y1632448D02*
X846699Y1632448D01*
X846699Y1644152D01*
X852053Y1644152D01*
X852053Y1632448D01*
X852053Y1634842D02*
X846699Y1634842D01*
X846699Y1637236D02*
X852053Y1637236D01*
X852053Y1639630D02*
X846699Y1639630D01*
X846699Y1642024D02*
X852053Y1642024D01*
X854827Y1632448D02*
X860181Y1632448D01*
X854827Y1632448D02*
X854827Y1644152D01*
X860181Y1644152D01*
X860181Y1632448D01*
X860181Y1634842D02*
X854827Y1634842D01*
X854827Y1637236D02*
X860181Y1637236D01*
X860181Y1639630D02*
X854827Y1639630D01*
X854827Y1642024D02*
X860181Y1642024D01*
D13*
X713740Y1562100D03*
X878840Y1828800D03*
D11*
X916940Y1562100D03*
X916940Y1587500D03*
X916940Y1612900D03*
X916940Y1638300D03*
X916940Y1663700D03*
X916940Y1689100D03*
X916940Y1714500D03*
X916940Y1739900D03*
X916940Y1765300D03*
X916940Y1790700D03*
X916940Y1816100D03*
X916940Y1841500D03*
X713740Y1638300D03*
X713740Y1663700D03*
X713740Y1689100D03*
X713740Y1714500D03*
X713740Y1739900D03*
X713740Y1765300D03*
X713740Y1790700D03*
X713740Y1816100D03*
X713740Y1841500D03*
D12*
X846699Y1759448D02*
X852053Y1759448D01*
X846699Y1759448D02*
X846699Y1771152D01*
X852053Y1771152D01*
X852053Y1759448D01*
X852053Y1761842D02*
X846699Y1761842D01*
X846699Y1764236D02*
X852053Y1764236D01*
X852053Y1766630D02*
X846699Y1766630D01*
X846699Y1769024D02*
X852053Y1769024D01*
X854827Y1759448D02*
X860181Y1759448D01*
X854827Y1759448D02*
X854827Y1771152D01*
X860181Y1771152D01*
X860181Y1759448D01*
X860181Y1761842D02*
X854827Y1761842D01*
X854827Y1764236D02*
X860181Y1764236D01*
X860181Y1766630D02*
X854827Y1766630D01*
X854827Y1769024D02*
X860181Y1769024D01*
D11*
X1049020Y1797050D03*
D12*
X1006231Y1821952D02*
X1000623Y1821952D01*
X1006231Y1821952D02*
X1006231Y1810248D01*
X1000623Y1810248D01*
X1000623Y1821952D01*
X1000623Y1812642D02*
X1006231Y1812642D01*
X1006231Y1815036D02*
X1000623Y1815036D01*
X1000623Y1817430D02*
X1006231Y1817430D01*
X1006231Y1819824D02*
X1000623Y1819824D01*
X995817Y1821952D02*
X990209Y1821952D01*
X995817Y1821952D02*
X995817Y1810248D01*
X990209Y1810248D01*
X990209Y1821952D01*
X990209Y1812642D02*
X995817Y1812642D01*
X995817Y1815036D02*
X990209Y1815036D01*
X990209Y1817430D02*
X995817Y1817430D01*
X995817Y1819824D02*
X990209Y1819824D01*
X1008497Y1847352D02*
X1013851Y1847352D01*
X1013851Y1835648D01*
X1008497Y1835648D01*
X1008497Y1847352D01*
X1008497Y1838042D02*
X1013851Y1838042D01*
X1013851Y1840436D02*
X1008497Y1840436D01*
X1008497Y1842830D02*
X1013851Y1842830D01*
X1013851Y1845224D02*
X1008497Y1845224D01*
X1005723Y1847352D02*
X1000369Y1847352D01*
X1005723Y1847352D02*
X1005723Y1835648D01*
X1000369Y1835648D01*
X1000369Y1847352D01*
X1000369Y1838042D02*
X1005723Y1838042D01*
X1005723Y1840436D02*
X1000369Y1840436D01*
X1000369Y1842830D02*
X1005723Y1842830D01*
X1005723Y1845224D02*
X1000369Y1845224D01*
X1080379Y1734048D02*
X1085733Y1734048D01*
X1080379Y1734048D02*
X1080379Y1745752D01*
X1085733Y1745752D01*
X1085733Y1734048D01*
X1085733Y1736442D02*
X1080379Y1736442D01*
X1080379Y1738836D02*
X1085733Y1738836D01*
X1085733Y1741230D02*
X1080379Y1741230D01*
X1080379Y1743624D02*
X1085733Y1743624D01*
X1088507Y1734048D02*
X1093861Y1734048D01*
X1088507Y1734048D02*
X1088507Y1745752D01*
X1093861Y1745752D01*
X1093861Y1734048D01*
X1093861Y1736442D02*
X1088507Y1736442D01*
X1088507Y1738836D02*
X1093861Y1738836D01*
X1093861Y1741230D02*
X1088507Y1741230D01*
X1088507Y1743624D02*
X1093861Y1743624D01*
X1085733Y1708648D02*
X1080379Y1708648D01*
X1080379Y1720352D01*
X1085733Y1720352D01*
X1085733Y1708648D01*
X1085733Y1711042D02*
X1080379Y1711042D01*
X1080379Y1713436D02*
X1085733Y1713436D01*
X1085733Y1715830D02*
X1080379Y1715830D01*
X1080379Y1718224D02*
X1085733Y1718224D01*
X1088507Y1708648D02*
X1093861Y1708648D01*
X1088507Y1708648D02*
X1088507Y1720352D01*
X1093861Y1720352D01*
X1093861Y1708648D01*
X1093861Y1711042D02*
X1088507Y1711042D01*
X1088507Y1713436D02*
X1093861Y1713436D01*
X1093861Y1715830D02*
X1088507Y1715830D01*
X1088507Y1718224D02*
X1093861Y1718224D01*
X1085733Y1657848D02*
X1080379Y1657848D01*
X1080379Y1669552D01*
X1085733Y1669552D01*
X1085733Y1657848D01*
X1085733Y1660242D02*
X1080379Y1660242D01*
X1080379Y1662636D02*
X1085733Y1662636D01*
X1085733Y1665030D02*
X1080379Y1665030D01*
X1080379Y1667424D02*
X1085733Y1667424D01*
X1088507Y1657848D02*
X1093861Y1657848D01*
X1088507Y1657848D02*
X1088507Y1669552D01*
X1093861Y1669552D01*
X1093861Y1657848D01*
X1093861Y1660242D02*
X1088507Y1660242D01*
X1088507Y1662636D02*
X1093861Y1662636D01*
X1093861Y1665030D02*
X1088507Y1665030D01*
X1088507Y1667424D02*
X1093861Y1667424D01*
X1085733Y1683248D02*
X1080379Y1683248D01*
X1080379Y1694952D01*
X1085733Y1694952D01*
X1085733Y1683248D01*
X1085733Y1685642D02*
X1080379Y1685642D01*
X1080379Y1688036D02*
X1085733Y1688036D01*
X1085733Y1690430D02*
X1080379Y1690430D01*
X1080379Y1692824D02*
X1085733Y1692824D01*
X1088507Y1683248D02*
X1093861Y1683248D01*
X1088507Y1683248D02*
X1088507Y1694952D01*
X1093861Y1694952D01*
X1093861Y1683248D01*
X1093861Y1685642D02*
X1088507Y1685642D01*
X1088507Y1688036D02*
X1093861Y1688036D01*
X1093861Y1690430D02*
X1088507Y1690430D01*
X1088507Y1692824D02*
X1093861Y1692824D01*
X1085733Y1632448D02*
X1080379Y1632448D01*
X1080379Y1644152D01*
X1085733Y1644152D01*
X1085733Y1632448D01*
X1085733Y1634842D02*
X1080379Y1634842D01*
X1080379Y1637236D02*
X1085733Y1637236D01*
X1085733Y1639630D02*
X1080379Y1639630D01*
X1080379Y1642024D02*
X1085733Y1642024D01*
X1088507Y1632448D02*
X1093861Y1632448D01*
X1088507Y1632448D02*
X1088507Y1644152D01*
X1093861Y1644152D01*
X1093861Y1632448D01*
X1093861Y1634842D02*
X1088507Y1634842D01*
X1088507Y1637236D02*
X1093861Y1637236D01*
X1093861Y1639630D02*
X1088507Y1639630D01*
X1088507Y1642024D02*
X1093861Y1642024D01*
D13*
X947420Y1562100D03*
X1112520Y1828800D03*
D11*
X1150620Y1562100D03*
X1150620Y1587500D03*
X1150620Y1612900D03*
X1150620Y1638300D03*
X1150620Y1663700D03*
X1150620Y1689100D03*
X1150620Y1714500D03*
X1150620Y1739900D03*
X1150620Y1765300D03*
X1150620Y1790700D03*
X1150620Y1816100D03*
X1150620Y1841500D03*
X947420Y1638300D03*
X947420Y1663700D03*
X947420Y1689100D03*
X947420Y1714500D03*
X947420Y1739900D03*
X947420Y1765300D03*
X947420Y1790700D03*
X947420Y1816100D03*
X947420Y1841500D03*
D12*
X1080379Y1759448D02*
X1085733Y1759448D01*
X1080379Y1759448D02*
X1080379Y1771152D01*
X1085733Y1771152D01*
X1085733Y1759448D01*
X1085733Y1761842D02*
X1080379Y1761842D01*
X1080379Y1764236D02*
X1085733Y1764236D01*
X1085733Y1766630D02*
X1080379Y1766630D01*
X1080379Y1769024D02*
X1085733Y1769024D01*
X1088507Y1759448D02*
X1093861Y1759448D01*
X1088507Y1759448D02*
X1088507Y1771152D01*
X1093861Y1771152D01*
X1093861Y1759448D01*
X1093861Y1761842D02*
X1088507Y1761842D01*
X1088507Y1764236D02*
X1093861Y1764236D01*
X1093861Y1766630D02*
X1088507Y1766630D01*
X1088507Y1769024D02*
X1093861Y1769024D01*
D13*
X-26238Y1827530D03*
X1189558Y1827530D03*
D14*
X-35293Y63500D02*
X-35290Y63722D01*
X-35282Y63944D01*
X-35268Y64166D01*
X-35249Y64388D01*
X-35225Y64608D01*
X-35195Y64829D01*
X-35160Y65048D01*
X-35119Y65267D01*
X-35073Y65484D01*
X-35022Y65700D01*
X-34965Y65915D01*
X-34903Y66129D01*
X-34836Y66340D01*
X-34764Y66551D01*
X-34686Y66759D01*
X-34604Y66965D01*
X-34516Y67169D01*
X-34424Y67372D01*
X-34326Y67571D01*
X-34224Y67768D01*
X-34117Y67963D01*
X-34005Y68155D01*
X-33888Y68344D01*
X-33767Y68531D01*
X-33641Y68714D01*
X-33511Y68894D01*
X-33376Y69071D01*
X-33238Y69244D01*
X-33095Y69414D01*
X-32947Y69581D01*
X-32796Y69744D01*
X-32641Y69903D01*
X-32482Y70058D01*
X-32319Y70209D01*
X-32152Y70357D01*
X-31982Y70500D01*
X-31809Y70638D01*
X-31632Y70773D01*
X-31452Y70903D01*
X-31269Y71029D01*
X-31082Y71150D01*
X-30893Y71267D01*
X-30701Y71379D01*
X-30506Y71486D01*
X-30309Y71588D01*
X-30110Y71686D01*
X-29907Y71778D01*
X-29703Y71866D01*
X-29497Y71948D01*
X-29289Y72026D01*
X-29078Y72098D01*
X-28867Y72165D01*
X-28653Y72227D01*
X-28438Y72284D01*
X-28222Y72335D01*
X-28005Y72381D01*
X-27786Y72422D01*
X-27567Y72457D01*
X-27346Y72487D01*
X-27126Y72511D01*
X-26904Y72530D01*
X-26682Y72544D01*
X-26460Y72552D01*
X-26238Y72555D01*
X-26016Y72552D01*
X-25794Y72544D01*
X-25572Y72530D01*
X-25350Y72511D01*
X-25130Y72487D01*
X-24909Y72457D01*
X-24690Y72422D01*
X-24471Y72381D01*
X-24254Y72335D01*
X-24038Y72284D01*
X-23823Y72227D01*
X-23609Y72165D01*
X-23398Y72098D01*
X-23187Y72026D01*
X-22979Y71948D01*
X-22773Y71866D01*
X-22569Y71778D01*
X-22366Y71686D01*
X-22167Y71588D01*
X-21970Y71486D01*
X-21775Y71379D01*
X-21583Y71267D01*
X-21394Y71150D01*
X-21207Y71029D01*
X-21024Y70903D01*
X-20844Y70773D01*
X-20667Y70638D01*
X-20494Y70500D01*
X-20324Y70357D01*
X-20157Y70209D01*
X-19994Y70058D01*
X-19835Y69903D01*
X-19680Y69744D01*
X-19529Y69581D01*
X-19381Y69414D01*
X-19238Y69244D01*
X-19100Y69071D01*
X-18965Y68894D01*
X-18835Y68714D01*
X-18709Y68531D01*
X-18588Y68344D01*
X-18471Y68155D01*
X-18359Y67963D01*
X-18252Y67768D01*
X-18150Y67571D01*
X-18052Y67372D01*
X-17960Y67169D01*
X-17872Y66965D01*
X-17790Y66759D01*
X-17712Y66551D01*
X-17640Y66340D01*
X-17573Y66129D01*
X-17511Y65915D01*
X-17454Y65700D01*
X-17403Y65484D01*
X-17357Y65267D01*
X-17316Y65048D01*
X-17281Y64829D01*
X-17251Y64608D01*
X-17227Y64388D01*
X-17208Y64166D01*
X-17194Y63944D01*
X-17186Y63722D01*
X-17183Y63500D01*
X-17186Y63278D01*
X-17194Y63056D01*
X-17208Y62834D01*
X-17227Y62612D01*
X-17251Y62392D01*
X-17281Y62171D01*
X-17316Y61952D01*
X-17357Y61733D01*
X-17403Y61516D01*
X-17454Y61300D01*
X-17511Y61085D01*
X-17573Y60871D01*
X-17640Y60660D01*
X-17712Y60449D01*
X-17790Y60241D01*
X-17872Y60035D01*
X-17960Y59831D01*
X-18052Y59628D01*
X-18150Y59429D01*
X-18252Y59232D01*
X-18359Y59037D01*
X-18471Y58845D01*
X-18588Y58656D01*
X-18709Y58469D01*
X-18835Y58286D01*
X-18965Y58106D01*
X-19100Y57929D01*
X-19238Y57756D01*
X-19381Y57586D01*
X-19529Y57419D01*
X-19680Y57256D01*
X-19835Y57097D01*
X-19994Y56942D01*
X-20157Y56791D01*
X-20324Y56643D01*
X-20494Y56500D01*
X-20667Y56362D01*
X-20844Y56227D01*
X-21024Y56097D01*
X-21207Y55971D01*
X-21394Y55850D01*
X-21583Y55733D01*
X-21775Y55621D01*
X-21970Y55514D01*
X-22167Y55412D01*
X-22366Y55314D01*
X-22569Y55222D01*
X-22773Y55134D01*
X-22979Y55052D01*
X-23187Y54974D01*
X-23398Y54902D01*
X-23609Y54835D01*
X-23823Y54773D01*
X-24038Y54716D01*
X-24254Y54665D01*
X-24471Y54619D01*
X-24690Y54578D01*
X-24909Y54543D01*
X-25130Y54513D01*
X-25350Y54489D01*
X-25572Y54470D01*
X-25794Y54456D01*
X-26016Y54448D01*
X-26238Y54445D01*
X-26460Y54448D01*
X-26682Y54456D01*
X-26904Y54470D01*
X-27126Y54489D01*
X-27346Y54513D01*
X-27567Y54543D01*
X-27786Y54578D01*
X-28005Y54619D01*
X-28222Y54665D01*
X-28438Y54716D01*
X-28653Y54773D01*
X-28867Y54835D01*
X-29078Y54902D01*
X-29289Y54974D01*
X-29497Y55052D01*
X-29703Y55134D01*
X-29907Y55222D01*
X-30110Y55314D01*
X-30309Y55412D01*
X-30506Y55514D01*
X-30701Y55621D01*
X-30893Y55733D01*
X-31082Y55850D01*
X-31269Y55971D01*
X-31452Y56097D01*
X-31632Y56227D01*
X-31809Y56362D01*
X-31982Y56500D01*
X-32152Y56643D01*
X-32319Y56791D01*
X-32482Y56942D01*
X-32641Y57097D01*
X-32796Y57256D01*
X-32947Y57419D01*
X-33095Y57586D01*
X-33238Y57756D01*
X-33376Y57929D01*
X-33511Y58106D01*
X-33641Y58286D01*
X-33767Y58469D01*
X-33888Y58656D01*
X-34005Y58845D01*
X-34117Y59037D01*
X-34224Y59232D01*
X-34326Y59429D01*
X-34424Y59628D01*
X-34516Y59831D01*
X-34604Y60035D01*
X-34686Y60241D01*
X-34764Y60449D01*
X-34836Y60660D01*
X-34903Y60871D01*
X-34965Y61085D01*
X-35022Y61300D01*
X-35073Y61516D01*
X-35119Y61733D01*
X-35160Y61952D01*
X-35195Y62171D01*
X-35225Y62392D01*
X-35249Y62612D01*
X-35268Y62834D01*
X-35282Y63056D01*
X-35290Y63278D01*
X-35293Y63500D01*
D10*
X-26238Y63500D03*
M02*
