M48
;GenerationSoftware,Autodesk,EAGLE,9.6.2*%
;CreationDate,2021-09-09T15:31:11Z*%
FMAT,2
ICI,OFF
METRIC,TZ,000.000
T3C0.305
T2C1.016
T1C1.500
%
G90
M71
T1
X107442Y179705
X13970Y24765
X37338Y24765
X60706Y24765
X84074Y24765
X107442Y24765
X13970Y55753
X37338Y55753
X60706Y55753
X84074Y55753
X107442Y55753
X13970Y86741
X37338Y86741
X60706Y86741
X84074Y86741
X107442Y86741
X13970Y117729
X37338Y117729
X60706Y117729
X84074Y117729
X107442Y117729
X13970Y148717
X37338Y148717
X60706Y148717
X84074Y148717
X107442Y148717
X13970Y179705
X37338Y179705
X60706Y179705
X84074Y179705
T2
X115062Y114554
X11430Y24765
X21590Y1270
X21590Y3810
X21590Y6350
X21590Y8890
X21590Y11430
X21590Y13970
X21590Y16510
X21590Y19050
X21590Y21590
X21590Y24130
X21590Y26670
X21590Y29210
X1270Y8890
X1270Y11430
X1270Y13970
X1270Y16510
X1270Y19050
X1270Y21590
X1270Y24130
X1270Y26670
X1270Y29210
X34798Y24765
X44958Y1270
X44958Y3810
X44958Y6350
X44958Y8890
X44958Y11430
X44958Y13970
X44958Y16510
X44958Y19050
X44958Y21590
X44958Y24130
X44958Y26670
X44958Y29210
X24638Y8890
X24638Y11430
X24638Y13970
X24638Y16510
X24638Y19050
X24638Y21590
X24638Y24130
X24638Y26670
X24638Y29210
X58166Y24765
X68326Y1270
X68326Y3810
X68326Y6350
X68326Y8890
X68326Y11430
X68326Y13970
X68326Y16510
X68326Y19050
X68326Y21590
X68326Y24130
X68326Y26670
X68326Y29210
X48006Y8890
X48006Y11430
X48006Y13970
X48006Y16510
X48006Y19050
X48006Y21590
X48006Y24130
X48006Y26670
X48006Y29210
X81534Y24765
X91694Y1270
X91694Y3810
X91694Y6350
X91694Y8890
X91694Y11430
X91694Y13970
X91694Y16510
X91694Y19050
X91694Y21590
X91694Y24130
X91694Y26670
X91694Y29210
X71374Y8890
X71374Y11430
X71374Y13970
X71374Y16510
X71374Y19050
X71374Y21590
X71374Y24130
X71374Y26670
X71374Y29210
X104902Y24765
X115062Y1270
X115062Y3810
X115062Y6350
X115062Y8890
X115062Y11430
X115062Y13970
X115062Y16510
X115062Y19050
X115062Y21590
X115062Y24130
X115062Y26670
X115062Y29210
X94742Y8890
X94742Y11430
X94742Y13970
X94742Y16510
X94742Y19050
X94742Y21590
X94742Y24130
X94742Y26670
X94742Y29210
X11430Y55753
X21590Y32258
X21590Y34798
X21590Y37338
X21590Y39878
X21590Y42418
X21590Y44958
X21590Y47498
X21590Y50038
X21590Y52578
X21590Y55118
X21590Y57658
X21590Y60198
X1270Y39878
X1270Y42418
X1270Y44958
X1270Y47498
X1270Y50038
X1270Y52578
X1270Y55118
X1270Y57658
X1270Y60198
X34798Y55753
X44958Y32258
X44958Y34798
X44958Y37338
X44958Y39878
X44958Y42418
X44958Y44958
X44958Y47498
X44958Y50038
X44958Y52578
X44958Y55118
X44958Y57658
X44958Y60198
X24638Y39878
X24638Y42418
X24638Y44958
X24638Y47498
X24638Y50038
X24638Y52578
X24638Y55118
X24638Y57658
X24638Y60198
X58166Y55753
X68326Y32258
X68326Y34798
X68326Y37338
X68326Y39878
X68326Y42418
X68326Y44958
X68326Y47498
X68326Y50038
X68326Y52578
X68326Y55118
X68326Y57658
X68326Y60198
X48006Y39878
X48006Y42418
X48006Y44958
X48006Y47498
X48006Y50038
X48006Y52578
X48006Y55118
X48006Y57658
X48006Y60198
X81534Y55753
X91694Y32258
X91694Y34798
X91694Y37338
X91694Y39878
X91694Y42418
X91694Y44958
X91694Y47498
X91694Y50038
X91694Y52578
X91694Y55118
X91694Y57658
X91694Y60198
X71374Y39878
X71374Y42418
X71374Y44958
X71374Y47498
X71374Y50038
X71374Y52578
X71374Y55118
X71374Y57658
X71374Y60198
X104902Y55753
X115062Y32258
X115062Y34798
X115062Y37338
X115062Y39878
X115062Y42418
X115062Y44958
X115062Y47498
X115062Y50038
X115062Y52578
X115062Y55118
X115062Y57658
X115062Y60198
X94742Y39878
X94742Y42418
X94742Y44958
X94742Y47498
X94742Y50038
X94742Y52578
X94742Y55118
X94742Y57658
X94742Y60198
X11430Y86741
X21590Y63246
X21590Y65786
X21590Y68326
X21590Y70866
X21590Y73406
X21590Y75946
X21590Y78486
X21590Y81026
X21590Y83566
X21590Y86106
X21590Y88646
X21590Y91186
X1270Y70866
X1270Y73406
X1270Y75946
X1270Y78486
X1270Y81026
X1270Y83566
X1270Y86106
X1270Y88646
X1270Y91186
X34798Y86741
X44958Y63246
X44958Y65786
X44958Y68326
X44958Y70866
X44958Y73406
X44958Y75946
X44958Y78486
X44958Y81026
X44958Y83566
X44958Y86106
X44958Y88646
X44958Y91186
X24638Y70866
X24638Y73406
X24638Y75946
X24638Y78486
X24638Y81026
X24638Y83566
X24638Y86106
X24638Y88646
X24638Y91186
X58166Y86741
X68326Y63246
X68326Y65786
X68326Y68326
X68326Y70866
X68326Y73406
X68326Y75946
X68326Y78486
X68326Y81026
X68326Y83566
X68326Y86106
X68326Y88646
X68326Y91186
X48006Y70866
X48006Y73406
X48006Y75946
X48006Y78486
X48006Y81026
X48006Y83566
X48006Y86106
X48006Y88646
X48006Y91186
X81534Y86741
X91694Y63246
X91694Y65786
X91694Y68326
X91694Y70866
X91694Y73406
X91694Y75946
X91694Y78486
X91694Y81026
X91694Y83566
X91694Y86106
X91694Y88646
X91694Y91186
X71374Y70866
X71374Y73406
X71374Y75946
X71374Y78486
X71374Y81026
X71374Y83566
X71374Y86106
X71374Y88646
X71374Y91186
X104902Y86741
X115062Y63246
X115062Y65786
X115062Y68326
X115062Y70866
X115062Y73406
X115062Y75946
X115062Y78486
X115062Y81026
X115062Y83566
X115062Y86106
X115062Y88646
X115062Y91186
X94742Y70866
X94742Y73406
X94742Y75946
X94742Y78486
X94742Y81026
X94742Y83566
X94742Y86106
X94742Y88646
X94742Y91186
X11430Y117729
X21590Y94234
X21590Y96774
X21590Y99314
X21590Y101854
X21590Y104394
X21590Y106934
X21590Y109474
X21590Y112014
X21590Y114554
X21590Y117094
X21590Y119634
X21590Y122174
X1270Y101854
X1270Y104394
X1270Y106934
X1270Y109474
X1270Y112014
X1270Y114554
X1270Y117094
X1270Y119634
X1270Y122174
X34798Y117729
X44958Y94234
X44958Y96774
X44958Y99314
X44958Y101854
X44958Y104394
X44958Y106934
X44958Y109474
X44958Y112014
X44958Y114554
X44958Y117094
X44958Y119634
X44958Y122174
X24638Y101854
X24638Y104394
X24638Y106934
X24638Y109474
X24638Y112014
X24638Y114554
X24638Y117094
X24638Y119634
X24638Y122174
X58166Y117729
X68326Y94234
X68326Y96774
X68326Y99314
X68326Y101854
X68326Y104394
X68326Y106934
X68326Y109474
X68326Y112014
X68326Y114554
X68326Y117094
X68326Y119634
X68326Y122174
X48006Y101854
X48006Y104394
X48006Y106934
X48006Y109474
X48006Y112014
X48006Y114554
X48006Y117094
X48006Y119634
X48006Y122174
X81534Y117729
X91694Y94234
X91694Y96774
X91694Y99314
X91694Y101854
X91694Y104394
X91694Y106934
X91694Y109474
X91694Y112014
X91694Y114554
X91694Y117094
X91694Y119634
X91694Y122174
X71374Y101854
X71374Y104394
X71374Y106934
X71374Y109474
X71374Y112014
X71374Y114554
X71374Y117094
X71374Y119634
X71374Y122174
X104902Y117729
X115062Y94234
X115062Y96774
X115062Y99314
X115062Y101854
X115062Y104394
X115062Y106934
X115062Y109474
X115062Y112014
X115062Y117094
X115062Y119634
X115062Y122174
X94742Y101854
X94742Y104394
X94742Y106934
X94742Y109474
X94742Y112014
X94742Y114554
X94742Y117094
X94742Y119634
X94742Y122174
X11430Y148717
X21590Y125222
X21590Y127762
X21590Y130302
X21590Y132842
X21590Y135382
X21590Y137922
X21590Y140462
X21590Y143002
X21590Y145542
X21590Y148082
X21590Y150622
X21590Y153162
X1270Y132842
X1270Y135382
X1270Y137922
X1270Y140462
X1270Y143002
X1270Y145542
X1270Y148082
X1270Y150622
X1270Y153162
X34798Y148717
X44958Y125222
X44958Y127762
X44958Y130302
X44958Y132842
X44958Y135382
X44958Y137922
X44958Y140462
X44958Y143002
X44958Y145542
X44958Y148082
X44958Y150622
X44958Y153162
X24638Y132842
X24638Y135382
X24638Y137922
X24638Y140462
X24638Y143002
X24638Y145542
X24638Y148082
X24638Y150622
X24638Y153162
X58166Y148717
X68326Y125222
X68326Y127762
X68326Y130302
X68326Y132842
X68326Y135382
X68326Y137922
X68326Y140462
X68326Y143002
X68326Y145542
X68326Y148082
X68326Y150622
X68326Y153162
X48006Y132842
X48006Y135382
X48006Y137922
X48006Y140462
X48006Y143002
X48006Y145542
X48006Y148082
X48006Y150622
X48006Y153162
X81534Y148717
X91694Y125222
X91694Y127762
X91694Y130302
X91694Y132842
X91694Y135382
X91694Y137922
X91694Y140462
X91694Y143002
X91694Y145542
X91694Y148082
X91694Y150622
X91694Y153162
X71374Y132842
X71374Y135382
X71374Y137922
X71374Y140462
X71374Y143002
X71374Y145542
X71374Y148082
X71374Y150622
X71374Y153162
X104902Y148717
X115062Y125222
X115062Y127762
X115062Y130302
X115062Y132842
X115062Y135382
X115062Y137922
X115062Y140462
X115062Y143002
X115062Y145542
X115062Y148082
X115062Y150622
X115062Y153162
X94742Y132842
X94742Y135382
X94742Y137922
X94742Y140462
X94742Y143002
X94742Y145542
X94742Y148082
X94742Y150622
X94742Y153162
X11430Y179705
X21590Y156210
X21590Y158750
X21590Y161290
X21590Y163830
X21590Y166370
X21590Y168910
X21590Y171450
X21590Y173990
X21590Y176530
X21590Y179070
X21590Y181610
X21590Y184150
X1270Y163830
X1270Y166370
X1270Y168910
X1270Y171450
X1270Y173990
X1270Y176530
X1270Y179070
X1270Y181610
X1270Y184150
X34798Y179705
X44958Y156210
X44958Y158750
X44958Y161290
X44958Y163830
X44958Y166370
X44958Y168910
X44958Y171450
X44958Y173990
X44958Y176530
X44958Y179070
X44958Y181610
X44958Y184150
X24638Y163830
X24638Y166370
X24638Y168910
X24638Y171450
X24638Y173990
X24638Y176530
X24638Y179070
X24638Y181610
X24638Y184150
X58166Y179705
X68326Y156210
X68326Y158750
X68326Y161290
X68326Y163830
X68326Y166370
X68326Y168910
X68326Y171450
X68326Y173990
X68326Y176530
X68326Y179070
X68326Y181610
X68326Y184150
X48006Y163830
X48006Y166370
X48006Y168910
X48006Y171450
X48006Y173990
X48006Y176530
X48006Y179070
X48006Y181610
X48006Y184150
X81534Y179705
X91694Y156210
X91694Y158750
X91694Y161290
X91694Y163830
X91694Y166370
X91694Y168910
X91694Y171450
X91694Y173990
X91694Y176530
X91694Y179070
X91694Y181610
X91694Y184150
X71374Y163830
X71374Y166370
X71374Y168910
X71374Y171450
X71374Y173990
X71374Y176530
X71374Y179070
X71374Y181610
X71374Y184150
X104902Y179705
X115062Y156210
X115062Y158750
X115062Y161290
X115062Y163830
X115062Y166370
X115062Y168910
X115062Y171450
X115062Y173990
X115062Y176530
X115062Y179070
X115062Y181610
X115062Y184150
X94742Y163830
X94742Y166370
X94742Y168910
X94742Y171450
X94742Y173990
X94742Y176530
X94742Y179070
X94742Y181610
X94742Y184150
T3
X49276Y120904
X56896Y112014
X55118Y111341
X49276Y110744
X63246Y110744
X57150Y101854
X59436Y104394
X59436Y106934
X59436Y109474
X60706Y112014
X65151Y115824
X51689Y119634
X76581Y99314
X74549Y99314
X74549Y96266
X75565Y95504
X83820Y95504
X75819Y112014
X77089Y112014
X84074Y120904
X78994Y120904
X80264Y118999
X82804Y118999
X75184Y117094
X73914Y115824
X77724Y117094
X79883Y117094
X82804Y116078
X73914Y112014
X71374Y95504
X71374Y99314
X79883Y93980
X85979Y118999
X89154Y118364
X76454Y108204
X76454Y103124
X87884Y103124
X87884Y108204
X89154Y110744
X72644Y120904
X80264Y112014
X78486Y111341
X72644Y110744
X86614Y110744
X80518Y101854
X82804Y104394
X82804Y106934
X82804Y109474
X84074Y112014
X88519Y115824
X75057Y119634
X99949Y99314
X97917Y99314
X97917Y96266
X98933Y95504
X107188Y95504
X99187Y112014
X100457Y112014
X107442Y120904
X102362Y120904
X103632Y118999
X106172Y118999
X98552Y117094
X97282Y115824
X101092Y117094
X103251Y117094
X106172Y116078
X97282Y112014
X94742Y95504
X94742Y99314
X103251Y93980
X109347Y118999
X112522Y118364
X99822Y108204
X99822Y103124
X111252Y103124
X111252Y108204
X112522Y110744
X96012Y120904
X103632Y112014
X101854Y111341
X96012Y110744
X109982Y110744
X103886Y101854
X106172Y104394
X106172Y106934
X106172Y109474
X107442Y112014
X111887Y115824
X98425Y119634
X6477Y130302
X4445Y130302
X4445Y127254
X5461Y126492
X13716Y126492
X5715Y143002
X6985Y143002
X13970Y151892
X8890Y151892
X10160Y149987
X12700Y149987
X5080Y148082
X3810Y146812
X7620Y148082
X9779Y148082
X12700Y147066
X3810Y143002
X1270Y126492
X1270Y130302
X9779Y124968
X15875Y149987
X19050Y149352
X6350Y139192
X6350Y134112
X17780Y134112
X17780Y139192
X19050Y141732
X2540Y151892
X10160Y143002
X8382Y142329
X2540Y141732
X16510Y141732
X10414Y132842
X12700Y135382
X12700Y137922
X12700Y140462
X13970Y143002
X18415Y146812
X4953Y150622
X29845Y130302
X27813Y130302
X27813Y127254
X28829Y126492
X37084Y126492
X29083Y143002
X30353Y143002
X37338Y151892
X32258Y151892
X33528Y149987
X36068Y149987
X28448Y148082
X27178Y146812
X30988Y148082
X33147Y148082
X36068Y147066
X27178Y143002
X24638Y126492
X24638Y130302
X33147Y124968
X39243Y149987
X42418Y149352
X29718Y139192
X29718Y134112
X41148Y134112
X41148Y139192
X42418Y141732
X25908Y151892
X33528Y143002
X31750Y142329
X25908Y141732
X39878Y141732
X33782Y132842
X36068Y135382
X36068Y137922
X36068Y140462
X37338Y143002
X41783Y146812
X28321Y150622
X53213Y130302
X51181Y130302
X51181Y127254
X52197Y126492
X60452Y126492
X52451Y143002
X53721Y143002
X60706Y151892
X55626Y151892
X56896Y149987
X59436Y149987
X51816Y148082
X50546Y146812
X54356Y148082
X56515Y148082
X59436Y147066
X50546Y143002
X48006Y126492
X48006Y130302
X56515Y124968
X62611Y149987
X65786Y149352
X53086Y139192
X53086Y134112
X64516Y134112
X64516Y139192
X65786Y141732
X49276Y151892
X56896Y143002
X55118Y142329
X49276Y141732
X63246Y141732
X57150Y132842
X59436Y135382
X59436Y137922
X59436Y140462
X60706Y143002
X65151Y146812
X51689Y150622
X76581Y130302
X74549Y130302
X74549Y127254
X75565Y126492
X83820Y126492
X75819Y143002
X77089Y143002
X84074Y151892
X78994Y151892
X80264Y149987
X82804Y149987
X75184Y148082
X73914Y146812
X77724Y148082
X79883Y148082
X82804Y147066
X73914Y143002
X71374Y126492
X71374Y130302
X79883Y124968
X85979Y149987
X89154Y149352
X76454Y139192
X76454Y134112
X87884Y134112
X87884Y139192
X89154Y141732
X72644Y151892
X80264Y143002
X78486Y142329
X72644Y141732
X86614Y141732
X80518Y132842
X18415Y53848
X82804Y137922
X82804Y140462
X84074Y143002
X88519Y146812
X75057Y150622
X99949Y130302
X97917Y130302
X97917Y127254
X98933Y126492
X107188Y126492
X99187Y143002
X100457Y143002
X107442Y151892
X102362Y151892
X103632Y149987
X106172Y149987
X98552Y148082
X97282Y146812
X101092Y148082
X103251Y148082
X106172Y147066
X97282Y143002
X94742Y126492
X94742Y130302
X103251Y124968
X109347Y149987
X112522Y149352
X99822Y139192
X99822Y134112
X111252Y134112
X111252Y139192
X112522Y141732
X96012Y151892
X103632Y143002
X101854Y142329
X96012Y141732
X109982Y141732
X103886Y132842
X106172Y135382
X106172Y137922
X106172Y140462
X107442Y143002
X111887Y146812
X98425Y150622
X6477Y161290
X4445Y161290
X4445Y158242
X5461Y157480
X13716Y157480
X5715Y173990
X6985Y173990
X13970Y182880
X8890Y182880
X10160Y180975
X12700Y180975
X5080Y179070
X3810Y177800
X7620Y179070
X9779Y179070
X12700Y178054
X3810Y173990
X1270Y157480
X1270Y161290
X9779Y155956
X15875Y180975
X19050Y180340
X6350Y170180
X6350Y165100
X17780Y165100
X17780Y170180
X19050Y172720
X2540Y182880
X10160Y173990
X8382Y173317
X2540Y172720
X16510Y172720
X10414Y163830
X12700Y166370
X12700Y168910
X12700Y171450
X13970Y173990
X18415Y177800
X4953Y181610
X29845Y161290
X27813Y161290
X27813Y158242
X28829Y157480
X37084Y157480
X29083Y173990
X30353Y173990
X37338Y182880
X32258Y182880
X33528Y180975
X36068Y180975
X28448Y179070
X27178Y177800
X30988Y179070
X33147Y179070
X36068Y178054
X27178Y173990
X24638Y157480
X24638Y161290
X33147Y155956
X39243Y180975
X42418Y180340
X29718Y170180
X29718Y165100
X41148Y165100
X41148Y170180
X42418Y172720
X25908Y182880
X33528Y173990
X31750Y173317
X25908Y172720
X39878Y172720
X33782Y163830
X36068Y166370
X36068Y168910
X36068Y171450
X37338Y173990
X41783Y177800
X28321Y181610
X53213Y161290
X51181Y161290
X51181Y158242
X52197Y157480
X60452Y157480
X52451Y173990
X53721Y173990
X60706Y182880
X55626Y182880
X56896Y180975
X59436Y180975
X51816Y179070
X50546Y177800
X54356Y179070
X56515Y179070
X59436Y178054
X50546Y173990
X48006Y157480
X48006Y161290
X56515Y155956
X62611Y180975
X65786Y180340
X53086Y170180
X53086Y165100
X64516Y165100
X64516Y170180
X65786Y172720
X49276Y182880
X56896Y173990
X55118Y173317
X49276Y172720
X63246Y172720
X57150Y163830
X59436Y166370
X59436Y168910
X59436Y171450
X60706Y173990
X65151Y177800
X51689Y181610
X76581Y161290
X74549Y161290
X74549Y158242
X75565Y157480
X83820Y157480
X75819Y173990
X77089Y173990
X84074Y182880
X78994Y182880
X80264Y180975
X82804Y180975
X75184Y179070
X73914Y177800
X77724Y179070
X79883Y179070
X82804Y178054
X73914Y173990
X71374Y157480
X71374Y161290
X79883Y155956
X85979Y180975
X89154Y180340
X76454Y170180
X76454Y165100
X87884Y165100
X87884Y170180
X89154Y172720
X72644Y182880
X80264Y173990
X78486Y173317
X72644Y172720
X86614Y172720
X80518Y163830
X82804Y166370
X82804Y168910
X82804Y171450
X84074Y173990
X88519Y177800
X75057Y181610
X99949Y161290
X97917Y161290
X97917Y158242
X98933Y157480
X107188Y157480
X99187Y173990
X100457Y173990
X107442Y182880
X102362Y182880
X103632Y180975
X106172Y180975
X98552Y179070
X97282Y177800
X101092Y179070
X103251Y179070
X106172Y178054
X97282Y173990
X94742Y157480
X94742Y161290
X103251Y155956
X109347Y180975
X112522Y180340
X99822Y170180
X99822Y165100
X111252Y165100
X111252Y170180
X112522Y172720
X96012Y182880
X103632Y173990
X101854Y173317
X96012Y172720
X109982Y172720
X103886Y163830
X106172Y166370
X106172Y168910
X106172Y171450
X107442Y173990
X111887Y177800
X98425Y181610
X6477Y6350
X4445Y6350
X4445Y3302
X5461Y2540
X13716Y2540
X5715Y19050
X6985Y19050
X13970Y27940
X8890Y27940
X10160Y26035
X12700Y26035
X5080Y24130
X3810Y22860
X7620Y24130
X9779Y24130
X12700Y23114
X3810Y19050
X1270Y2540
X1270Y6350
X9779Y1016
X15875Y26035
X19050Y25400
X6350Y15240
X6350Y10160
X17780Y10160
X17780Y15240
X19050Y17780
X2540Y27940
X10160Y19050
X8382Y18377
X2540Y17780
X16510Y17780
X10414Y8890
X12700Y11430
X12700Y13970
X12700Y16510
X13970Y19050
X18415Y22860
X4953Y26670
X29845Y6350
X27813Y6350
X27813Y3302
X28829Y2540
X37084Y2540
X29083Y19050
X30353Y19050
X37338Y27940
X32258Y27940
X33528Y26035
X36068Y26035
X28448Y24130
X27178Y22860
X30988Y24130
X33147Y24130
X36068Y23114
X27178Y19050
X24638Y2540
X24638Y6350
X33147Y1016
X39243Y26035
X42418Y25400
X29718Y15240
X29718Y10160
X41148Y10160
X41148Y15240
X42418Y17780
X25908Y27940
X33528Y19050
X31750Y18377
X25908Y17780
X39878Y17780
X33782Y8890
X36068Y11430
X36068Y13970
X36068Y16510
X37338Y19050
X41783Y22860
X28321Y26670
X53213Y6350
X51181Y6350
X51181Y3302
X52197Y2540
X60452Y2540
X52451Y19050
X53721Y19050
X60706Y27940
X55626Y27940
X56896Y26035
X59436Y26035
X51816Y24130
X50546Y22860
X54356Y24130
X56515Y24130
X59436Y23114
X50546Y19050
X48006Y2540
X48006Y6350
X56515Y1016
X62611Y26035
X65786Y25400
X53086Y15240
X53086Y10160
X64516Y10160
X64516Y15240
X65786Y17780
X49276Y27940
X56896Y19050
X55118Y18377
X49276Y17780
X63246Y17780
X57150Y8890
X59436Y11430
X59436Y13970
X59436Y16510
X60706Y19050
X65151Y22860
X51689Y26670
X76581Y6350
X74549Y6350
X74549Y3302
X75565Y2540
X83820Y2540
X75819Y19050
X77089Y19050
X84074Y27940
X78994Y27940
X80264Y26035
X82804Y26035
X75184Y24130
X73914Y22860
X77724Y24130
X79883Y24130
X82804Y23114
X73914Y19050
X71374Y2540
X71374Y6350
X79883Y1016
X85979Y26035
X89154Y25400
X76454Y15240
X76454Y10160
X87884Y10160
X87884Y15240
X89154Y17780
X72644Y27940
X80264Y19050
X78486Y18377
X72644Y17780
X86614Y17780
X80518Y8890
X82804Y11430
X82804Y13970
X82804Y16510
X84074Y19050
X88519Y22860
X75057Y26670
X99949Y6350
X97917Y6350
X97917Y3302
X98933Y2540
X107188Y2540
X99187Y19050
X100457Y19050
X107442Y27940
X102362Y27940
X103632Y26035
X106172Y26035
X98552Y24130
X97282Y22860
X101092Y24130
X103251Y24130
X106172Y23114
X97282Y19050
X94742Y2540
X94742Y6350
X103251Y1016
X109347Y26035
X112522Y25400
X99822Y15240
X99822Y10160
X111252Y10160
X111252Y15240
X112522Y17780
X96012Y27940
X103632Y19050
X101854Y18377
X96012Y17780
X109982Y17780
X103886Y8890
X106172Y11430
X106172Y13970
X106172Y16510
X107442Y19050
X111887Y22860
X98425Y26670
X6477Y37338
X4445Y37338
X4445Y34290
X5461Y33528
X13716Y33528
X5715Y50038
X6985Y50038
X13970Y58928
X8890Y58928
X10160Y57023
X12700Y57023
X5080Y55118
X3810Y53848
X7620Y55118
X9779Y55118
X12700Y54102
X3810Y50038
X1270Y33528
X1270Y37338
X9779Y32004
X15875Y57023
X19050Y56388
X6350Y46228
X6350Y41148
X17780Y41148
X17780Y46228
X19050Y48768
X2540Y58928
X10160Y50038
X8382Y49365
X2540Y48768
X16510Y48768
X10414Y39878
X12700Y42418
X12700Y44958
X12700Y47498
X13970Y50038
X4953Y57658
X29845Y37338
X27813Y37338
X27813Y34290
X28829Y33528
X37084Y33528
X29083Y50038
X30353Y50038
X37338Y58928
X32258Y58928
X33528Y57023
X36068Y57023
X28448Y55118
X27178Y53848
X30988Y55118
X33147Y55118
X36068Y54102
X27178Y50038
X24638Y33528
X24638Y37338
X33147Y32004
X39243Y57023
X42418Y56388
X29718Y46228
X29718Y41148
X41148Y41148
X41148Y46228
X42418Y48768
X25908Y58928
X33528Y50038
X31750Y49365
X25908Y48768
X39878Y48768
X33782Y39878
X36068Y42418
X36068Y44958
X36068Y47498
X37338Y50038
X41783Y53848
X28321Y57658
X53213Y37338
X51181Y37338
X51181Y34290
X52197Y33528
X60452Y33528
X52451Y50038
X53721Y50038
X60706Y58928
X55626Y58928
X56896Y57023
X59436Y57023
X51816Y55118
X50546Y53848
X54356Y55118
X56515Y55118
X59436Y54102
X50546Y50038
X48006Y33528
X48006Y37338
X56515Y32004
X62611Y57023
X65786Y56388
X53086Y46228
X53086Y41148
X64516Y41148
X64516Y46228
X65786Y48768
X49276Y58928
X56896Y50038
X55118Y49365
X49276Y48768
X63246Y48768
X57150Y39878
X59436Y42418
X59436Y44958
X59436Y47498
X60706Y50038
X65151Y53848
X51689Y57658
X76581Y37338
X74549Y37338
X74549Y34290
X75565Y33528
X83820Y33528
X75819Y50038
X77089Y50038
X84074Y58928
X78994Y58928
X80264Y57023
X82804Y57023
X75184Y55118
X73914Y53848
X77724Y55118
X79883Y55118
X82804Y54102
X73914Y50038
X71374Y33528
X71374Y37338
X79883Y32004
X85979Y57023
X89154Y56388
X76454Y46228
X76454Y41148
X87884Y41148
X87884Y46228
X89154Y48768
X72644Y58928
X80264Y50038
X78486Y49365
X72644Y48768
X86614Y48768
X80518Y39878
X82804Y42418
X82804Y44958
X82804Y47498
X84074Y50038
X88519Y53848
X75057Y57658
X99949Y37338
X97917Y37338
X97917Y34290
X98933Y33528
X107188Y33528
X99187Y50038
X100457Y50038
X107442Y58928
X102362Y58928
X103632Y57023
X106172Y57023
X98552Y55118
X97282Y53848
X101092Y55118
X103251Y55118
X106172Y54102
X97282Y50038
X94742Y33528
X94742Y37338
X103251Y32004
X109347Y57023
X112522Y56388
X99822Y46228
X99822Y41148
X111252Y41148
X111252Y46228
X112522Y48768
X96012Y58928
X103632Y50038
X101854Y49365
X96012Y48768
X109982Y48768
X103886Y39878
X106172Y42418
X106172Y44958
X106172Y47498
X107442Y50038
X111887Y53848
X98425Y57658
X6477Y68326
X4445Y68326
X4445Y65278
X5461Y64516
X13716Y64516
X5715Y81026
X6985Y81026
X13970Y89916
X8890Y89916
X10160Y88011
X12700Y88011
X5080Y86106
X3810Y84836
X7620Y86106
X9779Y86106
X12700Y85090
X3810Y81026
X1270Y64516
X1270Y68326
X9779Y62992
X15875Y88011
X19050Y87376
X6350Y77216
X6350Y72136
X17780Y72136
X17780Y77216
X19050Y79756
X2540Y89916
X10160Y81026
X8382Y80353
X2540Y79756
X16510Y79756
X10414Y70866
X12700Y73406
X12700Y75946
X12700Y78486
X13970Y81026
X18415Y84836
X4953Y88646
X29845Y68326
X27813Y68326
X27813Y65278
X28829Y64516
X37084Y64516
X29083Y81026
X30353Y81026
X37338Y89916
X32258Y89916
X33528Y88011
X36068Y88011
X28448Y86106
X27178Y84836
X30988Y86106
X33147Y86106
X36068Y85090
X27178Y81026
X24638Y64516
X24638Y68326
X33147Y62992
X39243Y88011
X42418Y87376
X29718Y77216
X29718Y72136
X41148Y72136
X41148Y77216
X42418Y79756
X25908Y89916
X33528Y81026
X82804Y135382
X31750Y80353
X25908Y79756
X39878Y79756
X33782Y70866
X36068Y73406
X36068Y75946
X36068Y78486
X37338Y81026
X41783Y84836
X28321Y88646
X53213Y68326
X51181Y68326
X51181Y65278
X52197Y64516
X60452Y64516
X52451Y81026
X53721Y81026
X60706Y89916
X55626Y89916
X56896Y88011
X59436Y88011
X51816Y86106
X50546Y84836
X54356Y86106
X56515Y86106
X59436Y85090
X50546Y81026
X48006Y64516
X48006Y68326
X56515Y62992
X62611Y88011
X65786Y87376
X53086Y77216
X53086Y72136
X64516Y72136
X64516Y77216
X65786Y79756
X49276Y89916
X56896Y81026
X55118Y80353
X49276Y79756
X63246Y79756
X57150Y70866
X59436Y73406
X59436Y75946
X59436Y78486
X60706Y81026
X65151Y84836
X51689Y88646
X76581Y68326
X74549Y68326
X74549Y65278
X75565Y64516
X83820Y64516
X75819Y81026
X77089Y81026
X84074Y89916
X78994Y89916
X80264Y88011
X82804Y88011
X75184Y86106
X73914Y84836
X77724Y86106
X79883Y86106
X82804Y85090
X73914Y81026
X71374Y64516
X71374Y68326
X79883Y62992
X85979Y88011
X89154Y87376
X76454Y77216
X76454Y72136
X87884Y72136
X87884Y77216
X89154Y79756
X72644Y89916
X80264Y81026
X78486Y80353
X72644Y79756
X86614Y79756
X80518Y70866
X82804Y73406
X82804Y75946
X82804Y78486
X84074Y81026
X88519Y84836
X75057Y88646
X99949Y68326
X97917Y68326
X97917Y65278
X98933Y64516
X107188Y64516
X99187Y81026
X100457Y81026
X107442Y89916
X102362Y89916
X103632Y88011
X106172Y88011
X98552Y86106
X97282Y84836
X101092Y86106
X103251Y86106
X106172Y85090
X97282Y81026
X94742Y64516
X94742Y68326
X103251Y62992
X109347Y88011
X112522Y87376
X99822Y77216
X99822Y72136
X111252Y72136
X111252Y77216
X112522Y79756
X96012Y89916
X103632Y81026
X101854Y80353
X96012Y79756
X109982Y79756
X103886Y70866
X106172Y73406
X106172Y75946
X106172Y78486
X107442Y81026
X111887Y84836
X98425Y88646
X6477Y99314
X4445Y99314
X4445Y96266
X5461Y95504
X13716Y95504
X5715Y112014
X6985Y112014
X13970Y120904
X8890Y120904
X10160Y118999
X12700Y118999
X5080Y117094
X3810Y115824
X7620Y117094
X9779Y117094
X12700Y116078
X3810Y112014
X1270Y95504
X1270Y99314
X9779Y93980
X15875Y118999
X19050Y118364
X6350Y108204
X6350Y103124
X17780Y103124
X17780Y108204
X19050Y110744
X2540Y120904
X10160Y112014
X8382Y111341
X2540Y110744
X16510Y110744
X10414Y101854
X12700Y104394
X12700Y106934
X12700Y109474
X13970Y112014
X18415Y115824
X4953Y119634
X29845Y99314
X27813Y99314
X27813Y96266
X28829Y95504
X37084Y95504
X29083Y112014
X30353Y112014
X37338Y120904
X32258Y120904
X33528Y118999
X36068Y118999
X28448Y117094
X27178Y115824
X30988Y117094
X33147Y117094
X36068Y116078
X27178Y112014
X24638Y95504
X24638Y99314
X33147Y93980
X39243Y118999
X42418Y118364
X29718Y108204
X29718Y103124
X41148Y103124
X41148Y108204
X42418Y110744
X25908Y120904
X33528Y112014
X31750Y111341
X25908Y110744
X39878Y110744
X33782Y101854
X36068Y104394
X36068Y106934
X36068Y109474
X37338Y112014
X41783Y115824
X28321Y119634
X53213Y99314
X51181Y99314
X51181Y96266
X52197Y95504
X60452Y95504
X52451Y112014
X53721Y112014
X60706Y120904
X55626Y120904
X56896Y118999
X59436Y118999
X51816Y117094
X50546Y115824
X54356Y117094
X56515Y117094
X59436Y116078
X50546Y112014
X48006Y95504
X48006Y99314
X56515Y93980
X62611Y118999
X65786Y118364
X53086Y108204
X53086Y103124
X64516Y103124
X64516Y108204
X65786Y110744
M30